<svg width="179" height="251" viewBox="0 0 179 251" fill="none" xmlns="http://www.w3.org/2000/svg">
<g clip-path="url(#clip0_16_88)">
<path d="M78.2241 0.220953L87.3197 9.36867L18.7344 77.5641L71.0425 130.165L52.7535 148.356L85.3068 181.096L180.565 86.3791L189.661 95.5267L85.2548 199.339L34.5101 148.304L52.7991 130.113L0.491049 77.5121L78.2241 0.220953Z" fill="#A0A0A0"/>
<path d="M170.892 130.437L179.994 139.585L85.1563 233.877L46.1722 194.664L55.3198 185.568L85.2083 215.634L170.892 130.437Z" fill="#A0A0A0"/>
<path d="M99.0356 3.39714L155.243 59.932L113.992 100.954L68.6295 56.9428L47.3613 78.0901L110.415 139.888L83.0487 167.092L67.3259 151.273L76.4736 142.178L83.1007 148.849L92.051 139.956L28.997 78.1584L68.516 38.864L113.879 82.8692L136.999 59.8799L89.8816 12.4928L99.0356 3.39714Z" fill="#A0A0A0"/>
<path d="M113.822 68.8576L122.969 59.7629L89.5306 26.1336L80.384 35.2283L113.822 68.8576Z" fill="#A0A0A0"/>
<path d="M179.94 51.674L189.036 60.8217L115.097 134.347L59.2568 78.1875L68.4108 69.0918L115.149 116.097L179.94 51.674Z" fill="#A0A0A0"/>
<path d="M128.895 3.58983L159.992 34.8651L173.755 21.1804L182.851 30.3345L159.94 53.1148L119.747 12.6855L128.895 3.58983Z" fill="#A0A0A0"/>
<path d="M122.487 229.302L180.846 171.255L171.749 162.11L113.391 220.157L122.487 229.302Z" fill="#A0A0A0"/>
<path d="M148.36 238.282L179.864 206.947L170.768 197.801L139.264 229.137L148.36 238.282Z" fill="#A0A0A0"/>
<path d="M101.439 250.071L113.393 238.181L104.296 229.036L92.3431 240.925L101.439 250.071Z" fill="#A0A0A0"/>
</g>
<defs>
<clipPath id="clip0_16_88">
<rect width="177.906" height="249.771" fill="white" transform="translate(177.906 250.277) rotate(-179.837)"/>
</clipPath>
</defs>
</svg>
