<svg width="1921" height="239" viewBox="0 0 1921 239" fill="none" xmlns="http://www.w3.org/2000/svg">
<g clip-path="url(#clip0_16_322)">
<path d="M427.229 119.253L434.71 111.387L418.808 96.263L411.327 104.129L427.229 119.253Z" fill="#A0A0A0"/>
<path d="M415.742 94.4255L427.173 105.302L437.674 94.2548L445.546 101.736L427.558 120.65L408.255 102.292L415.742 94.4255Z" fill="#A0A0A0"/>
<path d="M379.429 140.796L343.375 106.507L350.862 98.6398L379.044 125.448L470.428 29.3672L562.901 117.315L555.42 125.181L470.813 44.7155L379.429 140.796Z" fill="#A0A0A0"/>
<path d="M339.868 212.957L332.001 205.476L471.623 58.6641L532.257 116.331L496.405 154.033L515.117 171.828L535.614 150.276L571.888 184.779L564.406 192.646L535.999 165.629L515.502 187.182L481.051 154.418L516.908 116.716L472.008 74.0178L339.868 212.957Z" fill="#A0A0A0"/>
<path d="M558.559 215.594L536.847 194.94L517.719 215.053L429.527 131.171L471.917 86.5937L505.147 118.197L475.288 149.592L467.421 142.111L489.798 118.582L472.303 101.947L444.875 130.786L517.334 199.699L536.462 179.592L566.046 207.727L558.559 215.594Z" fill="#A0A0A0"/>
<path d="M565.534 163.692L538.409 137.894L515.834 161.63L507.962 154.149L538.024 122.545L573.021 155.825L565.534 163.692Z" fill="#A0A0A0"/>
<path d="M476.424 187.448L468.943 195.314L484.845 210.438L492.326 202.572L476.424 187.448Z" fill="#A0A0A0"/>
<path d="M494.164 25.5732L486.683 33.439L556.136 99.4928L563.616 91.627L494.164 25.5732Z" fill="#A0A0A0"/>
<path d="M481.661 27.0603L470.231 16.1839L459.73 27.231L451.858 19.7495L469.846 0.835527L489.148 19.1935L481.661 27.0603Z" fill="#A0A0A0"/>
<path d="M509.338 11.1891L501.857 19.0549L556.171 70.7104L563.652 62.8446L509.338 11.1891Z" fill="#A0A0A0"/>
<path d="M540.812 14.7228L533.331 22.5886L551.052 39.4426L558.533 31.5768L540.812 14.7228Z" fill="#A0A0A0"/>
<path d="M471.667 110.958L453.977 129.565L461.844 137.045L479.534 118.438L471.667 110.958Z" fill="#A0A0A0"/>
<path d="M349.957 78.3243L386.011 112.614L378.524 120.481L350.342 93.6726L258.958 189.753L166.485 101.806L173.967 93.9392L258.573 174.405L349.957 78.3243Z" fill="#A0A0A0"/>
<path d="M389.519 6.1636L397.385 13.6453L257.764 160.457L197.13 102.79L232.981 65.0882L214.27 47.2925L193.772 68.8451L157.499 34.3417L164.98 26.4751L193.387 53.4914L213.885 31.9388L248.335 64.7031L212.478 102.405L257.379 145.103L389.519 6.1636Z" fill="#A0A0A0"/>
<path d="M170.828 3.52656L192.54 24.1807L211.668 4.06788L299.86 87.9493L257.47 132.527L224.24 100.924L254.099 69.5282L261.966 77.0099L239.588 100.539L257.084 117.173L284.512 88.3343L212.053 19.4216L192.925 39.5291L163.341 11.3934L170.828 3.52656Z" fill="#A0A0A0"/>
<path d="M163.852 55.4293L190.977 81.2273L213.553 57.4905L221.425 64.972L191.362 96.5757L156.365 63.2961L163.852 55.4293Z" fill="#A0A0A0"/>
<path d="M252.962 31.6722L260.443 23.8064L244.541 8.68271L237.06 16.5485L252.962 31.6722Z" fill="#A0A0A0"/>
<path d="M235.223 193.548L242.704 185.682L173.251 119.628L165.77 127.494L235.223 193.548Z" fill="#A0A0A0"/>
<path d="M247.671 189.924L259.102 200.801L269.603 189.754L277.475 197.235L259.487 216.149L240.184 197.791L247.671 189.924Z" fill="#A0A0A0"/>
<path d="M220.048 207.931L227.529 200.065L173.216 148.41L165.735 156.276L220.048 207.931Z" fill="#A0A0A0"/>
<path d="M185.931 205.533L193.412 197.667L175.691 180.813L168.21 188.679L185.931 205.533Z" fill="#A0A0A0"/>
<path d="M257.719 108.162L275.409 89.5554L267.542 82.0759L249.852 100.683L257.719 108.162Z" fill="#A0A0A0"/>
<path d="M-19.9284 133.714L-55.9826 99.4238L-48.4956 91.557L-20.3134 118.365L71.0705 22.2844L163.544 110.232L156.062 118.099L71.4555 37.6328L-19.9284 133.714Z" fill="#A0A0A0"/>
<path d="M-59.4898 205.874L-67.3565 198.393L72.265 51.5811L132.899 109.248L97.0476 146.95L115.759 164.745L136.257 143.193L172.53 177.696L165.048 185.563L136.642 158.546L116.144 180.099L81.6939 147.335L117.551 109.633L72.6502 66.9348L-59.4898 205.874Z" fill="#A0A0A0"/>
<path d="M159.201 208.512L137.489 187.857L118.361 207.97L30.1685 124.089L72.5594 79.5111L105.789 111.114L75.9297 142.51L68.0631 135.028L90.4404 111.499L72.9445 94.8648L45.5168 123.704L117.976 192.617L137.104 172.509L166.688 200.645L159.201 208.512Z" fill="#A0A0A0"/>
<path d="M166.176 156.609L139.051 130.811L116.476 154.548L108.604 147.066L138.666 115.462L173.663 148.742L166.176 156.609Z" fill="#A0A0A0"/>
<path d="M94.8057 18.4899L87.3248 26.3557L156.778 92.4096L164.259 84.5438L94.8057 18.4899Z" fill="#A0A0A0"/>
<path d="M109.98 4.10637L102.5 11.9722L156.813 63.6276L164.294 55.7618L109.98 4.10637Z" fill="#A0A0A0"/>
<path d="M144.112 7.03898L136.631 14.9048L154.352 31.7588L161.833 23.893L144.112 7.03898Z" fill="#A0A0A0"/>
<path d="M749.318 85.5293L785.372 119.819L777.885 127.686L749.703 100.878L658.319 196.958L565.846 109.011L573.327 101.144L657.934 181.61L749.318 85.5293Z" fill="#A0A0A0"/>
<path d="M788.879 13.3687L796.746 20.8504L657.124 167.662L596.49 109.995L632.342 72.2933L613.631 54.4976L593.133 76.0502L556.859 41.5468L564.341 33.6801L592.748 60.6965L613.245 39.1439L647.696 71.9081L611.839 109.61L656.739 152.308L788.879 13.3687Z" fill="#A0A0A0"/>
<path d="M570.188 10.7316L591.9 31.3858L611.028 11.273L699.221 95.1544L656.83 139.732L623.6 108.129L653.459 76.7333L661.326 84.215L638.949 107.744L656.445 124.378L683.872 95.5394L611.413 26.6267L592.285 46.7341L562.701 18.5984L570.188 10.7316Z" fill="#A0A0A0"/>
<path d="M563.213 62.6342L590.338 88.4322L612.913 64.6953L620.785 72.1769L590.723 103.781L555.726 70.501L563.213 62.6342Z" fill="#A0A0A0"/>
<path d="M652.323 38.8777L659.804 31.012L643.902 15.8883L636.421 23.7541L652.323 38.8777Z" fill="#A0A0A0"/>
<path d="M634.583 200.753L642.064 192.887L572.611 126.833L565.131 134.699L634.583 200.753Z" fill="#A0A0A0"/>
<path d="M647.086 199.266L658.516 210.142L669.017 199.095L676.889 206.576L658.901 225.49L639.599 207.132L647.086 199.266Z" fill="#A0A0A0"/>
<path d="M619.409 215.137L626.89 207.271L572.576 155.615L565.095 163.481L619.409 215.137Z" fill="#A0A0A0"/>
<path d="M587.935 211.603L595.416 203.738L577.695 186.884L570.214 194.749L587.935 211.603Z" fill="#A0A0A0"/>
<path d="M657.08 115.368L674.77 96.7607L666.903 89.2813L649.213 107.888L657.08 115.368Z" fill="#A0A0A0"/>
<path d="M778.79 148.001L742.736 113.712L750.223 105.845L778.405 132.653L869.789 36.5723L962.262 124.52L954.78 132.386L870.174 51.9206L778.79 148.001Z" fill="#A0A0A0"/>
<path d="M1178.58 155.453L1142.53 121.163L1150.01 113.297L1178.2 140.105L1269.58 44.0239L1362.05 131.971L1354.57 139.838L1269.96 59.3723L1178.58 155.453Z" fill="#A0A0A0"/>
<path d="M1577.09 161.386L1541.04 127.096L1548.53 119.23L1576.71 146.038L1668.09 49.957L1760.57 137.905L1753.08 145.771L1668.48 65.3054L1577.09 161.386Z" fill="#A0A0A0"/>
<path d="M739.228 220.162L731.362 212.681L870.983 65.8692L931.617 123.536L895.766 161.238L914.477 179.033L934.975 157.481L971.248 191.984L963.767 199.851L935.36 172.835L914.862 194.387L880.412 161.623L916.269 123.921L871.368 81.2229L739.228 220.162Z" fill="#A0A0A0"/>
<path d="M1139.02 227.614L1131.15 220.132L1270.77 73.3203L1331.41 130.987L1295.56 168.689L1314.27 186.485L1334.77 164.932L1371.04 199.435L1363.56 207.302L1335.15 180.286L1314.65 201.838L1280.2 169.074L1316.06 131.372L1271.16 88.674L1139.02 227.614Z" fill="#A0A0A0"/>
<path d="M1537.53 233.547L1529.67 226.065L1669.29 79.2534L1729.92 136.92L1694.07 174.622L1712.78 192.418L1733.28 170.865L1769.55 205.368L1762.07 213.235L1733.66 186.219L1713.17 207.771L1678.72 175.007L1714.57 137.305L1669.67 94.6071L1537.53 233.547Z" fill="#A0A0A0"/>
<path d="M957.919 222.799L936.207 202.145L917.079 222.258L828.887 138.377L871.277 93.799L904.507 125.402L874.648 156.798L866.781 149.316L889.159 125.787L871.663 109.153L844.235 137.992L916.694 206.904L935.822 186.797L965.406 214.933L957.919 222.799Z" fill="#A0A0A0"/>
<path d="M1357.71 230.251L1336 209.597L1316.87 229.71L1228.68 145.828L1271.07 101.251L1304.3 132.854L1274.44 164.249L1266.57 156.768L1288.95 133.239L1271.45 116.604L1244.03 145.443L1316.48 214.356L1335.61 194.249L1365.2 222.384L1357.71 230.251Z" fill="#A0A0A0"/>
<path d="M1756.22 236.184L1734.51 215.53L1715.38 235.643L1627.19 151.761L1669.58 107.184L1702.81 138.787L1672.95 170.182L1665.09 162.701L1687.46 139.172L1669.97 122.537L1642.54 151.376L1715 220.289L1734.13 200.181L1763.71 228.317L1756.22 236.184Z" fill="#A0A0A0"/>
<path d="M964.895 170.897L937.769 145.099L915.194 168.835L907.322 161.354L937.384 129.75L972.382 163.03L964.895 170.897Z" fill="#A0A0A0"/>
<path d="M1364.69 178.348L1337.56 152.55L1314.98 176.287L1307.11 168.805L1337.17 137.201L1372.17 170.481L1364.69 178.348Z" fill="#A0A0A0"/>
<path d="M1763.2 184.281L1736.07 158.483L1713.5 182.22L1705.63 174.738L1735.69 143.135L1770.69 176.414L1763.2 184.281Z" fill="#A0A0A0"/>
<path d="M875.785 194.654L868.304 202.52L884.206 217.643L891.687 209.777L875.785 194.654Z" fill="#A0A0A0"/>
<path d="M1275.58 202.105L1268.09 209.971L1284 225.094L1291.48 217.229L1275.58 202.105Z" fill="#A0A0A0"/>
<path d="M1674.09 208.038L1666.61 215.904L1682.51 231.027L1689.99 223.162L1674.09 208.038Z" fill="#A0A0A0"/>
<path d="M893.524 32.778L886.043 40.6438L955.496 106.698L962.977 98.8319L893.524 32.778Z" fill="#A0A0A0"/>
<path d="M1293.31 40.2292L1285.83 48.095L1355.29 114.149L1362.77 106.283L1293.31 40.2292Z" fill="#A0A0A0"/>
<path d="M1691.83 46.1625L1684.35 54.0283L1753.8 120.082L1761.28 112.216L1691.83 46.1625Z" fill="#A0A0A0"/>
<path d="M881.076 36.4016L869.645 25.5252L859.144 36.5723L851.272 29.0908L869.26 10.1768L888.563 28.5348L881.076 36.4016Z" fill="#A0A0A0"/>
<path d="M1280.87 43.8528L1269.44 32.9764L1258.93 44.0235L1251.06 36.542L1269.05 17.628L1288.35 35.986L1280.87 43.8528Z" fill="#A0A0A0"/>
<path d="M1679.38 49.7859L1667.95 38.9095L1657.45 49.9566L1649.58 42.4751L1667.56 23.5611L1686.87 41.9191L1679.38 49.7859Z" fill="#A0A0A0"/>
<path d="M908.699 18.3942L901.218 26.26L955.531 77.9155L963.012 70.0497L908.699 18.3942Z" fill="#A0A0A0"/>
<path d="M1308.49 25.8456L1301.01 33.7114L1355.32 85.3669L1362.8 77.5011L1308.49 25.8456Z" fill="#A0A0A0"/>
<path d="M1707 31.779L1699.52 39.6448L1753.84 91.3002L1761.32 83.4344L1707 31.779Z" fill="#A0A0A0"/>
<path d="M942.816 20.7929L935.335 28.6587L953.057 45.5127L960.537 37.6469L942.816 20.7929Z" fill="#A0A0A0"/>
<path d="M1342.61 28.2441L1335.13 36.1099L1352.85 52.9639L1360.33 45.0981L1342.61 28.2441Z" fill="#A0A0A0"/>
<path d="M1741.12 34.1777L1733.64 42.0435L1751.36 58.8975L1758.84 51.0317L1741.12 34.1777Z" fill="#A0A0A0"/>
<path d="M871.028 118.163L853.338 136.77L861.205 144.25L878.895 125.643L871.028 118.163Z" fill="#A0A0A0"/>
<path d="M1270.82 125.615L1253.13 144.222L1261 151.701L1278.69 133.094L1270.82 125.615Z" fill="#A0A0A0"/>
<path d="M1669.33 131.548L1651.64 150.155L1659.51 157.634L1677.2 139.027L1669.33 131.548Z" fill="#A0A0A0"/>
<path d="M1148.68 92.6121L1184.73 126.902L1177.24 134.769L1149.06 107.96L1057.68 204.041L965.204 116.094L972.685 108.227L1057.29 188.693L1148.68 92.6121Z" fill="#A0A0A0"/>
<path d="M1548.47 100.064L1584.52 134.353L1577.03 142.22L1548.85 115.412L1457.47 211.493L1364.99 123.545L1372.48 115.678L1457.08 196.144L1548.47 100.064Z" fill="#A0A0A0"/>
<path d="M1946.98 105.997L1983.03 140.286L1975.55 148.153L1947.36 121.345L1855.98 217.426L1763.51 129.478L1770.99 121.612L1855.6 202.077L1946.98 105.997Z" fill="#A0A0A0"/>
<path d="M1188.24 20.4514L1196.1 27.9331L1056.48 174.745L995.848 117.078L1031.7 79.376L1012.99 61.5803L992.49 83.1329L956.217 48.6296L963.699 40.7629L992.105 67.7792L1012.6 46.2266L1047.05 78.9909L1011.2 116.693L1056.1 159.391L1188.24 20.4514Z" fill="#A0A0A0"/>
<path d="M1588.03 27.9031L1595.89 35.3848L1456.27 182.196L1395.64 124.53L1431.49 86.8277L1412.78 69.032L1392.28 90.5846L1356.01 56.0812L1363.49 48.2146L1391.9 75.2309L1412.39 53.6783L1446.84 86.4426L1410.99 124.145L1455.89 166.843L1588.03 27.9031Z" fill="#A0A0A0"/>
<path d="M1986.54 33.8362L1994.41 41.3179L1854.79 188.129L1794.15 130.463L1830 92.7608L1811.29 74.9651L1790.79 96.5177L1754.52 62.0143L1762 54.1477L1790.41 81.164L1810.91 59.6114L1845.36 92.3757L1809.5 130.078L1854.4 172.776L1986.54 33.8362Z" fill="#A0A0A0"/>
<path d="M969.546 17.8146L991.258 38.4688L1010.39 18.356L1098.58 102.237L1056.19 146.815L1022.96 115.212L1052.82 83.8163L1060.68 91.298L1038.31 114.827L1055.8 131.461L1083.23 102.622L1010.77 33.7097L991.643 53.8171L962.059 25.6814L969.546 17.8146Z" fill="#A0A0A0"/>
<path d="M1369.34 25.2656L1391.05 45.9197L1410.18 25.8069L1498.37 109.688L1455.98 154.266L1422.75 122.663L1452.61 91.2672L1460.47 98.7489L1438.1 122.278L1455.59 138.912L1483.02 110.073L1410.56 41.1606L1391.43 61.2681L1361.85 33.1324L1369.34 25.2656Z" fill="#A0A0A0"/>
<path d="M1767.85 31.1987L1789.56 51.8528L1808.69 31.74L1896.88 115.621L1854.49 160.199L1821.26 128.596L1851.12 97.2003L1858.99 104.682L1836.61 128.211L1854.11 144.845L1881.53 116.006L1809.08 47.0937L1789.95 67.2012L1760.36 39.0655L1767.85 31.1987Z" fill="#A0A0A0"/>
<path d="M962.571 69.7172L989.696 95.5152L1012.27 71.7783L1020.14 79.2599L990.081 110.864L955.084 77.584L962.571 69.7172Z" fill="#A0A0A0"/>
<path d="M1362.36 77.1686L1389.49 102.967L1412.06 79.2297L1419.93 86.7113L1389.87 118.315L1354.87 85.0354L1362.36 77.1686Z" fill="#A0A0A0"/>
<path d="M1760.88 83.1017L1788 108.9L1810.58 85.1629L1818.45 92.6444L1788.39 124.248L1753.39 90.9685L1760.88 83.1017Z" fill="#A0A0A0"/>
<path d="M1033.94 207.836L1041.42 199.97L971.969 133.916L964.489 141.782L1033.94 207.836Z" fill="#A0A0A0"/>
<path d="M1433.73 215.287L1441.21 207.421L1371.76 141.367L1364.28 149.233L1433.73 215.287Z" fill="#A0A0A0"/>
<path d="M1832.25 221.22L1839.73 213.354L1770.27 147.3L1762.79 155.166L1832.25 221.22Z" fill="#A0A0A0"/>
<path d="M1018.77 222.22L1026.25 214.354L971.934 162.699L964.453 170.564L1018.77 222.22Z" fill="#A0A0A0"/>
<path d="M1418.56 229.671L1426.04 221.805L1371.72 170.15L1364.24 178.016L1418.56 229.671Z" fill="#A0A0A0"/>
<path d="M1817.07 235.604L1824.55 227.738L1770.24 176.083L1762.76 183.949L1817.07 235.604Z" fill="#A0A0A0"/>
<path d="M984.635 219.287L992.116 211.421L974.395 194.567L966.914 202.433L984.635 219.287Z" fill="#A0A0A0"/>
<path d="M1384.43 226.738L1391.91 218.873L1374.18 202.019L1366.7 209.884L1384.43 226.738Z" fill="#A0A0A0"/>
<path d="M1782.94 232.671L1790.42 224.806L1772.7 207.952L1765.22 215.817L1782.94 232.671Z" fill="#A0A0A0"/>
</g>
<defs>
<clipPath id="clip0_16_322">
<rect width="1921" height="239" fill="white"/>
</clipPath>
</defs>
</svg>
