<svg width="309" height="290" viewBox="0 0 309 290" fill="none" xmlns="http://www.w3.org/2000/svg">
<g clip-path="url(#clip0_16_75)">
<path d="M243.232 105.973L290.269 153.01L279.999 163.273L243.232 126.499L117.876 251.848L-2.76589 131.205L7.49714 120.942L117.876 231.322L243.232 105.973Z" fill="#A0A0A0"/>
<path d="M298.526 10.8558L308.789 21.1188L117.262 212.652L38.1576 133.548L87.3372 84.361L62.926 59.9497L34.808 88.0677L-12.5147 40.7378L-2.25172 30.4748L34.808 67.5345L62.926 39.4166L107.87 84.361L58.6836 133.548L117.262 192.119L298.526 10.8558Z" fill="#A0A0A0"/>
<path d="M5.98305 -0.000136899L34.3081 28.3321L60.5478 2.09246L175.605 117.157L117.455 175.314L74.1032 131.962L115.062 91.0029L125.325 101.266L94.6293 131.962L117.455 154.781L155.079 117.157L60.5478 22.6256L34.3081 48.8581L-4.28711 10.2629L5.98305 -0.000136899Z" fill="#A0A0A0"/>
<path d="M-4.72997 69.1343L30.6585 104.523L61.6261 73.5552L71.8963 83.8182L30.6585 125.049L-15.0001 79.3973L-4.72997 69.1343Z" fill="#A0A0A0"/>
<path d="M115.162 40.3708L125.424 30.1089L104.678 9.36292L94.4162 19.6248L115.162 40.3708Z" fill="#A0A0A0"/>
<path d="M86.0267 256.123L96.2886 245.861L5.67903 155.251L-4.58286 165.513L86.0267 256.123Z" fill="#A0A0A0"/>
<path d="M102.785 254.554L117.698 269.474L132.103 255.061L142.373 265.324L117.698 290L92.5151 264.817L102.785 254.554Z" fill="#A0A0A0"/>
<path d="M65.2637 274.838L75.5256 264.576L4.66707 193.718L-5.59482 203.98L65.2637 274.838Z" fill="#A0A0A0"/>
<path d="M23.3162 269.06L33.5781 258.799L10.4586 235.679L0.196698 245.941L23.3162 269.06Z" fill="#A0A0A0"/>
<path d="M118.956 142.76L143.223 118.484L132.959 108.224L108.692 132.499L118.956 142.76Z" fill="#A0A0A0"/>
</g>
<defs>
<clipPath id="clip0_16_75">
<rect width="308.789" height="290" fill="white" transform="translate(308.789 290) rotate(-180)"/>
</clipPath>
</defs>
</svg>
