<svg width="604" height="670" viewBox="0 0 604 670" fill="none" xmlns="http://www.w3.org/2000/svg">
<g clip-path="url(#clip0_11_301)">
<path fill-rule="evenodd" clip-rule="evenodd" d="M453.37 389.34C446.05 394.49 438.47 399.05 430.86 403.02C409.02 414.36 385.28 420.64 361.19 421.08C360.52 421.1 359.85 421.11 359.18 421.11C350.58 421.14 341.99 420.44 333.4 418.97C332.31 418.79 331.24 418.58 330.17 418.39C329.02 418.17 327.88 417.94 326.73 417.69C328.28 405.88 329.97 394.01 333.89 382.78C334.07 382.23 334.28 381.68 334.48 381.12C338.81 369.42 345.9 358.36 356.3 351.47C360.06 348.96 364.18 347.07 368.44 345.69C374.79 343.6 381.53 342.65 388.25 342.51H389.17C395.37 342.44 401.14 343.03 406.89 343.93C407.68 344.05 408.46 344.18 409.25 344.32C413.4 345.01 417.58 345.84 421.97 346.66C410.38 341.58 399.87 338.32 388.36 335.39C384.97 334.49 381.44 333.62 377.81 332.75C381.17 330.38 384.55 327.85 387.88 325.11C418.66 300.2 446.15 261.92 444.18 227.67C444.18 230.85 441.74 235.38 440.47 238.14C436.21 247.49 429.05 254.96 421.86 262.15C414.6 269.44 406.76 276.14 398.49 282.18C392.84 286.29 386.94 290 380.97 293.53C379.17 294.63 377.37 295.69 375.57 296.74C368.38 300.95 361.12 305.12 354.17 309.68C350.73 311.92 347.43 314.36 344.31 317.04C343.22 317.96 335.78 323.93 335.78 325.52C326.18 296.31 327.69 263.62 339.91 235.45C348.29 216.09 365.11 201.61 364.37 180.52C353.23 193.61 343.45 205.37 329.49 215.51C320.66 176.37 295.47 143.63 260.25 124.4C297.95 165.5 313.3 223.58 311.25 279.31C309.26 333.11 295.58 386 274.97 435.76C273.72 433.59 272.53 431.36 271.41 429.1C269.49 419.52 265.61 410.34 260.66 401.71C257.72 396.56 254.37 391.63 250.85 386.93C242.34 375.63 232.59 365.33 223.36 354.59C219.66 350.33 216.07 345.98 212.66 341.48C207.11 334.16 202.08 326.46 197.59 318.47C195.65 315.03 193.81 311.52 192.09 307.95C178.7 280.4 171.79 249.9 172.98 219.1C155.89 256.44 159.02 302.3 181.01 336.98C185.72 344.39 191.24 351.36 195.19 359.25C199.1 367.14 200.46 375.79 198.12 384.3C192.79 383.46 187.47 383.06 182.2 383.06H182.18C173.95 383.06 165.86 384.06 158.04 386C153.96 387 149.96 388.27 146.07 389.79C137.02 393.3 128.48 398.13 120.69 404.24C116.01 407.89 111.61 411.98 107.53 416.51C115.39 413.1 123.43 409.64 131.59 406.76C146.79 401.36 162.46 397.9 178.26 400.14C188.19 401.53 197.54 405.17 205.96 410.46C208.72 412.18 211.38 414.07 213.92 416.13C224.17 424.32 232.65 434.99 238.67 446.66C247.4 463.63 251.43 482.54 252.73 501.69C250.89 499.67 249 497.71 247.01 495.87C245.52 494.48 244 493.14 242.43 491.87C223.44 476.24 199.31 468.09 173.83 469.3C196.6 478.41 220.56 488.41 235.23 508.09C246.9 523.79 250.91 543.95 248.86 563.57C248.84 563.74 248.83 563.94 248.81 564.1C248.98 564.03 249.13 563.98 249.29 563.93C244.54 592.32 235.65 620.03 222.89 645.84C216.2 653.97 208.51 661.96 199.72 669.8H382.92C377.9 665.34 373.26 660.8 368.94 656.24C369.12 656.12 368.92 656.02 368.51 655.6C368.18 655.27 367.81 654.96 367.47 654.68C367.45 654.66 367.44 654.63 367.4 654.61C365.71 652.77 364.07 650.93 362.5 649.09C361.53 647.8 360.66 646.45 359.88 645.04C342.71 614.19 331.21 580.23 326.21 545.27C325.88 542.93 325.59 540.59 325.36 538.25C323.72 522.4 324.49 506.78 330.51 492.34C332.25 488.18 334.42 484.06 337.11 480.12C347.36 465.07 361.77 452.73 377.76 443.82C379.23 442.98 380.74 442.18 382.24 441.43C384.7 440.18 387.19 439 389.7 437.9C412.52 428.02 440.65 421.6 460.64 406.8C461.99 405.8 463.33 404.76 464.65 403.69C469.45 399.83 474.03 395.55 478.29 390.92C495.24 372.56 507.28 348.89 508.97 324.64C498.27 350.27 477.17 372.69 453.41 389.31" fill="white"/>
<path fill-rule="evenodd" clip-rule="evenodd" d="M254.31 89.3601C252.22 100.69 255.91 112.98 264.08 121.12C262.53 115.6 263.11 109.5 265.68 104.38C267.33 101.09 269.8 98.2201 272.77 96.0401C275.54 96.7801 278.37 97.4401 281.26 98.0001C322.8 105.96 360.58 90.9501 365.66 64.4801C370.73 38.0101 341.17 10.0901 299.64 2.13006C258.1 -5.82994 220.32 9.18006 215.24 35.6501C211.36 55.9101 227.77 77.0001 254.3 89.3601" fill="white"/>
<path fill-rule="evenodd" clip-rule="evenodd" d="M87.9102 400.67C87.1402 399.07 86.5602 397.38 86.1902 395.64C86.0702 395.09 85.9702 394.55 85.9102 394C85.4802 390.89 85.6902 387.7 86.5002 384.67C89.1102 383.52 91.7302 382.28 94.3202 380.89C131.67 361.04 151.69 325.66 139.05 301.85C126.39 278.04 85.8602 274.85 48.5102 294.69C11.1702 314.54 -8.85982 349.92 3.80018 373.73C13.4802 391.94 39.4802 398.04 67.8902 391.03C69.1302 393.32 70.6202 395.46 72.3502 397.42C73.3702 398.62 74.5102 399.78 75.7102 400.81C81.2102 405.68 88.1302 408.9 95.4402 409.67C92.2102 407.38 89.6102 404.24 87.9202 400.66" fill="white"/>
<path fill-rule="evenodd" clip-rule="evenodd" d="M162.66 196.46C165.54 195.83 168.34 195.08 171.09 194.27C174.12 196.36 176.67 199.16 178.41 202.4C181.13 207.45 181.88 213.53 180.49 219.09C188.43 210.72 191.78 198.33 189.37 187.07C215.54 173.97 231.36 152.43 226.91 132.28C221.09 105.96 182.9 92.0202 141.61 101.14C100.31 110.26 71.5502 138.99 77.3602 165.32C83.1702 191.64 121.37 205.58 162.66 196.46Z" fill="white"/>
<path fill-rule="evenodd" clip-rule="evenodd" d="M357.36 140.78C351.97 148.04 356.83 160.78 368.22 169.24C369 169.82 369.8 170.36 370.6 170.87C370.74 172.11 370.62 173.37 370.18 174.54C369.5 176.34 368.12 177.87 366.41 178.74C370.28 178.91 374.16 177.03 376.48 173.94C385.55 177.69 394.48 176.97 398.61 171.41C404 164.15 399.14 151.41 387.75 142.95C376.36 134.49 362.76 133.52 357.36 140.78Z" fill="white"/>
<path fill-rule="evenodd" clip-rule="evenodd" d="M448.28 214.91C449.2 215.22 450.13 215.48 451.05 215.72C451.57 216.85 451.85 218.09 451.79 219.34C451.7 221.26 450.87 223.14 449.51 224.5C453.24 223.46 456.34 220.47 457.59 216.81C467.38 217.55 475.64 214.09 477.84 207.53C480.71 198.95 472.12 188.36 458.67 183.86C445.21 179.36 431.98 182.67 429.12 191.24C426.25 199.82 434.84 210.41 448.29 214.91" fill="white"/>
<path fill-rule="evenodd" clip-rule="evenodd" d="M427.83 344.99C431.57 345.56 435.52 344.14 438.1 341.38C446.51 345.95 455.25 346.18 459.83 341.22C465.81 334.74 462.41 321.87 452.23 312.49C442.05 303.11 428.96 300.76 422.98 307.24C417 313.72 420.4 326.59 430.58 335.97C431.28 336.62 432 337.22 432.72 337.8C432.72 339.01 432.48 340.23 431.93 341.31C431.08 342.99 429.59 344.32 427.84 344.99" fill="white"/>
<path fill-rule="evenodd" clip-rule="evenodd" d="M166.94 428.17C159.4 422.71 146.35 427.87 137.78 439.69C129.21 451.51 128.38 465.52 135.91 470.98C141.67 475.16 150.67 473.1 158.41 466.62C161.65 468.94 166.03 469.58 169.78 468.22C167.83 467.9 166 466.82 164.78 465.27C163.99 464.27 163.48 463.06 163.23 461.8C163.86 461.05 164.47 460.28 165.06 459.46C173.63 447.64 174.46 433.63 166.93 428.17" fill="white"/>
<path fill-rule="evenodd" clip-rule="evenodd" d="M553.39 216.75C552.39 216.51 551.38 216.34 550.41 216.16C536.84 213.59 523.82 214.27 513.14 217.52C499.68 221.62 489.95 229.8 487.53 240.8C484.31 255.44 495 271.04 513.14 281.25C514.23 281.87 515.35 282.46 516.5 283.05C514.64 291.76 517.24 301.34 523.38 307.81C522.29 303.5 522.88 298.81 524.97 294.92C526.33 292.38 528.33 290.29 530.69 288.66C532.79 289.28 534.94 289.84 537.12 290.34C541.61 291.31 546.06 291.96 550.4 292.26C576.81 294.15 599.12 283.73 602.98 266.3C607.47 245.97 585.25 223.81 553.38 216.76" fill="white"/>
</g>
<defs>
<clipPath id="clip0_11_301">
<rect width="603.57" height="669.82" fill="white"/>
</clipPath>
</defs>
</svg>
