<svg width="104" height="108" viewBox="0 0 104 108" fill="none" xmlns="http://www.w3.org/2000/svg">
<g clip-path="url(#clip0_11_204)">
<path d="M44.7441 -0.0381429C44.9007 -0.0379202 45.0574 -0.0376975 45.2187 -0.037468C47.5081 -0.0319858 49.7547 0.0165481 52.0209 0.366552C52.2383 0.398974 52.2383 0.398974 52.4599 0.432052C62.0973 1.89874 71.5327 5.6375 79.0209 11.9729C79.196 12.1142 79.196 12.1142 79.3746 12.2583C80.4072 13.1027 81.3523 14.0335 82.2967 14.9737C82.3949 15.071 82.3949 15.071 82.495 15.1701C83.3492 16.0178 84.1413 16.889 84.8852 17.8371C84.9445 17.9112 85.0038 17.9852 85.065 18.0615C89.4899 23.5932 92.2277 30.4706 91.5436 37.6237C91.0982 41.505 89.6296 45.3021 87.2065 48.3801C87.1567 48.4439 87.1069 48.5077 87.0555 48.5733C85.5188 50.5182 83.7288 52.2023 81.7087 53.6335C81.597 53.7139 81.597 53.7139 81.4829 53.7959C77.0936 56.9323 71.8146 58.691 66.5365 59.5894C66.3946 59.6137 66.2527 59.638 66.1065 59.663C63.6562 60.0591 61.2277 60.1543 58.748 60.1468C58.5943 60.1466 58.4405 60.1464 58.282 60.1461C56.0084 60.1406 53.7837 60.0804 51.5323 59.7421C51.3878 59.7218 51.2433 59.7015 51.0945 59.6806C47.5775 59.1801 44.1374 58.3386 40.7811 57.1765C40.6671 57.1375 40.5531 57.0985 40.4357 57.0583C36.5893 55.7338 32.8512 53.9894 29.4191 51.8009C29.3475 51.7553 29.2759 51.7098 29.2021 51.6628C28.7796 51.3916 28.365 51.1105 27.9531 50.8236C27.8874 50.778 27.8217 50.7324 27.7541 50.6855C26.3116 49.6812 24.9054 48.6288 23.6131 47.4352C23.3676 47.2106 23.1186 46.9933 22.8662 46.7766C22.2375 46.2277 21.6482 45.6407 21.058 45.0509C20.9492 44.9437 20.8405 44.8364 20.7285 44.7259C19.988 43.9871 19.3152 43.215 18.668 42.3937C18.5977 42.3056 18.5275 42.2175 18.4551 42.1267C13.9651 36.4621 11.1359 29.5736 11.9204 22.2542C12.3971 18.4461 13.8564 14.7584 16.2246 11.7285C16.2745 11.6644 16.3245 11.6003 16.376 11.5342C17.9127 9.58994 19.7026 7.90605 21.7223 6.47515C21.7968 6.42156 21.8713 6.36798 21.9481 6.31277C26.4444 3.09987 31.8056 1.34625 37.2152 0.458181C37.3271 0.439715 37.439 0.42125 37.5543 0.402225C39.948 0.0332657 42.3251 -0.0452732 44.7441 -0.0381429ZM31.1295 8.79642C31.0275 8.84482 30.9255 8.89323 30.8204 8.94311C28.3258 10.1437 26.0023 11.7391 23.9214 13.5611C23.8515 13.6221 23.7815 13.6832 23.7094 13.746C19.653 17.3162 16.562 22.2494 16.1024 27.7331C15.9477 31.3514 16.4658 34.6067 18.0571 37.8733C18.0973 37.9566 18.1374 38.0398 18.1787 38.1256C19.8946 41.642 22.6374 44.8177 25.7898 47.1269C26.004 47.2848 26.2148 47.4464 26.4254 47.6089C27.6458 48.5404 28.9399 49.3336 30.2743 50.0905C30.3754 50.1479 30.4765 50.2052 30.5807 50.2643C35.9722 53.2843 42.2111 54.976 48.3558 55.4661C48.483 55.4766 48.6102 55.4871 48.7413 55.498C50.0134 55.5939 51.2802 55.6129 52.5554 55.6112C52.7167 55.611 52.7167 55.611 52.8812 55.6108C59.1994 55.5963 65.42 54.3863 71.2019 51.8009C71.3073 51.7542 71.4127 51.7074 71.5212 51.6591C78.0034 48.757 83.7006 43.763 86.2935 37.0348C88.0737 31.9974 87.5429 26.7144 85.2845 21.9346C84.5754 20.515 83.6791 19.1942 82.6861 17.9593C82.5427 17.7786 82.5427 17.7786 82.3964 17.5942C81.0526 15.9355 79.5124 14.3499 77.7992 13.0724C77.7232 13.0148 77.6471 12.9572 77.5688 12.8978C67.6753 5.4236 54.5718 3.14194 31.1295 8.79642Z" fill="white"/>
<path d="M101.758 68.262C102.468 68.7347 102.984 69.1464 103.211 70.0044C103.264 70.6158 103.257 71.2266 103.253 71.8398C103.252 72.0265 103.253 72.2132 103.253 72.3999C103.253 72.9049 103.251 73.4099 103.248 73.9149C103.246 74.4434 103.246 74.9718 103.245 75.5003C103.244 76.5002 103.241 77.5001 103.237 78.5C103.233 79.6387 103.231 80.7774 103.229 81.9161C103.226 84.2577 103.219 86.5994 103.211 88.941C101.88 88.941 100.55 88.941 99.1793 88.941C99.139 84.5465 99.0986 80.152 99.0571 75.6243C98.7396 76.8237 98.4221 78.0231 98.095 79.2589C97.9042 79.977 97.7133 80.6952 97.5218 81.4131C97.4873 81.5426 97.4873 81.5426 97.4521 81.6747C97.3366 82.1077 97.2211 82.5408 97.1055 82.9738C97.027 83.268 96.9485 83.5622 96.8702 83.8565C96.6963 84.5093 96.5215 85.1617 96.3439 85.8134C96.2951 85.993 96.2468 86.1727 96.199 86.3526C96.1341 86.5963 96.0675 86.8395 96.0004 87.0827C95.965 87.2133 95.9296 87.344 95.8931 87.4786C95.6861 88.0365 95.3981 88.5784 94.8574 88.8647C94.0625 89.219 93.1095 89.1949 92.2761 88.9868C91.5386 88.6734 91.1863 88.0487 90.8814 87.3336C90.7787 87.0521 90.6846 86.7691 90.5934 86.4837C90.5582 86.3773 90.523 86.2708 90.4867 86.1611C90.372 85.813 90.2591 85.4643 90.1462 85.1155C90.0662 84.8717 89.9862 84.6279 89.906 84.3842C89.6979 83.7503 89.4913 83.1159 89.2853 82.4813C89.123 81.9819 88.96 81.4826 88.7969 80.9834C88.5336 80.1772 88.2705 79.3709 88.0089 78.5641C87.975 78.4595 87.9411 78.3549 87.9061 78.2472C87.8441 78.0557 87.7821 77.8642 87.7201 77.6727C87.472 76.9068 87.2167 76.1438 86.9621 75.3799C86.9218 79.8551 86.8814 84.3303 86.8399 88.941C85.5095 88.941 84.179 88.941 82.8082 88.941C82.7999 86.5727 82.7932 84.2045 82.7892 81.8362C82.7874 80.7364 82.7848 79.6367 82.7806 78.537C82.7769 77.5782 82.7746 76.6193 82.7737 75.6604C82.7733 75.153 82.7722 74.6457 82.7695 74.1383C82.767 73.6599 82.7662 73.1816 82.7668 72.7033C82.7667 72.5285 82.766 72.3537 82.7645 72.1788C82.7559 71.0564 82.8014 70.0398 83.3733 69.0499C84.3277 68.1709 85.3395 67.9934 86.5913 68.0153C87.3751 68.0516 87.905 68.3339 88.5274 68.7903C89.3526 69.8984 89.6257 71.5644 90.0312 72.8764C90.1029 73.1078 90.1747 73.3392 90.2466 73.5706C90.3966 74.0542 90.5464 74.5378 90.696 75.0215C90.886 75.6356 91.0763 76.2496 91.2669 76.8635C91.4151 77.3413 91.5632 77.8191 91.7112 78.2969C91.7812 78.5229 91.8513 78.749 91.9214 78.9751C92.3569 80.3797 92.7822 81.7868 93.1928 83.1989C93.3798 82.5123 93.5666 81.8255 93.7531 81.1387C93.8225 80.8832 93.8919 80.6277 93.9615 80.3722C94.4028 78.7499 94.8373 77.126 95.2616 75.4991C95.3316 75.231 95.4017 74.963 95.472 74.6949C95.4951 74.6068 95.5181 74.5187 95.5419 74.4279C95.5884 74.2506 95.6349 74.0733 95.6814 73.896C95.819 73.3708 95.9553 72.8452 96.0908 72.3194C96.1765 71.9881 96.2633 71.6571 96.3504 71.3262C96.4101 71.0981 96.4683 70.8696 96.5266 70.641C96.7933 69.6334 97.0532 68.89 97.9576 68.294C99.0485 67.7176 100.661 67.6644 101.758 68.262Z" fill="white"/>
<path d="M37.7929 26.984C37.9073 26.9835 38.0217 26.983 38.1396 26.9825C38.3284 26.9827 38.3284 26.9827 38.5211 26.9829C38.6547 26.9825 38.7883 26.9821 38.9259 26.9818C39.3759 26.9807 39.8258 26.9805 40.2757 26.9803C40.5973 26.9798 40.919 26.9792 41.2406 26.9785C42.116 26.9768 42.9914 26.9761 43.8668 26.9756C44.4132 26.9752 44.9597 26.9747 45.5061 26.9742C47.0186 26.9727 48.5312 26.9714 50.0437 26.971C50.1889 26.971 50.1889 26.971 50.3371 26.9709C50.4341 26.9709 50.5312 26.9709 50.6312 26.9708C50.8278 26.9708 51.0245 26.9707 51.2212 26.9707C51.3187 26.9707 51.4163 26.9706 51.5168 26.9706C53.098 26.9701 54.6792 26.968 56.2604 26.9651C57.8832 26.9622 59.5061 26.9607 61.129 26.9606C62.0404 26.9605 62.9517 26.9598 63.8631 26.9575C64.6391 26.9557 65.415 26.955 66.191 26.956C66.587 26.9565 66.9829 26.9562 67.3789 26.9547C67.808 26.9531 68.2371 26.9539 68.6662 26.9551C68.7916 26.9541 68.917 26.9532 69.0461 26.9521C70.098 26.9595 70.098 26.9595 70.5911 27.3665C71.2897 28.1051 71.3742 28.8296 71.3547 29.8133C71.2967 30.5027 71.1076 30.9776 70.6522 31.5128C70.2311 31.8602 69.9262 31.9022 69.3981 31.9016C69.2784 31.9018 69.1586 31.9019 69.0353 31.9021C68.9041 31.9017 68.7729 31.9012 68.6377 31.9008C68.4994 31.9008 68.3611 31.9008 68.2186 31.9008C67.7605 31.9007 67.3024 31.8998 66.8443 31.8988C66.5271 31.8986 66.2099 31.8984 65.8927 31.8983C65.1424 31.8979 64.3922 31.8969 63.6419 31.8957C62.7877 31.8943 61.9336 31.8937 61.0794 31.8931C59.3224 31.8918 57.5653 31.8896 55.8083 31.8869C55.8091 32.0145 55.8091 32.0145 55.81 32.1447C55.8235 34.2146 55.8336 36.2845 55.8399 38.3544C55.8431 39.3554 55.8474 40.3564 55.8544 41.3573C55.8605 42.2298 55.8644 43.1022 55.8658 43.9747C55.8666 44.4367 55.8684 44.8986 55.8729 45.3606C55.877 45.7955 55.8783 46.2304 55.8774 46.6653C55.8776 46.9008 55.8809 47.1363 55.8843 47.3719C55.8781 48.4068 55.8781 48.4068 55.5219 48.894C54.4528 49.616 53.4376 49.7548 52.1679 49.5455C51.4862 49.3699 50.9384 49.1238 50.5549 48.5023C50.4476 47.9628 50.4623 47.4311 50.4717 46.8826C50.4719 46.7176 50.4718 46.5526 50.4713 46.3876C50.4711 45.9411 50.4754 45.4947 50.4806 45.0482C50.4852 44.581 50.4856 44.1139 50.4864 43.6467C50.4887 42.7627 50.4947 41.8788 50.5021 40.9949C50.5103 39.9883 50.5143 38.9816 50.518 37.975C50.5257 35.9049 50.5385 33.8348 50.5549 31.7647C50.3216 31.7943 50.3216 31.7943 50.0837 31.8245C49.454 31.8941 48.8312 31.9067 48.1982 31.9085C48.0777 31.9093 47.9572 31.9101 47.833 31.911C47.4379 31.9134 47.0428 31.9148 46.6478 31.916C46.4444 31.9168 46.4444 31.9168 46.237 31.9175C45.5208 31.9201 44.8047 31.9218 44.0885 31.923C43.3495 31.9243 42.6104 31.9285 41.8714 31.9334C41.302 31.9366 40.7325 31.9376 40.1631 31.938C39.8906 31.9386 39.618 31.94 39.3455 31.9423C38.9648 31.9453 38.5842 31.9452 38.2035 31.9443C38.0913 31.9459 37.9792 31.9475 37.8636 31.9491C37.1694 31.9434 36.7956 31.849 36.2608 31.3982C35.6464 30.6307 35.5745 29.778 35.6499 28.8326C35.7873 28.1169 36.0998 27.7123 36.6616 27.2601C37.0357 27.0144 37.3585 26.9846 37.7929 26.984Z" fill="white"/>
<path d="M24.4486 68.7828C25.6315 69.922 25.9728 72.0097 26.4263 73.517C26.5149 73.808 26.6036 74.099 26.6925 74.39C26.8859 75.0241 27.0786 75.6585 27.2708 76.2931C27.6098 77.4121 27.9522 78.53 28.2946 79.648C28.4154 80.0423 28.5361 80.4366 28.6569 80.8309C28.6866 80.9282 28.7164 81.0254 28.7471 81.1256C29.1887 82.568 29.6295 84.0107 30.0685 85.4539C30.217 85.9423 30.3663 86.4304 30.516 86.9185C30.584 87.1417 30.652 87.3649 30.7199 87.5882C30.7501 87.6859 30.7802 87.7835 30.8113 87.8842C30.922 88.2496 31.0077 88.557 31.0077 88.9412C29.4354 88.9412 27.863 88.9412 26.243 88.9412C25.7772 87.6991 25.4075 86.4229 25.0213 85.1538C21.9975 85.0934 21.9975 85.0934 18.9127 85.0317C18.7917 85.5155 18.6708 85.9993 18.5462 86.4977C18.4191 86.9367 18.2904 87.3741 18.1568 87.8111C18.0434 88.184 17.93 88.5569 17.8131 88.9412C16.2005 88.9412 14.5878 88.9412 12.9263 88.9412C13.0721 88.2848 13.2087 87.6808 13.4117 87.0489C13.4826 86.827 13.4826 86.827 13.555 86.6006C13.6068 86.4401 13.6586 86.2797 13.7104 86.1193C13.7654 85.9476 13.8204 85.7759 13.8753 85.6041C14.0238 85.1406 14.1729 84.6772 14.3221 84.2138C14.5756 83.4264 14.8283 82.6387 15.0812 81.851C15.1469 81.6465 15.2126 81.4419 15.2783 81.2374C15.7478 79.7763 16.2125 78.3138 16.6732 76.8498C16.8638 76.2445 17.0552 75.6394 17.2465 75.0343C17.3996 74.5499 17.5522 74.0653 17.7037 73.5804C17.8462 73.1244 17.9899 72.6687 18.1346 72.2134C18.1873 72.0469 18.2394 71.8803 18.2911 71.7135C18.7125 70.3537 19.1715 69.24 20.3788 68.4163C21.7586 67.7139 23.1681 68.0097 24.4486 68.7828ZM21.967 72.5701C21.7274 73.6129 21.4884 74.6557 21.2502 75.6988C21.1395 76.1831 21.0287 76.6674 20.9174 77.1516C20.81 77.6188 20.7031 78.0862 20.5966 78.5537C20.5558 78.732 20.5149 78.9103 20.4738 79.0885C20.4163 79.3382 20.3594 79.588 20.3026 79.8378C20.2701 79.98 20.2375 80.1221 20.204 80.2686C20.1192 80.6516 20.1192 80.6516 20.1344 81.1222C21.3439 81.1222 22.5534 81.1222 23.7996 81.1222C23.6112 79.9766 23.6112 79.9766 23.3929 78.8392C23.3489 78.6266 23.3489 78.6266 23.304 78.4096C23.2578 78.1885 23.2578 78.1885 23.2107 77.9629C23.1785 77.8077 23.1463 77.6525 23.1131 77.4925C23.0286 77.0852 22.9438 76.6779 22.8588 76.2706C22.7718 75.8529 22.6851 75.4351 22.5984 75.0174C22.429 74.2016 22.2592 73.3858 22.0892 72.5701C22.0488 72.5701 22.0085 72.5701 21.967 72.5701Z" fill="white"/>
<path d="M71.1922 68.0265C72.1643 67.9731 73.0992 68.2658 73.8748 68.8592C74.7907 69.7636 75.0886 71.11 75.4472 72.3077C75.502 72.4875 75.5568 72.6673 75.6117 72.8471C75.7593 73.3309 75.9055 73.8152 76.0515 74.2995C76.2046 74.807 76.3589 75.314 76.5132 75.8211C76.7053 76.453 76.8972 77.0849 77.0887 77.717C77.5103 79.1088 77.9356 80.4995 78.3639 81.8893C78.5516 82.4986 78.739 83.1081 78.9264 83.7176C79.0762 84.2048 79.2263 84.6919 79.3768 85.1789C79.5178 85.6353 79.6581 86.092 79.798 86.5488C79.8494 86.7162 79.901 86.8835 79.9529 87.0508C80.0236 87.2787 80.0933 87.5068 80.163 87.735C80.2023 87.8625 80.2415 87.9901 80.282 88.1215C80.3651 88.4526 80.3651 88.4526 80.3651 88.9412C78.7928 88.9412 77.2204 88.9412 75.6004 88.9412C75.3623 88.2118 75.3623 88.2118 75.1194 87.4675C75.0695 87.3159 75.0196 87.1642 74.9681 87.0079C74.9287 86.886 74.8894 86.7642 74.8488 86.6386C74.8085 86.5151 74.7682 86.3916 74.7266 86.2644C74.6231 85.8869 74.6231 85.8869 74.5009 85.0317C72.4447 85.0317 70.3886 85.0317 68.2701 85.0317C68.1089 85.6768 67.9476 86.3219 67.7814 86.9865C67.5798 87.6316 67.3783 88.2766 67.1706 88.9412C65.5579 88.9412 63.9452 88.9412 62.2837 88.9412C62.696 87.2922 62.696 87.2922 62.8812 86.7239C62.9231 86.5946 62.965 86.4653 63.0081 86.332C63.075 86.128 63.075 86.128 63.1432 85.9199C63.2165 85.694 63.2898 85.4681 63.363 85.2423C63.4407 85.0031 63.5186 84.764 63.5965 84.525C63.8724 83.6789 64.1466 82.8322 64.4207 81.9855C64.4488 81.8991 64.4768 81.8126 64.5056 81.7235C64.911 80.4721 65.3109 79.2192 65.7055 77.9644C65.7298 77.8869 65.7542 77.8094 65.7793 77.7296C66.0331 76.9227 66.286 76.1155 66.538 75.308C66.7438 74.6499 66.9528 73.9928 67.1644 73.3365C67.253 73.0604 67.3408 72.784 67.4278 72.5073C67.564 72.0761 67.704 71.6464 67.8449 71.2168C67.9054 71.0219 67.9054 71.0219 67.9671 70.823C68.3213 69.7645 68.8762 68.8955 69.8813 68.3553C70.3207 68.1679 70.7173 68.0738 71.1922 68.0265ZM71.3244 72.5702C71.0849 73.6129 70.8459 74.6558 70.6076 75.6989C70.4969 76.1832 70.3861 76.6675 70.2748 77.1516C70.1674 77.6189 70.0605 78.0863 69.954 78.5537C69.9132 78.7321 69.8723 78.9103 69.8312 79.0886C69.7737 79.3382 69.7168 79.588 69.6601 79.8379C69.6275 79.98 69.595 80.1222 69.5614 80.2687C69.4766 80.6516 69.4766 80.6516 69.4918 81.1222C70.7013 81.1222 71.9108 81.1222 73.157 81.1222C73.0805 80.5099 73.0015 79.9371 72.8752 79.3386C72.8434 79.187 72.8116 79.0354 72.7788 78.8792C72.7444 78.717 72.7099 78.5547 72.6755 78.3925C72.64 78.224 72.6046 78.0556 72.5692 77.8872C72.4765 77.4468 72.3834 77.0066 72.2902 76.5664C72.1949 76.116 72.1001 75.6655 72.0052 75.215C71.8194 74.3333 71.6332 73.4517 71.4466 72.5702C71.4063 72.5702 71.366 72.5702 71.3244 72.5702Z" fill="white"/>
<path d="M52.975 68.158C53.0561 68.158 53.1373 68.158 53.2208 68.158C53.4872 68.158 53.7536 68.159 54.02 68.16C54.2054 68.1602 54.3908 68.1604 54.5762 68.1605C55.0628 68.1609 55.5495 68.1621 56.0361 68.1635C56.6207 68.165 57.2053 68.1655 57.7899 68.1662C58.6768 68.1674 59.5638 68.1698 60.4507 68.1719C60.4507 69.5427 60.4507 70.9134 60.4507 72.3257C60.0898 72.446 59.8579 72.4627 59.4819 72.4618C59.3596 72.4618 59.2373 72.4618 59.1113 72.4617C58.9796 72.4611 58.8479 72.4605 58.7122 72.4598C58.5771 72.4597 58.442 72.4595 58.3029 72.4593C57.8709 72.4586 57.439 72.4571 57.007 72.4555C56.7144 72.4549 56.4218 72.4544 56.1291 72.4539C55.4113 72.4526 54.6935 72.4502 53.9756 72.4479C53.9756 73.6171 53.9756 74.7863 53.9756 75.9909C55.9915 75.9909 58.0073 75.9909 60.0842 75.9909C60.0842 77.3617 60.0842 78.7324 60.0842 80.1447C58.0684 80.1447 56.0525 80.1447 53.9756 80.1447C53.9756 81.6365 53.9756 83.1282 53.9756 84.6651C54.4021 84.6637 54.8286 84.6623 55.268 84.6608C55.6808 84.6598 56.0936 84.6591 56.5065 84.6584C56.7935 84.6578 57.0805 84.6569 57.3675 84.6559C57.7799 84.6544 58.1924 84.6537 58.6048 84.6532C58.7332 84.6525 58.8616 84.6519 58.994 84.6513C59.1138 84.6512 59.2336 84.6512 59.357 84.6512C59.5149 84.6508 59.5149 84.6508 59.676 84.6504C59.9621 84.6651 59.9621 84.6651 60.4507 84.7873C60.4507 86.158 60.4507 87.5288 60.4507 88.9411C58.3252 88.9558 58.3252 88.9558 57.4151 88.959C56.7955 88.9612 56.1759 88.9638 55.5563 88.9688C55.0564 88.9728 54.5566 88.9749 54.0567 88.9759C53.8666 88.9766 53.6764 88.9779 53.4863 88.9799C51.3991 89.0008 51.3991 89.0008 50.5338 88.3861C49.7618 87.5816 49.3197 86.7548 49.3159 85.6277C49.3152 85.5013 49.3145 85.3749 49.3138 85.2447C49.3137 85.1067 49.3135 84.9687 49.3134 84.8266C49.3128 84.6807 49.3122 84.5348 49.3116 84.3846C49.3101 83.9847 49.3092 83.5848 49.3086 83.1849C49.3083 82.9347 49.3078 82.6844 49.3072 82.4342C49.3056 81.6499 49.3044 80.8657 49.3039 80.0815C49.3034 79.1786 49.3012 78.2757 49.2977 77.3728C49.295 76.6734 49.2938 75.9741 49.2936 75.2748C49.2935 74.8578 49.2928 74.4408 49.2906 74.0238C49.2885 73.5577 49.2888 73.0917 49.2895 72.6256C49.2884 72.4891 49.2873 72.3526 49.2861 72.212C49.2922 71.0605 49.4701 70.0333 50.2117 69.1197C51.0091 68.3447 51.8956 68.156 52.975 68.158Z" fill="white"/>
<path d="M36.3783 68.2725C36.5589 68.2701 36.5589 68.2701 36.7431 68.2677C36.9374 68.2664 36.9374 68.2664 37.1357 68.265C37.2701 68.264 37.4045 68.263 37.543 68.262C37.8278 68.2603 38.1125 68.259 38.3973 68.258C38.687 68.2566 38.9767 68.2541 39.2664 68.2505C39.6862 68.2453 40.106 68.2433 40.5259 68.2421C40.6538 68.2399 40.7816 68.2378 40.9133 68.2356C42.3982 68.2399 43.5012 68.7452 44.5714 69.7473C45.8474 71.0648 46.3862 72.6391 46.447 74.4409C46.4168 76.2017 45.7365 77.6154 44.5457 78.8925C42.6451 80.6961 40.6475 80.7556 38.0935 80.7556C38.0935 83.4569 38.0935 86.1581 38.0935 88.9412C36.5614 88.9412 35.0294 88.9412 33.4509 88.9412C33.4399 86.6429 33.4309 84.3447 33.4256 82.0464C33.4231 80.9792 33.4197 79.9119 33.4141 78.8447C33.4092 77.9139 33.406 76.9831 33.405 76.0523C33.4043 75.5599 33.4028 75.0676 33.3993 74.5753C33.3959 74.1107 33.3949 73.6462 33.3957 73.1816C33.3955 72.9323 33.3929 72.6829 33.3901 72.4336C33.3958 71.1434 33.5429 69.8994 34.4283 68.905C35.0393 68.4494 35.6286 68.281 36.3783 68.2725ZM38.0935 72.4479C38.0935 73.7784 38.0935 75.1088 38.0935 76.4796C39.7876 76.5036 39.7876 76.5036 41.2699 75.884C41.7544 75.3693 41.8087 74.8686 41.7882 74.1841C41.743 73.7717 41.6348 73.5175 41.3921 73.181C40.4317 72.4454 39.2625 72.4479 38.0935 72.4479Z" fill="white"/>
<path d="M3.3214 68.2665C3.40849 68.2664 3.49559 68.2664 3.58532 68.2664C3.8709 68.2665 4.15644 68.2684 4.44201 68.2703C4.64091 68.2708 4.83982 68.2711 5.03873 68.2714C5.56054 68.2723 6.08232 68.2747 6.60412 68.2774C7.23112 68.2804 7.85812 68.2815 8.48511 68.2829C9.4361 68.2853 10.3871 68.29 11.338 68.2942C11.338 69.6247 11.338 70.9551 11.338 72.3259C9.24157 72.3259 7.1451 72.3259 4.9851 72.3259C4.9851 73.4951 4.9851 74.6643 4.9851 75.8689C5.29755 75.8663 5.61001 75.8638 5.93193 75.8612C7.53174 75.8553 9.12883 75.9287 10.7272 75.991C10.7272 77.3618 10.7272 78.7326 10.7272 80.1449C8.83229 80.1449 6.93741 80.1449 4.9851 80.1449C4.9851 83.0477 4.9851 85.9505 4.9851 88.9413C3.41274 88.9413 1.84039 88.9413 0.220392 88.9413C0.212117 86.5168 0.205366 84.0922 0.201402 81.6677C0.199512 80.542 0.196936 79.4162 0.192742 78.2905C0.189088 77.3092 0.186724 76.328 0.185907 75.3468C0.185429 74.8272 0.184307 74.3077 0.18164 73.7882C0.17915 73.299 0.178385 72.8099 0.178936 72.3208C0.178835 72.1414 0.178108 71.962 0.176701 71.7827C0.174872 71.5374 0.175536 71.292 0.176317 71.0467C0.175979 70.9096 0.175641 70.7724 0.175293 70.6311C0.259102 69.921 0.586683 69.4592 1.11377 68.9967C1.24913 68.8748 1.24913 68.8748 1.38723 68.7504C1.99819 68.3178 2.58691 68.2639 3.3214 68.2665Z" fill="white"/>
<path d="M58.5919 11.7496C58.8984 12.0174 59.1878 12.2943 59.4738 12.5838C59.5515 12.6588 59.6291 12.7337 59.7091 12.811C60.9902 14.1404 61.507 15.8895 61.566 17.6931C61.4966 19.7703 60.6798 21.6693 59.1526 23.0982C57.187 24.7044 55.0524 25.3201 52.51 25.1675C50.7646 24.9776 49.0314 24.1692 47.7453 22.9684C47.6633 22.8928 47.5812 22.8172 47.4967 22.7393C46.0349 21.2522 45.4948 19.3776 45.5015 17.3498C45.5438 15.1285 46.5765 13.4609 48.1409 11.9539C50.9859 9.46751 55.6426 9.44649 58.5919 11.7496ZM53.2755 12.8907C52.5729 13.6491 51.777 14.6821 51.777 15.7603C51.3335 15.5587 50.89 15.3571 50.4331 15.1494C50.1646 15.4179 50.1327 15.5374 50.0513 15.8977C50.016 16.0539 49.9807 16.2102 49.9444 16.3711C49.7932 16.3308 49.642 16.2905 49.4863 16.249C48.784 16.0899 48.095 16.105 47.3788 16.1268C47.2704 17.5086 47.8151 18.9125 48.6005 20.0363C49.6446 21.2293 51.0637 21.7818 52.6169 21.907C52.9947 21.9011 52.9947 21.9011 53.2354 21.7009C53.3875 21.5078 53.3875 21.5078 53.3652 21.258C53.5265 21.258 53.6877 21.258 53.8539 21.258C53.9043 21.3588 53.9547 21.4596 54.0066 21.5634C54.1124 21.7146 54.1124 21.7146 54.2204 21.8689C55.2915 22.0474 56.4835 21.6092 57.3816 21.0366C57.5525 20.9106 57.7207 20.7809 57.8856 20.6471C57.962 20.5859 58.0383 20.5246 58.117 20.4615C59.1612 19.5265 59.677 18.1046 59.8403 16.7376C59.796 16.399 59.796 16.399 59.7182 16.1268C58.749 16.0818 57.9424 16.1543 57.0304 16.4933C57.023 16.4168 57.0156 16.3402 57.0079 16.2614C56.9926 16.1116 56.9926 16.1116 56.9769 15.9588C56.967 15.8596 56.9571 15.7604 56.9469 15.6581C56.9215 15.3885 56.9215 15.3885 56.786 15.1494C56.2909 15.2991 55.8766 15.4791 55.4421 15.7603C55.4256 15.6877 55.4091 15.6151 55.392 15.5403C55.111 14.4584 54.5787 13.4539 53.7317 12.706C53.4712 12.6792 53.4712 12.6792 53.2755 12.8907Z" fill="white"/>
<path d="M49.944 95.7829C50.1476 95.8643 50.3513 95.9458 50.5549 96.0272C50.6758 95.9466 50.7968 95.866 50.9214 95.7829C51.1805 95.7418 51.1805 95.7418 51.4635 95.7371C51.5566 95.7336 51.6497 95.7301 51.7456 95.7266C52.1361 95.8064 52.2644 95.9602 52.5096 96.2716C52.5651 96.6523 52.5651 96.6523 52.5574 97.0943C52.5558 97.2526 52.5542 97.4109 52.5526 97.5739C52.5485 97.7405 52.5444 97.907 52.5402 98.0736C52.5377 98.2421 52.5355 98.4105 52.5335 98.579C52.5277 98.9909 52.5197 99.4027 52.5096 99.8146C52.1065 99.8146 51.7033 99.8146 51.2879 99.8146C51.2274 98.2422 51.2274 98.2422 51.1657 96.6381C51.0045 96.6381 50.8432 96.6381 50.6771 96.6381C50.6367 97.6863 50.5964 98.7346 50.5549 99.8146C50.1517 99.8146 49.7486 99.8146 49.3332 99.8146C49.2929 98.7663 49.2525 97.7181 49.211 96.6381C49.09 96.6381 48.9691 96.6381 48.8445 96.6381C48.6874 96.9523 48.6966 97.1963 48.6837 97.5477C48.6785 97.6792 48.6734 97.8107 48.6681 97.9462C48.6609 98.1529 48.6609 98.1529 48.6536 98.3638C48.6483 98.5025 48.643 98.6413 48.6376 98.7842C48.6246 99.1276 48.6121 99.4711 48.6001 99.8146C48.197 99.8146 47.7938 99.8146 47.3784 99.8146C47.3784 98.5244 47.3784 97.2343 47.3784 95.905C47.8219 95.905 48.2654 95.905 48.7223 95.905C49.1094 95.7115 49.5215 95.7463 49.944 95.7829Z" fill="white"/>
<path d="M61.7949 103.968C62.3243 103.968 62.8537 103.968 63.3832 103.968C63.4633 103.966 63.5435 103.963 63.6261 103.96C64.1908 103.947 64.5673 103.996 65.0936 104.213C65.2145 104.132 65.3355 104.051 65.4601 103.968C65.7192 103.923 65.7192 103.923 66.0022 103.915C66.0953 103.91 66.1884 103.905 66.2843 103.9C66.7 104.003 66.817 104.227 67.0483 104.579C67.1038 104.951 67.1038 104.951 67.096 105.36C67.0945 105.507 67.0929 105.654 67.0913 105.806C67.0872 105.958 67.0831 106.11 67.0789 106.267C67.0767 106.421 67.0744 106.576 67.0722 106.735C67.0664 107.116 67.0584 107.497 67.0483 107.878C66.6451 107.878 66.242 107.878 65.8266 107.878C65.7661 106.306 65.7661 106.306 65.7044 104.701C65.4625 104.822 65.4625 104.822 65.2157 104.946C65.1754 105.913 65.1351 106.881 65.0936 107.878C64.6904 107.878 64.2872 107.878 63.8718 107.878C63.8114 106.426 63.8114 106.426 63.7497 104.946C63.5884 104.946 63.4271 104.946 63.261 104.946C63.2207 105.913 63.1804 106.881 63.1388 107.878C62.7356 107.878 62.3325 107.878 61.9171 107.878C61.8768 106.588 61.8365 105.298 61.7949 103.968Z" fill="white"/>
<path d="M43.7132 94.1946C44.2777 94.1946 44.8421 94.1946 45.4236 94.1946C45.5715 94.6678 45.7192 95.141 45.8666 95.6144C45.9165 95.7745 45.9665 95.9347 46.0165 96.0948C47.0119 99.2789 47.0119 99.2789 47.0119 99.8145C46.5684 99.8145 46.1249 99.8145 45.668 99.8145C45.4866 99.2702 45.4866 99.2702 45.3015 98.7149C44.7774 98.6746 44.2532 98.6343 43.7132 98.5928C43.6854 98.8393 43.6576 99.0859 43.6297 99.3325C43.5911 99.5701 43.5911 99.5701 43.4689 99.8145C43.0254 99.8145 42.5819 99.8145 42.125 99.8145C42.4193 98.5904 42.7669 97.3863 43.1253 96.1799C43.1825 95.9864 43.2397 95.793 43.2968 95.5996C43.4353 95.1311 43.5742 94.6628 43.7132 94.1946ZM44.5684 95.7828C44.3175 96.4046 44.1492 96.949 44.0798 97.6154C44.4023 97.6154 44.7248 97.6154 45.0571 97.6154C45.0225 97.4014 44.9866 97.1877 44.9502 96.974C44.9205 96.7954 44.9205 96.7954 44.8901 96.6132C44.8191 96.2993 44.7262 96.0613 44.5684 95.7828Z" fill="white"/>
<path d="M58.2518 102.38C58.8162 102.38 59.3807 102.38 59.9622 102.38C60.1886 103.143 60.4148 103.907 60.6408 104.67C60.7178 104.93 60.7948 105.19 60.8719 105.45C60.9824 105.822 61.0927 106.195 61.203 106.568C61.2378 106.685 61.2725 106.802 61.3083 106.922C61.3401 107.03 61.3719 107.137 61.4047 107.248C61.4329 107.344 61.4611 107.439 61.4902 107.537C61.5505 107.756 61.5505 107.756 61.5505 107.878C61.0667 107.878 60.5828 107.878 60.0844 107.878C60.0038 107.515 59.9231 107.152 59.84 106.778C59.3159 106.778 58.7918 106.778 58.2518 106.778C58.1712 107.141 58.0905 107.504 58.0075 107.878C57.564 107.878 57.1205 107.878 56.6636 107.878C57.0834 106.014 57.6761 104.201 58.2518 102.38ZM58.9848 103.846C58.8236 104.491 58.6623 105.136 58.4962 105.801C58.859 105.801 59.2219 105.801 59.5957 105.801C59.4344 105.156 59.2732 104.511 59.107 103.846C59.0667 103.846 59.0264 103.846 58.9848 103.846Z" fill="white"/>
<path d="M75.356 94.1946C77.9216 94.1946 77.9216 94.1946 78.7768 94.5611C79.1378 94.9972 79.1934 95.3468 79.1891 95.905C79.19 96.0285 79.191 96.1519 79.192 96.2791C79.1208 96.8035 78.9019 97.1238 78.5324 97.4932C77.9475 97.699 77.3099 97.6227 76.6998 97.6154C76.6998 98.3411 76.6998 99.0668 76.6998 99.8145C76.2564 99.8145 75.8129 99.8145 75.356 99.8145C75.356 97.9599 75.356 96.1053 75.356 94.1946ZM76.6998 95.172C76.6998 95.6558 76.6998 96.1396 76.6998 96.638C76.938 96.6153 76.938 96.6153 77.1809 96.5922C77.2702 96.5837 77.3595 96.5752 77.4515 96.5664C77.526 96.5497 77.6005 96.533 77.6772 96.5158C77.8631 96.1441 77.8286 95.8251 77.7994 95.4163C77.4046 95.1042 77.4046 95.1042 76.6998 95.172Z" fill="white"/>
<path d="M34.7947 94.1946C35.1979 94.1946 35.6011 94.1946 36.0165 94.1946C36.0165 96.0492 36.0165 97.9037 36.0165 99.8145C35.5278 99.8145 35.0391 99.8145 34.5504 99.8145C34.4702 99.8216 34.3901 99.8287 34.3075 99.836C33.768 99.8677 33.5305 99.8742 33.0843 99.5396C32.5145 98.756 32.6349 97.6402 32.7555 96.7153C32.8338 96.3924 32.9474 96.1669 33.1607 95.9126C33.5992 95.7165 33.9492 95.7519 34.4282 95.7828C34.5089 95.8231 34.5895 95.8634 34.6726 95.905C34.7129 95.3406 34.7532 94.7761 34.7947 94.1946ZM34.3061 96.5158C33.9794 96.9839 33.892 97.2986 33.9014 97.8674C33.9018 97.9923 33.9023 98.1171 33.9028 98.2458C33.9388 98.5856 34.0093 98.7914 34.1839 99.0815C34.4252 99.039 34.4252 99.039 34.6726 98.9593C34.852 98.6004 34.825 98.2744 34.8329 97.875C34.8375 97.7241 34.8421 97.5733 34.8468 97.4178C34.7868 96.9416 34.6767 96.8068 34.3061 96.5158Z" fill="white"/>
<path d="M13.5368 94.1946C13.94 94.1946 14.3431 94.1946 14.7585 94.1946C14.7585 96.0492 14.7585 97.9037 14.7585 99.8145C14.2698 99.8145 13.7812 99.8145 13.2925 99.8145C13.2123 99.8216 13.1321 99.8287 13.0496 99.836C12.5101 99.8677 12.2726 99.8742 11.8264 99.5396C11.2731 98.7787 11.404 97.7849 11.4599 96.8824C11.5705 96.4284 11.7366 96.117 12.0707 95.7828C12.3265 95.7547 12.3265 95.7547 12.6205 95.7599C12.766 95.7611 12.766 95.7611 12.9145 95.7623C13.1703 95.7828 13.1703 95.7828 13.4146 95.905C13.455 95.3406 13.4953 94.7761 13.5368 94.1946ZM13.0481 96.5158C12.6383 96.9473 12.6355 97.2851 12.6434 97.8674C12.6439 98.0175 12.6444 98.1675 12.6449 98.3222C12.652 98.7333 12.652 98.7333 12.926 99.0815C13.1673 99.039 13.1673 99.039 13.4146 98.9593C13.5941 98.6004 13.5671 98.2744 13.575 97.875C13.5796 97.7241 13.5841 97.5733 13.5888 97.4178C13.5289 96.9416 13.4188 96.8068 13.0481 96.5158Z" fill="white"/>
<path d="M39.5596 102.38C39.9627 102.38 40.3659 102.38 40.7813 102.38C40.7813 104.194 40.7813 106.009 40.7813 107.878C40.3378 107.878 39.8943 107.878 39.4374 107.878C39.3165 107.938 39.3165 107.938 39.1931 108C38.3303 108.071 38.3303 108.071 37.8568 107.779C37.3883 107.282 37.4563 106.721 37.4521 106.076C37.4496 105.98 37.4471 105.884 37.4445 105.785C37.4401 105.128 37.536 104.671 37.8492 104.091C38.1382 103.946 38.3217 103.952 38.6433 103.953C38.7888 103.953 38.7888 103.953 38.9373 103.952C39.1931 103.968 39.1931 103.968 39.4374 104.091C39.4777 103.526 39.518 102.962 39.5596 102.38ZM38.9487 104.701C38.6433 105.16 38.6682 105.523 38.6738 106.053C38.6729 106.142 38.6719 106.232 38.671 106.324C38.6548 106.853 38.6548 106.853 38.9487 107.267C39.2063 107.228 39.2063 107.228 39.4374 107.145C39.6141 106.46 39.6454 105.751 39.4603 105.068C39.3273 104.783 39.3273 104.783 38.9487 104.701Z" fill="white"/>
<path d="M23.9214 102.38C24.9696 102.38 26.0179 102.38 27.0979 102.38C27.0979 102.703 27.0979 103.025 27.0979 103.358C26.4931 103.358 25.8884 103.358 25.2653 103.358C25.2653 103.761 25.2653 104.164 25.2653 104.579C25.8297 104.579 26.3941 104.579 26.9757 104.579C26.9757 104.861 26.9757 105.144 26.9757 105.434C26.4113 105.434 25.8468 105.434 25.2653 105.434C25.2653 105.918 25.2653 106.402 25.2653 106.9C25.9103 106.9 26.5554 106.9 27.22 106.9C27.22 107.223 27.22 107.546 27.22 107.878C26.1315 107.878 25.0429 107.878 23.9214 107.878C23.9214 106.064 23.9214 104.249 23.9214 102.38Z" fill="white"/>
<path d="M49.2111 102.38C49.6142 102.38 50.0174 102.38 50.4328 102.38C50.4328 104.194 50.4328 106.009 50.4328 107.878C49.9893 107.878 49.5458 107.878 49.0889 107.878C48.968 107.938 48.968 107.938 48.8446 108C47.9873 108.084 47.9873 108.084 47.5083 107.748C47.2042 107.315 47.1605 107.061 47.1342 106.534C47.1294 106.448 47.1247 106.362 47.1198 106.273C47.0976 105.564 47.1027 104.717 47.5322 104.122C47.8202 103.914 48.0117 103.927 48.3635 103.938C48.4708 103.94 48.578 103.942 48.6885 103.944C48.9667 103.968 48.9667 103.968 49.2111 104.091C49.2111 103.526 49.2111 102.962 49.2111 102.38ZM48.7224 104.701C48.4232 105.001 48.4075 105.141 48.3559 105.557C48.366 105.834 48.3842 106.112 48.4093 106.389C48.4218 106.531 48.4342 106.673 48.447 106.819C48.4573 106.926 48.4675 107.034 48.478 107.145C48.7092 107.228 48.7092 107.228 48.9667 107.267C49.2783 106.955 49.2429 106.75 49.2445 106.324C49.2435 106.235 49.2426 106.145 49.2416 106.053C49.2426 105.964 49.2435 105.875 49.2445 105.783C49.2428 105.317 49.2308 105.097 48.9667 104.701C48.8861 104.701 48.8055 104.701 48.7224 104.701Z" fill="white"/>
<path d="M15.9805 102.38C16.3836 102.38 16.7868 102.38 17.2022 102.38C17.2425 104.194 17.2828 106.009 17.3243 107.878C16.8809 107.878 16.4374 107.878 15.9805 107.878C15.8595 107.938 15.8595 107.938 15.7361 108C14.87 108.071 14.87 108.071 14.3999 107.771C13.9054 107.261 13.999 106.752 13.9952 106.076C13.9926 105.967 13.9901 105.857 13.9875 105.745C13.9837 105.102 14.0247 104.644 14.3922 104.091C14.6813 103.946 14.8648 103.952 15.1863 103.953C15.3319 103.953 15.3319 103.953 15.4803 103.952C15.7361 103.968 15.7361 103.968 15.9805 104.091C15.9805 103.526 15.9805 102.962 15.9805 102.38ZM15.4918 104.701C15.1939 104.945 15.1939 104.945 15.2236 105.424C15.2252 105.616 15.2281 105.808 15.2322 105.999C15.2333 106.097 15.2344 106.195 15.2355 106.296C15.2384 106.538 15.2428 106.781 15.2474 107.023C15.4893 107.144 15.4893 107.144 15.7361 107.267C16.034 107.024 16.034 107.024 16.0043 106.544C16.0027 106.353 15.9998 106.161 15.9957 105.969C15.9946 105.871 15.9935 105.773 15.9924 105.672C15.9895 105.43 15.9851 105.188 15.9805 104.946C15.8192 104.865 15.6579 104.784 15.4918 104.701Z" fill="white"/>
<path d="M55.8083 95.7829C56.1481 95.9796 56.2554 96.1531 56.3843 96.5202C56.613 97.4396 56.6797 98.5654 56.245 99.4266C56.0526 99.6924 56.0526 99.6924 55.8083 99.8146C55.6253 99.8262 55.4418 99.8304 55.2585 99.8298C55.1615 99.8301 55.0645 99.8305 54.9645 99.8308C54.7087 99.8146 54.7087 99.8146 54.4644 99.6924C54.4644 100.176 54.4644 100.66 54.4644 101.158C54.0612 101.158 53.6581 101.158 53.2427 101.158C53.2427 99.4248 53.2427 97.6912 53.2427 95.9051C53.6862 95.9051 54.1296 95.9051 54.5866 95.9051C54.9791 95.7088 55.3826 95.7263 55.8083 95.7829ZM54.7087 96.5159C54.3971 96.8275 54.4326 97.0333 54.431 97.4587C54.4319 97.5482 54.4329 97.6378 54.4339 97.73C54.4329 97.8191 54.432 97.9081 54.431 97.9999C54.4327 98.4656 54.4447 98.6855 54.7087 99.0815C54.87 99.0009 55.0313 98.9203 55.1974 98.8372C55.1974 98.1115 55.1974 97.3858 55.1974 96.6381C55.0362 96.5978 54.8749 96.5575 54.7087 96.5159Z" fill="white"/>
<path d="M88.0007 95.7676C88.1462 95.7671 88.1462 95.7671 88.2947 95.7666C88.5505 95.7828 88.5505 95.7828 88.7948 95.905C89.198 95.905 89.6012 95.905 90.0166 95.905C90.0166 97.6386 90.0166 99.3722 90.0166 101.158C89.6134 101.158 89.2102 101.158 88.7948 101.158C88.7948 100.675 88.7948 100.191 88.7948 99.6923C88.6739 99.7528 88.6739 99.7528 88.5505 99.8145C88.0465 99.8651 87.5997 99.8926 87.1455 99.6542C86.6985 99.1513 86.813 98.4461 86.8095 97.8139C86.807 97.6983 86.8045 97.5827 86.8019 97.4636C86.7959 96.3895 86.7959 96.3895 87.2066 95.905C87.4957 95.7605 87.6791 95.7665 88.0007 95.7676ZM88.184 96.5159C88.0382 96.6348 88.0382 96.6348 88.0479 96.8538C88.0486 96.9453 88.0492 97.0368 88.0499 97.131C88.0503 97.2298 88.0507 97.3287 88.0511 97.4305C88.0521 97.5343 88.0531 97.6382 88.0542 97.7452C88.0547 97.8495 88.0553 97.9539 88.0558 98.0614C88.0573 98.32 88.0595 98.5785 88.0618 98.8371C88.3037 98.9581 88.3037 98.9581 88.5505 99.0815C88.8559 98.6233 88.831 98.2598 88.8254 97.7299C88.8263 97.6404 88.8273 97.5509 88.8282 97.4586C88.8444 96.9303 88.8444 96.9303 88.5505 96.5159C88.4295 96.5159 88.3086 96.5159 88.184 96.5159Z" fill="white"/>
<path d="M21.8503 95.8753C22.2113 96.1023 22.454 96.3522 22.5776 96.7601C22.5776 96.9617 22.5776 97.1633 22.5776 97.371C22.1744 97.371 21.7713 97.371 21.3559 97.371C21.3156 97.1291 21.2752 96.8872 21.2337 96.6379C21.0321 96.6783 20.8305 96.7186 20.6228 96.7601C20.4326 97.545 20.4504 98.2044 20.745 98.9592C20.9063 98.9592 21.0676 98.9592 21.2337 98.9592C21.274 98.7173 21.3143 98.4754 21.3559 98.2262C21.759 98.2262 22.1622 98.2262 22.5776 98.2262C22.5183 99.115 22.5183 99.115 22.2493 99.4937C21.923 99.723 21.617 99.8321 21.2337 99.9366C21.3849 100.001 21.3849 100.001 21.5391 100.066C21.8446 100.303 21.8446 100.303 21.9133 100.731C21.8446 101.158 21.8446 101.158 21.6346 101.366C21.3063 101.553 21.1122 101.567 20.7374 101.555C20.6327 101.553 20.5279 101.552 20.42 101.55C20.1342 101.525 20.1342 101.525 19.7676 101.403C19.7676 101.201 19.7676 100.999 19.7676 100.792C20.1708 100.792 20.574 100.792 20.9894 100.792C20.9894 100.751 20.9894 100.711 20.9894 100.67C20.7878 100.629 20.5862 100.589 20.3785 100.547C20.3785 100.306 20.3785 100.064 20.3785 99.8144C20.2651 99.7842 20.1517 99.7539 20.0349 99.7228C19.6155 99.5583 19.4901 99.4704 19.279 99.0814C19.0403 98.1034 19.0119 97.1141 19.4908 96.2132C20.018 95.5786 21.1309 95.609 21.8503 95.8753Z" fill="white"/>
<path d="M0.220215 94.1946C1.22813 94.1946 2.23605 94.1946 3.27451 94.1946C3.27451 94.5171 3.27451 94.8396 3.27451 95.172C2.71008 95.172 2.14564 95.172 1.56411 95.172C1.56411 95.5751 1.56411 95.9783 1.56411 96.3937C2.08822 96.3937 2.61234 96.3937 3.15234 96.3937C3.15234 96.6759 3.15234 96.9581 3.15234 97.2489C2.62822 97.2489 2.10411 97.2489 1.56411 97.2489C1.56411 98.0955 1.56411 98.9422 1.56411 99.8145C1.12062 99.8145 0.677138 99.8145 0.220215 99.8145C0.220215 97.9599 0.220215 96.1053 0.220215 94.1946Z" fill="white"/>
<path d="M81.8311 95.7827C82.3156 95.9999 82.4962 96.1355 82.7321 96.6074C82.8085 97.0044 82.8085 97.0044 82.8085 97.9818C82.0828 97.9818 81.3571 97.9818 80.6094 97.9818C80.69 98.3043 80.7706 98.6269 80.8537 98.9592C81.015 98.9189 81.1762 98.8785 81.3424 98.837C81.5008 98.5328 81.5008 98.5328 81.5867 98.2261C81.9899 98.2261 82.3931 98.2261 82.8085 98.2261C82.5905 99.383 82.5905 99.383 82.1976 99.6922C81.7955 99.8262 81.4754 99.8434 81.0522 99.8526C80.8467 99.8594 80.8467 99.8594 80.637 99.8664C80.1543 99.8027 79.9677 99.6739 79.632 99.3257C79.3522 98.8311 79.3512 98.3673 79.3495 97.8062C79.3474 97.6501 79.3454 97.494 79.3433 97.3332C79.3915 96.8431 79.4834 96.5591 79.7542 96.1492C80.3838 95.647 81.0613 95.69 81.8311 95.7827ZM80.8537 96.5157C80.5755 96.8597 80.5755 96.8597 80.6094 97.2488C80.8916 97.2488 81.1738 97.2488 81.4646 97.2488C81.4646 97.0472 81.4646 96.8456 81.4646 96.6379C81.263 96.5976 81.0614 96.5573 80.8537 96.5157Z" fill="white"/>
<path d="M39.3841 95.9354C39.7068 96.1671 39.7878 96.2737 39.9263 96.6379C39.9577 97.0884 39.9371 97.5295 39.9263 97.9818C39.2409 97.9818 38.5555 97.9818 37.8494 97.9818C37.93 98.3043 38.0106 98.6269 38.0937 98.9592C38.255 98.9188 38.4162 98.8785 38.5824 98.837C38.6227 98.6354 38.663 98.4338 38.7046 98.2261C39.1077 98.2261 39.5109 98.2261 39.9263 98.2261C39.9645 98.6156 39.9645 98.6156 39.9263 99.0813C39.6608 99.4027 39.4441 99.6279 39.0711 99.8144C38.8145 99.8326 38.5571 99.8414 38.2999 99.8449C38.1618 99.8481 38.0236 99.8512 37.8813 99.8545C37.4357 99.8096 37.2182 99.7298 36.872 99.4479C36.5622 98.9312 36.5869 98.3838 36.5895 97.7985C36.5875 97.7073 36.5855 97.6162 36.5835 97.5222C36.583 96.9615 36.64 96.6085 36.9942 96.1492C37.6401 95.5638 38.6117 95.6644 39.3841 95.9354ZM38.0937 96.5157C37.8155 96.8597 37.8155 96.8597 37.8494 97.2488C38.1316 97.2488 38.4138 97.2488 38.7046 97.2488C38.6642 97.0472 38.6239 96.8456 38.5824 96.6379C38.4211 96.5976 38.2599 96.5573 38.0937 96.5157Z" fill="white"/>
<path d="M35.2608 103.938C35.485 103.933 35.485 103.933 35.7137 103.928C36.1682 103.971 36.3941 104.053 36.7498 104.335C36.8791 104.723 36.8967 105.024 36.9106 105.432C36.9158 105.574 36.9209 105.716 36.9261 105.863C36.9309 106.011 36.9358 106.16 36.9407 106.312C36.946 106.462 36.9513 106.612 36.9567 106.767C36.9697 107.137 36.9821 107.507 36.9941 107.878C36.4647 107.878 35.9353 107.878 35.4059 107.878C35.2497 107.906 35.0935 107.933 34.9325 107.962C34.561 108.01 34.4368 108.003 34.0773 107.855C33.657 107.496 33.5853 107.276 33.5352 106.725C33.5761 106.258 33.6495 106.042 33.9399 105.679C34.3048 105.46 34.6536 105.374 35.0699 105.297C35.2334 105.266 35.2334 105.266 35.4002 105.235C35.4827 105.22 35.5652 105.205 35.6503 105.19C35.6503 105.029 35.6503 104.867 35.6503 104.701C35.4084 104.701 35.1665 104.701 34.9172 104.701C34.9172 104.863 34.9172 105.024 34.9172 105.19C34.5141 105.19 34.1109 105.19 33.6955 105.19C33.6955 104.579 33.6955 104.579 33.9246 104.304C34.3755 103.933 34.681 103.945 35.2608 103.938ZM35.0089 106.19C34.7616 106.4 34.7616 106.4 34.7645 106.74C34.7746 106.833 34.7847 106.927 34.7951 107.023C35.0879 107.106 35.0879 107.106 35.4059 107.145C35.7434 106.807 35.7209 106.509 35.7724 106.045C35.304 106.007 35.304 106.007 35.0089 106.19Z" fill="white"/>
<path d="M65.208 95.7447C65.3325 95.7427 65.4571 95.7406 65.5854 95.7385C66.0051 95.7898 66.2271 95.8902 66.5595 96.1494C67.0213 96.9486 67.0184 97.8667 66.8267 98.7456C66.6984 99.1508 66.6121 99.3955 66.3151 99.6924C65.908 99.8281 65.5906 99.8351 65.1621 99.8375C65.0237 99.8392 64.8853 99.841 64.7427 99.8427C64.1722 99.8007 64.1722 99.8007 63.8717 99.5702C63.4827 98.9845 63.4452 98.4782 63.4517 97.7987C63.4493 97.7091 63.4469 97.6195 63.4443 97.5272C63.4449 96.894 63.569 96.523 63.9939 96.0273C64.381 95.748 64.7382 95.7465 65.208 95.7447ZM65.0934 96.5159C64.8949 96.6463 64.8949 96.6463 64.7269 96.8825C64.6731 97.2847 64.6731 97.2847 64.6887 97.73C64.6892 97.8798 64.6897 98.0296 64.6902 98.1839C64.7238 98.5584 64.774 98.768 64.9712 99.0816C65.308 99.0208 65.308 99.0208 65.5821 98.8372C65.5911 98.4875 65.5934 98.1407 65.5897 97.7911C65.5892 97.6926 65.5886 97.5941 65.5881 97.4926C65.5866 97.2485 65.5844 97.0044 65.5821 96.7603C65.4208 96.6797 65.2596 96.599 65.0934 96.5159Z" fill="white"/>
<path d="M76.3337 103.923C76.4571 103.922 76.5806 103.921 76.7078 103.92C77.1183 103.975 77.3461 104.09 77.6775 104.335C78.1853 105.14 78.1841 106.142 77.9825 107.058C77.7932 107.566 77.5423 107.769 77.0667 108C76.7078 108.049 76.7078 108.049 76.3337 108.046C76.2102 108.047 76.0867 108.048 75.9595 108.049C75.5492 107.993 75.3213 107.878 74.9898 107.634C74.4947 106.865 74.5192 105.956 74.6232 105.068C74.7844 104.636 74.9119 104.397 75.2723 104.109C75.6496 103.947 75.9243 103.919 76.3337 103.923ZM76.2115 104.701C75.771 105.193 75.7925 105.711 75.8077 106.338C75.8525 106.721 75.9657 106.97 76.2115 107.267C76.4578 107.18 76.4578 107.18 76.7002 107.023C76.9309 106.357 76.9363 105.571 76.6544 104.93C76.5888 104.855 76.5233 104.779 76.4558 104.701C76.3752 104.701 76.2946 104.701 76.2115 104.701Z" fill="white"/>
<path d="M101.676 95.7599C101.815 95.7582 101.953 95.7564 102.096 95.7546C102.468 95.7821 102.666 95.8102 102.967 96.0271C103.238 96.4447 103.239 96.7942 103.235 97.2851C103.234 97.4324 103.233 97.5796 103.232 97.7313C103.23 97.8846 103.228 98.0378 103.226 98.1957C103.225 98.3508 103.224 98.5059 103.223 98.6658C103.22 99.0487 103.216 99.4316 103.211 99.8145C102.848 99.8145 102.485 99.8145 102.111 99.8145C102.071 99.7338 102.031 99.6532 101.989 99.5701C101.926 99.6104 101.863 99.6508 101.798 99.6923C101.387 99.8609 101.086 99.8609 100.645 99.8145C100.231 99.5534 100.068 99.4263 99.9123 98.9593C99.8597 97.9934 99.8597 97.9934 100.157 97.6154C100.784 97.1763 101.377 97.2097 102.111 97.2489C102.071 97.007 102.031 96.7651 101.989 96.5158C101.788 96.5561 101.586 96.5965 101.378 96.638C101.338 96.7589 101.298 96.8799 101.256 97.0045C100.853 97.0045 100.45 97.0045 100.035 97.0045C100.109 96.3344 100.109 96.3344 100.325 96.05C100.749 95.74 101.17 95.7628 101.676 95.7599ZM101.134 98.2262C101.083 98.5472 101.083 98.5472 101.134 98.8371C101.376 98.958 101.376 98.958 101.623 99.0814C101.964 98.8288 101.993 98.6973 102.073 98.2644C102.086 98.1309 102.098 97.9973 102.111 97.8597C101.664 97.8597 101.484 97.9523 101.134 98.2262Z" fill="white"/>
<path d="M9.79559 95.7446C9.93686 95.7377 9.93686 95.7377 10.081 95.7307C10.4769 95.8044 10.6021 95.9568 10.8493 96.2714C10.9048 96.6521 10.9048 96.6521 10.897 97.0942C10.8947 97.3316 10.8947 97.3316 10.8923 97.5738C10.8882 97.7403 10.8841 97.9069 10.8799 98.0735C10.8774 98.2419 10.8752 98.4104 10.8732 98.5788C10.8674 98.9908 10.8594 99.4026 10.8493 99.8144C10.4462 99.8144 10.043 99.8144 9.6276 99.8144C9.58729 98.7662 9.54697 97.7179 9.50543 96.6379C9.38448 96.6379 9.26353 96.6379 9.13891 96.6379C8.98179 96.9522 8.99103 97.1961 8.97809 97.5475C8.97297 97.679 8.96785 97.8105 8.96258 97.946C8.95537 98.1527 8.95537 98.1527 8.94802 98.3636C8.94275 98.5024 8.93747 98.6411 8.93203 98.7841C8.91905 99.1275 8.90658 99.4709 8.89457 99.8144C8.4914 99.8144 8.08824 99.8144 7.67285 99.8144C7.67285 98.5243 7.67285 97.2341 7.67285 95.9049C8.11634 95.9049 8.55982 95.9049 9.01674 95.9049C9.29772 95.7644 9.48279 95.7544 9.79559 95.7446Z" fill="white"/>
<path d="M52.7542 103.923C52.8777 103.922 53.0011 103.921 53.1284 103.92C53.539 103.975 53.7668 104.089 54.0981 104.335C54.5884 105.13 54.5649 106.022 54.4217 106.928C54.32 107.334 54.1972 107.631 53.8537 107.878C53.4677 108.007 53.175 108.025 52.7695 108.031C52.581 108.035 52.581 108.035 52.3886 108.04C51.9566 107.993 51.7483 107.906 51.4103 107.634C51.048 107.083 50.994 106.636 50.998 105.984C50.997 105.829 50.9961 105.674 50.9951 105.515C51.048 105.029 51.1425 104.742 51.4103 104.335C51.8521 103.981 52.195 103.918 52.7542 103.923ZM52.632 104.701C52.5111 104.762 52.5111 104.762 52.3877 104.824C52.259 105.21 52.241 105.502 52.235 105.908C52.2318 106.034 52.2287 106.159 52.2254 106.289C52.2705 106.702 52.3956 106.93 52.632 107.267C52.8784 107.18 52.8784 107.18 53.1207 107.023C53.3346 106.399 53.3143 105.698 53.1436 105.068C53.0106 104.783 53.0106 104.783 52.632 104.701Z" fill="white"/>
<path d="M43.8357 103.968C44.1863 104.133 44.3137 104.275 44.5688 104.579C44.7238 105.044 44.7182 105.484 44.7215 105.969C44.724 106.061 44.7265 106.154 44.7291 106.249C44.733 106.81 44.699 107.186 44.3244 107.634C43.8768 107.98 43.5412 108.05 42.9805 108.046C42.8571 108.047 42.7336 108.048 42.6064 108.049C42.1923 107.993 41.9672 107.887 41.6366 107.634C41.188 106.997 41.2263 106 41.3002 105.253C41.4104 104.735 41.5868 104.416 42.0032 104.091C42.5451 103.82 43.2476 103.903 43.8357 103.968ZM42.8584 104.701C42.5468 105.013 42.5822 105.219 42.5806 105.644C42.5816 105.734 42.5825 105.823 42.5835 105.915C42.5825 106.005 42.5816 106.094 42.5806 106.185C42.5823 106.651 42.5943 106.871 42.8584 107.267C43.0997 107.225 43.0997 107.225 43.347 107.145C43.5314 106.776 43.4917 106.396 43.4921 105.992C43.4936 105.909 43.4951 105.825 43.4967 105.74C43.498 105.284 43.4839 105.09 43.2249 104.701C43.1039 104.701 42.983 104.701 42.8584 104.701Z" fill="white"/>
<path d="M19.5845 103.915C19.7193 103.913 19.8541 103.91 19.993 103.908C20.4653 103.982 20.6583 104.116 20.9895 104.457C21.2693 104.952 21.2703 105.415 21.272 105.977C21.2741 106.133 21.2761 106.289 21.2782 106.449C21.23 106.94 21.138 107.224 20.8673 107.633C20.3162 108.073 19.824 108.062 19.1431 108.042C18.6563 107.984 18.3999 107.863 18.0574 107.511C17.683 106.678 17.6768 105.63 17.9581 104.762C18.333 104.038 18.7958 103.916 19.5845 103.915ZM19.4013 104.701C19.0009 105.102 19.056 105.621 19.0347 106.167C19.0382 106.487 19.0719 106.709 19.1569 107.023C19.3934 107.207 19.3934 107.207 19.6456 107.267C20.0385 106.846 20.0555 106.542 20.0427 105.977C20.0408 105.838 20.0389 105.699 20.0369 105.556C20.0271 105.184 20.0271 105.184 19.8899 104.824C19.6569 104.712 19.6569 104.712 19.4013 104.701Z" fill="white"/>
<path d="M58.6643 95.7522C58.8013 95.7491 58.9383 95.7459 59.0795 95.7427C59.5136 95.7868 59.7379 95.8896 60.0846 96.1493C60.2551 96.4903 60.2334 96.7848 60.2454 97.1658C60.2505 97.3193 60.2556 97.4729 60.2609 97.6311C60.2657 97.7922 60.2705 97.9533 60.2755 98.1193C60.2807 98.283 60.2861 98.4467 60.2914 98.6104C60.3044 99.0117 60.3169 99.4131 60.3289 99.8144C60.1533 99.8178 59.9777 99.8201 59.802 99.8221C59.7042 99.8235 59.6064 99.8249 59.5057 99.8264C59.2294 99.8144 59.2294 99.8144 58.8628 99.6923C58.6839 99.7117 58.5056 99.7378 58.3283 99.7686C57.9385 99.8168 57.7808 99.8211 57.4044 99.677C57.0974 99.3979 56.9984 99.2435 56.9081 98.8371C56.9 98.3273 56.9444 97.9713 57.2593 97.5619C57.6784 97.2538 58.0149 97.2346 58.5192 97.2412C58.6293 97.2423 58.7394 97.2434 58.8528 97.2445C58.9368 97.2459 59.0207 97.2474 59.1072 97.2488C59.0669 97.0069 59.0265 96.765 58.985 96.5158C58.7834 96.5561 58.5818 96.5964 58.3741 96.638C58.3338 96.7589 58.2935 96.8799 58.252 97.0045C57.8488 97.0045 57.4456 97.0045 57.0303 97.0045C57.1047 96.3343 57.1047 96.3343 57.3204 96.05C57.7407 95.7429 58.162 95.7591 58.6643 95.7522ZM58.1298 98.2262C58.1701 98.4681 58.2104 98.71 58.252 98.9592C58.3729 98.9996 58.4939 99.0399 58.6185 99.0814C59.0004 98.8853 59.0004 98.8853 59.0475 98.5994C59.0546 98.5115 59.0617 98.4236 59.069 98.3331C59.0816 98.1769 59.0942 98.0206 59.1072 97.8597C58.6703 97.8597 58.4899 97.9927 58.1298 98.2262Z" fill="white"/>
<path d="M17.0038 95.7522C17.1408 95.7491 17.2778 95.7459 17.419 95.7427C17.853 95.7868 18.0774 95.8896 18.424 96.1493C18.5945 96.4903 18.5728 96.7848 18.5849 97.1658C18.59 97.3193 18.5951 97.4729 18.6004 97.6311C18.6052 97.7922 18.61 97.9533 18.6149 98.1193C18.6202 98.283 18.6255 98.4467 18.6309 98.6104C18.6439 99.0117 18.6564 99.4131 18.6684 99.8144C18.4928 99.8178 18.3171 99.8201 18.1415 99.8221C18.0437 99.8235 17.9459 99.8249 17.8451 99.8264C17.5688 99.8144 17.5688 99.8144 17.2023 99.6923C17.0234 99.7117 16.8451 99.7378 16.6678 99.7686C16.2987 99.8118 16.1066 99.8156 15.7439 99.7075C15.3615 99.3136 15.2837 98.8879 15.2476 98.3484C15.3507 97.9172 15.512 97.6481 15.8584 97.371C16.2268 97.2482 16.4744 97.2362 16.8587 97.2412C16.9688 97.2423 17.0789 97.2434 17.1923 97.2445C17.2762 97.2459 17.3602 97.2474 17.4467 97.2488C17.4063 97.0069 17.366 96.765 17.3245 96.5158C17.1229 96.5561 16.9213 96.5964 16.7136 96.638C16.6733 96.7589 16.633 96.8799 16.5914 97.0045C16.1883 97.0045 15.7851 97.0045 15.3697 97.0045C15.4442 96.3343 15.4442 96.3343 15.6599 96.05C16.0802 95.7429 16.5015 95.7591 17.0038 95.7522ZM16.5914 98.104C16.4695 98.3983 16.4695 98.3983 16.4693 98.7149C16.5902 98.8963 16.5902 98.8963 16.7136 99.0814C16.9152 99.0008 17.1168 98.9201 17.3245 98.8371C17.3648 98.5145 17.4051 98.192 17.4467 97.8597C17.0595 97.8597 16.9046 97.8848 16.5914 98.104Z" fill="white"/>
<path d="M28.564 95.737C28.6875 95.736 28.8109 95.7351 28.9382 95.7341C29.3602 95.7914 29.5754 95.8831 29.9079 96.1493C30.2703 96.7 30.3242 97.1466 30.3202 97.7986C30.3212 97.9536 30.3221 98.1086 30.3231 98.2682C30.2593 98.8535 30.0999 99.2488 29.6898 99.6742C29.325 99.8634 29.0422 99.8631 28.6327 99.8603C28.4968 99.8612 28.3609 99.8622 28.2209 99.8632C27.7909 99.8095 27.5645 99.7067 27.2201 99.448C26.7559 98.7517 26.791 97.9402 26.8536 97.1267C26.9554 96.637 27.0813 96.2545 27.4936 95.9422C27.8786 95.7603 28.14 95.7337 28.564 95.737ZM28.4418 96.5158C28.0627 96.895 28.081 97.2676 28.0524 97.791C28.0756 98.2318 28.138 98.5576 28.3197 98.9593C28.4406 98.9996 28.5616 99.0399 28.6862 99.0815C28.7668 99.0411 28.8474 99.0008 28.9305 98.9593C29.0657 98.5537 29.0774 98.2332 29.0832 97.8063C29.0864 97.6679 29.0895 97.5294 29.0928 97.3868C29.0495 96.9737 28.9791 96.8052 28.6862 96.5158C28.6055 96.5158 28.5249 96.5158 28.4418 96.5158Z" fill="white"/>
<path d="M24.7006 95.7522C24.8376 95.7491 24.9746 95.7459 25.1158 95.7427C25.5498 95.7868 25.7741 95.8896 26.1208 96.1493C26.2913 96.4903 26.2696 96.7848 26.2816 97.1658C26.2868 97.3193 26.2919 97.4729 26.2971 97.6311C26.3019 97.7922 26.3068 97.9533 26.3117 98.1193C26.317 98.283 26.3223 98.4467 26.3277 98.6104C26.3407 99.0117 26.3531 99.4131 26.3652 99.8144C26.1895 99.8178 26.0139 99.8201 25.8383 99.8221C25.7405 99.8235 25.6427 99.8249 25.5419 99.8264C25.2656 99.8144 25.2656 99.8144 24.8991 99.6923C24.7202 99.7117 24.5419 99.7378 24.3646 99.7686C23.9955 99.8118 23.8034 99.8156 23.4407 99.7075C23.0583 99.3136 22.9804 98.8879 22.9443 98.3484C23.0475 97.9172 23.2088 97.6481 23.5552 97.371C23.9235 97.2482 24.1712 97.2362 24.5555 97.2412C24.6656 97.2423 24.7756 97.2434 24.8891 97.2445C24.973 97.2459 25.0569 97.2474 25.1434 97.2488C25.1031 97.0069 25.0628 96.765 25.0213 96.5158C24.8197 96.5561 24.6181 96.5964 24.4104 96.638C24.3701 96.7589 24.3298 96.8799 24.2882 97.0045C23.8851 97.0045 23.4819 97.0045 23.0665 97.0045C23.141 96.3343 23.141 96.3343 23.3567 96.05C23.777 95.7429 24.1982 95.7591 24.7006 95.7522ZM24.2882 98.104C24.1662 98.3983 24.1662 98.3983 24.1661 98.7149C24.287 98.8963 24.287 98.8963 24.4104 99.0814C24.612 99.0008 24.8136 98.9201 25.0213 98.8371C25.0616 98.5145 25.1019 98.192 25.1434 97.8597C24.7563 97.8597 24.6014 97.8848 24.2882 98.104Z" fill="white"/>
<path d="M72.1599 95.9541C72.4238 96.1493 72.4238 96.1493 72.546 96.3936C72.5649 96.6506 72.5765 96.9082 72.5847 97.1658C72.5898 97.3193 72.5949 97.4729 72.6002 97.6311C72.605 97.7922 72.6098 97.9533 72.6147 98.1193C72.62 98.283 72.6253 98.4467 72.6307 98.6104C72.6437 99.0117 72.6562 99.413 72.6682 99.8144C72.3053 99.8144 71.9425 99.8144 71.5686 99.8144C71.5686 99.7338 71.5686 99.6531 71.5686 99.5701C71.4704 99.6129 71.3721 99.6557 71.2708 99.6999C70.7453 99.8382 70.2577 99.8651 69.7361 99.6922C69.464 99.425 69.3782 99.2564 69.3166 98.879C69.3153 97.9383 69.3153 97.9383 69.591 97.539C70.0234 97.2672 70.3594 97.2347 70.8585 97.2412C70.9686 97.2423 71.0787 97.2434 71.1921 97.2445C71.276 97.2459 71.36 97.2473 71.4465 97.2488C71.4061 97.0069 71.3658 96.765 71.3243 96.5158C71.1227 96.5561 70.9211 96.5964 70.7134 96.6379C70.6731 96.7589 70.6328 96.8798 70.5913 97.0045C70.1881 97.0045 69.7849 97.0045 69.3695 97.0045C69.3908 96.5373 69.441 96.3249 69.7666 95.9813C70.4425 95.5882 71.4759 95.6163 72.1599 95.9541ZM70.5913 98.104C70.4693 98.3983 70.4693 98.3983 70.4691 98.7149C70.59 98.8963 70.59 98.8963 70.7134 99.0814C70.915 99.0007 71.1166 98.9201 71.3243 98.837C71.3646 98.5145 71.4049 98.192 71.4465 97.8597C71.0593 97.8597 70.9044 97.8848 70.5913 98.104Z" fill="white"/>
<path d="M90.7496 95.905C91.1528 95.905 91.5559 95.905 91.9713 95.905C92.0116 96.9129 92.052 97.9209 92.0935 98.9593C92.2145 98.9593 92.3354 98.9593 92.46 98.9593C92.6138 98.6518 92.6076 98.4202 92.6208 98.0764C92.626 97.9505 92.6311 97.8245 92.6364 97.6947C92.6412 97.5627 92.646 97.4307 92.6509 97.2947C92.6562 97.1618 92.6615 97.0289 92.6669 96.8919C92.6799 96.563 92.6922 96.234 92.7044 95.905C93.1075 95.905 93.5107 95.905 93.9261 95.905C93.9261 97.1952 93.9261 98.4853 93.9261 99.8145C93.3967 99.8145 92.8673 99.8145 92.3378 99.8145C92.2523 99.8202 92.1668 99.8259 92.0787 99.8317C91.9386 99.8383 91.9386 99.8383 91.7957 99.8451C91.7026 99.8507 91.6096 99.8564 91.5137 99.8623C91.1198 99.794 90.9955 99.6369 90.7496 99.3258C90.6941 98.9563 90.6941 98.9563 90.7019 98.5298C90.7035 98.3771 90.705 98.2243 90.7067 98.0669C90.7108 97.9078 90.7149 97.7488 90.7191 97.5849C90.7213 97.4239 90.7235 97.263 90.7258 97.0972C90.7315 96.6997 90.7395 96.3024 90.7496 95.905Z" fill="white"/>
<path d="M78.6548 103.968C79.1435 103.968 79.6322 103.968 80.1208 103.968C80.2112 103.963 80.3016 103.957 80.3948 103.951C80.5009 103.947 80.6071 103.942 80.7164 103.938C80.822 103.932 80.9275 103.926 81.0362 103.921C81.4537 103.986 81.5725 104.127 81.8313 104.457C81.8867 104.827 81.8867 104.827 81.879 105.253C81.8766 105.482 81.8766 105.482 81.8742 105.716C81.8701 105.875 81.866 106.034 81.8618 106.198C81.8596 106.359 81.8574 106.52 81.8551 106.686C81.8494 107.083 81.8413 107.481 81.8313 107.878C81.4281 107.878 81.0249 107.878 80.6095 107.878C80.5692 106.83 80.5289 105.781 80.4874 104.701C80.2455 104.822 80.2455 104.822 79.9987 104.946C79.9584 105.913 79.918 106.881 79.8765 107.878C79.4733 107.878 79.0702 107.878 78.6548 107.878C78.6548 106.588 78.6548 105.298 78.6548 103.968Z" fill="white"/>
<path d="M3.76308 95.905C4.16625 95.905 4.56942 95.905 4.9848 95.905C5.02512 96.9533 5.06544 98.0015 5.10698 99.0815C5.26824 99.0009 5.42951 98.9202 5.59566 98.8372C5.63598 97.8696 5.6763 96.902 5.71784 95.905C6.121 95.905 6.52417 95.905 6.93956 95.905C6.93956 97.1952 6.93956 98.4853 6.93956 99.8145C6.45087 99.8145 5.96218 99.8145 5.47349 99.8145C5.38309 99.8216 5.2927 99.8287 5.19956 99.836C5.09341 99.8415 4.98727 99.847 4.8779 99.8527C4.77239 99.8598 4.66687 99.8669 4.55816 99.8742C4.25177 99.8145 4.25177 99.8145 3.99126 99.5542C3.71943 99.1366 3.706 98.9162 3.71536 98.4224C3.71694 98.2756 3.71851 98.1287 3.72013 97.9774C3.72423 97.8252 3.72832 97.673 3.73254 97.5162C3.73475 97.3616 3.73695 97.207 3.73922 97.0478C3.74497 96.6668 3.75301 96.2859 3.76308 95.905Z" fill="white"/>
<path d="M69.3084 103.923C69.4432 103.922 69.578 103.921 69.7169 103.92C70.141 103.973 70.3724 104.082 70.7134 104.335C70.8806 104.669 70.862 104.951 70.8742 105.325C70.8793 105.473 70.8844 105.621 70.8897 105.773C70.8945 105.929 70.8993 106.084 70.9043 106.244C70.9095 106.4 70.9148 106.556 70.9203 106.717C70.9332 107.104 70.9457 107.491 70.9577 107.878C70.8589 107.877 70.7601 107.876 70.6582 107.875C70.5276 107.874 70.397 107.873 70.2624 107.873C70.1333 107.872 70.0042 107.871 69.8713 107.87C69.5348 107.877 69.2201 107.908 68.8884 107.962C68.5014 108.012 68.4013 108.004 68.0256 107.84C67.7273 107.588 67.6675 107.476 67.63 107.089C67.6057 106.136 67.6057 106.136 67.8423 105.732C68.4313 105.394 69.0578 105.27 69.736 105.312C69.6554 105.111 69.5747 104.909 69.4917 104.701C69.2492 104.734 69.2492 104.734 69.003 104.824C68.9626 104.945 68.9223 105.065 68.8808 105.19C68.4776 105.19 68.0745 105.19 67.6591 105.19C67.8236 104.398 67.8236 104.398 68.1692 104.126C68.5748 103.941 68.8637 103.919 69.3084 103.923ZM68.9648 106.251C68.7202 106.521 68.7202 106.521 68.7892 106.87C68.8194 106.961 68.8496 107.051 68.8808 107.145C69.0017 107.185 69.1227 107.225 69.2473 107.267C69.5069 107.069 69.5069 107.069 69.736 106.778C69.7769 106.391 69.7769 106.391 69.736 106.045C69.2548 105.997 69.2548 105.997 68.9648 106.251Z" fill="white"/>
<path d="M84.1371 103.93C84.2855 103.926 84.4339 103.921 84.5867 103.916C85.0943 103.979 85.2634 104.094 85.6185 104.457C85.699 104.826 85.699 104.826 85.7049 105.253C85.7084 105.406 85.7119 105.559 85.7156 105.716C85.7163 105.875 85.717 106.034 85.7177 106.198C85.7208 106.359 85.7239 106.52 85.7271 106.686C85.7343 107.083 85.7387 107.48 85.7407 107.878C85.252 107.878 84.7633 107.878 84.2746 107.878C83.9995 107.915 83.7249 107.955 83.4504 107.997C83.1215 108.001 82.9598 107.936 82.6864 107.756C82.3391 107.235 82.3668 106.778 82.442 106.167C82.6176 105.801 82.6176 105.801 82.9307 105.557C83.4637 105.372 83.9557 105.312 84.5189 105.312C84.4383 105.111 84.3577 104.909 84.2746 104.701C84.0321 104.734 84.0321 104.734 83.7859 104.823C83.7456 104.944 83.7053 105.065 83.6637 105.19C83.3009 105.19 82.938 105.19 82.5642 105.19C82.5194 104.519 82.5194 104.519 82.7245 104.236C83.1676 103.924 83.6124 103.941 84.1371 103.93ZM83.7477 106.251C83.5031 106.521 83.5031 106.521 83.5721 106.87C83.6023 106.961 83.6326 107.051 83.6637 107.145C83.7847 107.185 83.9056 107.225 84.0302 107.267C84.2899 107.069 84.2899 107.069 84.5189 106.778C84.5598 106.391 84.5598 106.391 84.5189 106.045C84.0377 105.997 84.0377 105.997 83.7477 106.251Z" fill="white"/>
<path d="M29.0907 103.938C29.2979 103.933 29.2979 103.933 29.5093 103.928C29.9495 103.973 30.175 104.059 30.5186 104.335C30.6179 104.785 30.6179 104.785 30.6408 105.19C30.2376 105.19 29.8344 105.19 29.4191 105.19C29.4191 105.029 29.4191 104.867 29.4191 104.701C29.2175 104.701 29.0159 104.701 28.8082 104.701C28.8082 104.822 28.8082 104.943 28.8082 105.068C28.8972 105.101 28.9862 105.133 29.0778 105.167C29.4133 105.31 29.6907 105.474 29.9917 105.679C30.0854 105.742 30.1792 105.805 30.2757 105.87C30.5186 106.045 30.5186 106.045 30.763 106.29C30.8605 107.14 30.8605 107.14 30.4881 107.626C29.8807 108.081 29.181 108.087 28.4417 108C28.0615 107.839 27.7755 107.645 27.5865 107.267C27.5816 107.023 27.5812 106.778 27.5865 106.534C27.9897 106.534 28.3928 106.534 28.8082 106.534C28.8888 106.736 28.9695 106.937 29.0525 107.145C29.2138 107.145 29.3751 107.145 29.5412 107.145C29.2757 106.614 29.0251 106.41 28.4951 106.152C27.8554 105.838 27.8554 105.838 27.5865 105.434C27.5244 104.958 27.5462 104.762 27.8156 104.358C28.2323 103.929 28.5042 103.946 29.0907 103.938Z" fill="white"/>
<path d="M98.6907 95.7827C99.1223 96.06 99.2749 96.1649 99.4008 96.6684C99.4084 96.7793 99.4159 96.8902 99.4237 97.0044C99.0205 97.0044 98.6174 97.0044 98.202 97.0044C98.1617 96.8834 98.1213 96.7625 98.0798 96.6379C97.8336 96.5483 97.8336 96.5483 97.5911 96.5157C97.7723 97.013 98.0346 97.1436 98.4998 97.3709C98.9627 97.5978 99.2936 97.7653 99.5459 98.2261C99.5822 98.6072 99.5277 98.9578 99.4237 99.3257C98.987 99.7915 98.4736 99.84 97.8584 99.8602C97.3832 99.855 97.0341 99.8475 96.6443 99.5624C96.3084 99.1239 96.3059 98.888 96.3694 98.3483C96.7726 98.3483 97.1757 98.3483 97.5911 98.3483C97.6314 98.5902 97.6718 98.8321 97.7133 99.0813C97.8746 99.0007 98.0358 98.92 98.202 98.837C98.0365 98.3406 97.8065 98.2841 97.3544 98.0352C96.635 97.6365 96.635 97.6365 96.3694 97.3709C96.2898 96.7637 96.2722 96.5269 96.6367 96.027C97.2198 95.6155 98.016 95.6602 98.6907 95.7827Z" fill="white"/>
<path d="M85.4962 95.7828C85.8857 95.9813 85.8857 95.9813 86.1071 96.2715C86.2064 96.6685 86.2064 96.6685 86.2293 97.0045C85.8261 97.0045 85.4229 97.0045 85.0076 97.0045C84.9672 96.8836 84.9269 96.7626 84.8854 96.638C84.6392 96.5484 84.6392 96.5484 84.3967 96.5158C84.5608 97.008 84.8771 97.1273 85.3054 97.371C86.0752 97.8119 86.0752 97.8119 86.3515 98.2262C86.4049 98.6386 86.4049 98.6386 86.3515 99.0814C86.041 99.4674 85.8449 99.6575 85.3741 99.8145C84.7712 99.863 84.2174 99.8947 83.656 99.6541C83.4193 99.448 83.4193 99.448 83.175 99.0814C83.1597 98.692 83.1597 98.692 83.175 98.3484C83.5781 98.3484 83.9813 98.3484 84.3967 98.3484C84.4773 98.55 84.558 98.7516 84.641 98.9593C84.762 98.9189 84.8829 98.8786 85.0076 98.8371C84.842 98.3405 84.6136 98.2889 84.16 98.043C83.4455 97.6546 83.4455 97.6546 83.175 97.2489C83.1135 96.7775 83.1363 96.5759 83.3964 96.1722C83.953 95.6156 84.7569 95.712 85.4962 95.7828Z" fill="white"/>
<path d="M87.7409 103.945C87.8805 103.944 88.02 103.942 88.1638 103.94C88.5339 103.967 88.7335 104.01 89.039 104.213C89.2828 104.578 89.2834 104.73 89.2834 105.19C88.8802 105.19 88.477 105.19 88.0616 105.19C88.0616 105.029 88.0616 104.868 88.0616 104.701C87.8601 104.701 87.6585 104.701 87.4508 104.701C87.6157 105.196 87.8379 105.244 88.2907 105.488C89.135 105.943 89.135 105.943 89.4055 106.412C89.4666 106.832 89.4666 106.832 89.4055 107.267C89.0733 107.692 88.8318 107.906 88.306 108C87.6183 108.058 87.0267 108.1 86.4734 107.634C86.1936 107.214 86.2073 107.024 86.2291 106.534C86.6322 106.534 87.0354 106.534 87.4508 106.534C87.5314 106.736 87.612 106.937 87.6951 107.145C87.8161 107.104 87.937 107.064 88.0616 107.023C87.8803 106.523 87.6115 106.39 87.1454 106.16C86.4989 105.839 86.4989 105.839 86.2291 105.434C86.167 104.958 86.1888 104.762 86.4581 104.358C86.8784 103.925 87.1499 103.949 87.7409 103.945Z" fill="white"/>
<path d="M71.4464 103.968C72.3737 103.968 73.301 103.968 74.2563 103.968C74.2563 104.93 74.2563 104.93 73.9977 105.322C73.9437 105.405 73.8896 105.489 73.834 105.576C73.7768 105.66 73.7197 105.744 73.6608 105.831C73.6045 105.918 73.5483 106.004 73.4904 106.093C73.3403 106.323 73.188 106.551 73.0346 106.778C72.954 106.899 72.8734 107.02 72.7903 107.145C73.2741 107.145 73.7579 107.145 74.2563 107.145C74.2563 107.387 74.2563 107.629 74.2563 107.878C73.2887 107.878 72.3211 107.878 71.3242 107.878C71.3242 106.916 71.3242 106.916 71.6182 106.485C71.7091 106.348 71.7091 106.348 71.8019 106.209C71.866 106.117 71.9301 106.025 71.9962 105.931C72.0603 105.835 72.1244 105.74 72.1904 105.642C72.3479 105.409 72.5078 105.177 72.6681 104.946C72.2649 104.905 71.8618 104.865 71.4464 104.823C71.4464 104.541 71.4464 104.259 71.4464 103.968Z" fill="white"/>
<path d="M32.5957 102.869C32.5957 103.232 32.5957 103.594 32.5957 103.968C32.8376 103.968 33.0795 103.968 33.3287 103.968C33.3287 104.25 33.3287 104.533 33.3287 104.823C33.0868 104.823 32.8449 104.823 32.5957 104.823C32.636 105.589 32.6763 106.355 32.7178 107.145C32.9194 107.145 33.121 107.145 33.3287 107.145C33.3287 107.387 33.3287 107.628 33.3287 107.878C32.8682 108.108 32.3052 108.052 31.8168 107.924C31.5113 107.665 31.474 107.409 31.3739 107.022C31.3461 106.64 31.3507 106.26 31.3587 105.877C31.3598 105.776 31.3609 105.674 31.362 105.569C31.3649 105.321 31.3693 105.072 31.3739 104.823C31.2127 104.823 31.0514 104.823 30.8853 104.823C30.8853 104.541 30.8853 104.259 30.8853 103.968C31.0465 103.968 31.2078 103.968 31.3739 103.968C31.3739 103.767 31.3739 103.565 31.3739 103.357C31.5545 103.276 31.7353 103.194 31.9161 103.113C32.0167 103.068 32.1173 103.022 32.221 102.976C32.4735 102.869 32.4735 102.869 32.5957 102.869Z" fill="white"/>
<path d="M63.1385 95.7828C63.1385 96.1053 63.1385 96.4278 63.1385 96.7602C62.8563 96.8408 62.5741 96.9214 62.2833 97.0045C62.243 97.9318 62.2027 98.8591 62.1612 99.8145C61.758 99.8145 61.3548 99.8145 60.9395 99.8145C60.9395 98.5243 60.9395 97.2342 60.9395 95.9049C61.3874 95.9049 61.8354 95.9049 62.2833 95.9049C62.5842 95.7545 62.8062 95.774 63.1385 95.7828Z" fill="white"/>
<path d="M94.6592 95.905C95.0623 95.905 95.4655 95.905 95.8809 95.905C95.8809 97.1952 95.8809 98.4853 95.8809 99.8145C95.4777 99.8145 95.0746 99.8145 94.6592 99.8145C94.6592 98.5244 94.6592 97.2343 94.6592 95.905Z" fill="white"/>
<path d="M25.5098 94.1946C25.6711 94.1946 25.8324 94.1946 25.9985 94.1946C25.9069 94.8971 25.9069 94.8971 25.632 95.172C25.3356 95.1915 25.3356 95.1915 24.983 95.1796C24.5245 95.1652 24.1245 95.189 23.6772 95.2941C23.7154 94.9429 23.7154 94.9429 23.7994 94.5611C24.2119 94.2861 24.2633 94.299 24.7233 94.3778C25.0063 94.4323 25.0063 94.4323 25.2655 94.4389C25.3461 94.3583 25.4267 94.2777 25.5098 94.1946Z" fill="white"/>
<path d="M69.9805 94.0725C70.3699 93.9946 70.6943 93.9671 71.08 94.0725C71.4347 94.4681 71.813 94.99 71.813 95.5386C71.4838 95.5758 71.4838 95.5758 71.08 95.5386C70.7679 95.2799 70.7679 95.2799 70.4844 94.943C70.3413 94.7772 70.3413 94.7772 70.1952 94.608C69.9805 94.3169 69.9805 94.3169 69.9805 94.0725Z" fill="white"/>
<path d="M94.6592 94.1946C95.0623 94.1946 95.4655 94.1946 95.8809 94.1946C95.8809 94.5574 95.8809 94.9203 95.8809 95.2941C95.4777 95.2941 95.0746 95.2941 94.6592 95.2941C94.6592 94.9313 94.6592 94.5684 94.6592 94.1946Z" fill="white"/>
</g>
<defs>
<clipPath id="clip0_11_204">
<rect width="102.991" height="108" fill="white" transform="translate(0.220215)"/>
</clipPath>
</defs>
</svg>
