<svg width="61" height="72" viewBox="0 0 61 72" fill="none" xmlns="http://www.w3.org/2000/svg">
<path d="M31.6601 47.2719C31.4601 47.2719 31.2701 47.2719 31.0701 47.2719C24.7801 47.1219 18.9101 44.7019 14.5501 40.4419C10.1701 36.1719 7.84008 30.5718 7.98008 24.6718C7.98008 24.5918 7.98009 24.5219 7.99009 24.4519C7.99009 24.4119 7.99009 24.3719 7.99009 24.3319L8.01008 23.8118L8.48008 23.5919C11.9101 21.9819 15.7701 21.1719 19.6401 21.2719C25.9301 21.4219 31.8001 23.8419 36.1601 28.1019C40.5401 32.3719 42.8701 37.9719 42.7301 43.8719C42.7301 43.9519 42.7301 44.0219 42.7301 44.0919C42.7301 44.1319 42.7301 44.1719 42.7301 44.2119L42.7101 44.7319L42.2401 44.9519C38.9801 46.4819 35.3401 47.2819 31.6701 47.2819M9.69007 24.9119C9.55007 36.0319 19.1101 45.2818 31.1201 45.5618C34.5501 45.6418 37.9701 44.9719 41.0401 43.6119C41.1801 32.4919 31.6201 23.2419 19.6101 22.9619C16.1801 22.8819 12.7601 23.5519 9.69007 24.9119Z" fill="white"/>
<path d="M18.5 27.902C15.04 27.902 11.6501 27.062 8.56006 25.392C8.49006 25.352 8.43006 25.322 8.37006 25.282C8.33006 25.262 8.30004 25.242 8.26004 25.222L7.81006 24.972L7.83005 24.452C7.96005 20.6619 9.00005 16.862 10.83 13.462C13.83 7.93196 18.6601 3.81199 24.4301 1.87199C30.2301 -0.0780061 36.28 0.39195 41.47 3.20195C41.54 3.23195 41.6 3.27194 41.66 3.31194C41.7 3.33194 41.73 3.35199 41.7701 3.37199L42.22 3.62199L42.2 4.14201C42.07 7.93201 41.03 11.732 39.19 15.132C36.19 20.662 31.3601 24.782 25.5901 26.722C23.2401 27.512 20.8501 27.902 18.4901 27.902M9.56006 23.982C19.4101 29.172 32.0001 24.8619 37.7101 14.3119C39.3401 11.3019 40.3001 7.95196 40.4901 4.59196C35.7601 2.10196 30.26 1.70197 24.98 3.47197C19.62 5.27197 15.12 9.11201 12.33 14.262C10.7 17.272 9.74005 20.622 9.55005 23.982" fill="white"/>
<path d="M0.0100098 68.392V66.7019H0.640015C0.780015 66.7019 0.91001 66.722 1.01001 66.772C1.11001 66.822 1.19 66.8819 1.25 66.9719C1.3 67.0619 1.33002 67.162 1.33002 67.282C1.33002 67.402 1.3 67.5019 1.25 67.5919C1.19 67.6819 1.11001 67.742 1.01001 67.792C0.91001 67.842 0.780015 67.8619 0.640015 67.8619H0.100006L0.180023 67.782V68.402H0L0.0100098 68.392ZM0.190002 67.792L0.110016 67.7019H0.640015C0.810015 67.7019 0.939999 67.6619 1.03 67.5919C1.12 67.5219 1.16 67.412 1.16 67.282C1.16 67.152 1.12 67.0419 1.03 66.9719C0.939999 66.8919 0.810015 66.8619 0.640015 66.8619H0.110016L0.190002 66.782V67.8019V67.792Z" fill="white"/>
<path d="M1.73022 68.392V66.7019H2.36023C2.50023 66.7019 2.63022 66.722 2.73022 66.772C2.83022 66.822 2.91021 66.8819 2.97021 66.9719C3.02021 67.0619 3.05023 67.162 3.05023 67.282C3.05023 67.402 3.02021 67.5019 2.97021 67.5919C2.91021 67.6819 2.83022 67.742 2.73022 67.792C2.63022 67.842 2.50023 67.8619 2.36023 67.8619H1.82022L1.90024 67.782V68.402H1.72021L1.73022 68.392ZM1.90024 67.792L1.82022 67.7019H2.35022C2.52022 67.7019 2.65023 67.6619 2.74023 67.5919C2.83023 67.5219 2.87024 67.412 2.87024 67.282C2.87024 67.152 2.83023 67.0419 2.74023 66.9719C2.65023 66.8919 2.52022 66.8619 2.35022 66.8619H1.82022L1.90024 66.782V67.8019V67.792ZM2.88022 68.392L2.44022 67.782H2.63022L3.07022 68.392H2.87024H2.88022Z" fill="white"/>
<path d="M4.20984 68.412C4.07984 68.412 3.95983 68.3919 3.85983 68.3519C3.74983 68.3119 3.65983 68.2519 3.57983 68.1719C3.49983 68.0919 3.43983 68.002 3.38983 67.902C3.34983 67.802 3.31982 67.6819 3.31982 67.5619C3.31982 67.4419 3.33983 67.3219 3.38983 67.2219C3.42983 67.1219 3.49983 67.0319 3.57983 66.9519C3.65983 66.8719 3.74983 66.812 3.85983 66.772C3.96983 66.732 4.08982 66.7119 4.21982 66.7119C4.34982 66.7119 4.45982 66.732 4.56982 66.772C4.67982 66.812 4.76982 66.8719 4.84982 66.9519C4.92982 67.0319 4.98983 67.1219 5.03983 67.2219C5.07983 67.3219 5.10983 67.4419 5.10983 67.5619C5.10983 67.6819 5.08983 67.802 5.03983 67.902C4.99983 68.002 4.92982 68.1019 4.84982 68.1719C4.76982 68.2519 4.67982 68.3119 4.56982 68.3519C4.45982 68.3919 4.33982 68.412 4.21982 68.412M4.20984 68.252C4.30984 68.252 4.39984 68.2319 4.48984 68.2019C4.57984 68.1719 4.64982 68.1219 4.71982 68.0519C4.77982 67.9919 4.82984 67.9119 4.86984 67.8319C4.90984 67.7519 4.91983 67.6519 4.91983 67.5519C4.91983 67.4519 4.89984 67.362 4.86984 67.272C4.82984 67.192 4.77982 67.1119 4.71982 67.0519C4.65982 66.9919 4.57984 66.942 4.48984 66.902C4.39984 66.872 4.30984 66.8519 4.20984 66.8519C4.10984 66.8519 4.00984 66.872 3.92984 66.902C3.83984 66.932 3.76983 66.9819 3.69983 67.0519C3.63983 67.1119 3.58984 67.192 3.54984 67.272C3.50984 67.362 3.49982 67.4519 3.49982 67.5519C3.49982 67.6519 3.51984 67.7419 3.54984 67.8319C3.58984 67.9219 3.63983 67.9919 3.69983 68.0519C3.75983 68.1119 3.83984 68.1619 3.92984 68.2019C4.01984 68.2419 4.10984 68.252 4.20984 68.252Z" fill="white"/>
<path d="M6.25009 68.412C6.12009 68.412 6.00011 68.3919 5.89011 68.3519C5.78011 68.3119 5.69011 68.2519 5.61011 68.1719C5.53011 68.0919 5.4701 68.002 5.4201 67.902C5.3801 67.802 5.3501 67.6819 5.3501 67.5619C5.3501 67.4419 5.3701 67.3219 5.4201 67.2219C5.4601 67.1219 5.53011 67.0219 5.61011 66.9519C5.69011 66.8719 5.78011 66.812 5.89011 66.772C6.00011 66.732 6.12009 66.7119 6.25009 66.7119C6.38009 66.7119 6.5001 66.732 6.6001 66.772C6.7101 66.812 6.80012 66.8719 6.87012 66.9519L6.7601 67.0619C6.6901 66.9919 6.61009 66.942 6.53009 66.912C6.44009 66.882 6.35009 66.8619 6.25009 66.8619C6.14009 66.8619 6.05011 66.882 5.96011 66.912C5.87011 66.942 5.8001 66.9919 5.7301 67.0619C5.6601 67.1219 5.61011 67.202 5.58011 67.282C5.54011 67.362 5.53009 67.4619 5.53009 67.5619C5.53009 67.6619 5.55011 67.7519 5.58011 67.8419C5.62011 67.9219 5.6701 68.0019 5.7301 68.0619C5.8001 68.1219 5.87011 68.1719 5.96011 68.2119C6.05011 68.2419 6.14009 68.262 6.25009 68.262C6.35009 68.262 6.44011 68.2519 6.52011 68.2219C6.61011 68.1919 6.6901 68.1419 6.7601 68.0719L6.86011 68.2119C6.78011 68.2819 6.68011 68.3319 6.58011 68.3719C6.47011 68.4119 6.36011 68.4319 6.24011 68.4319M6.7001 68.1719V67.5519H6.87012V68.2019L6.7001 68.1819V68.1719Z" fill="white"/>
<path d="M7.36987 68.392V66.7019H7.99985C8.13985 66.7019 8.26987 66.722 8.36987 66.772C8.46987 66.822 8.54986 66.8819 8.60986 66.9719C8.65986 67.0619 8.68985 67.162 8.68985 67.282C8.68985 67.402 8.65986 67.5019 8.60986 67.5919C8.54986 67.6819 8.46987 67.742 8.36987 67.792C8.26987 67.842 8.13985 67.8619 7.99985 67.8619H7.45987L7.53986 67.782V68.402H7.35986L7.36987 68.392ZM7.54987 67.792L7.46985 67.7019H7.99985C8.16985 67.7019 8.29986 67.6619 8.38986 67.5919C8.47986 67.5219 8.51987 67.412 8.51987 67.282C8.51987 67.152 8.47986 67.0419 8.38986 66.9719C8.29986 66.8919 8.16985 66.8619 7.99985 66.8619H7.46985L7.54987 66.782V67.8019V67.792ZM8.52985 68.392L8.08987 67.782H8.27985L8.71985 68.392H8.51987H8.52985Z" fill="white"/>
<path d="M8.84982 68.392L9.61984 66.7019H9.79984L10.5698 68.392H10.3798L9.66983 66.8019H9.73984L9.02982 68.392H8.83984H8.84982ZM9.14984 67.9419L9.19983 67.8019H10.1798L10.2298 67.9419H9.13983H9.14984Z" fill="white"/>
<path d="M10.8501 68.392V66.7019H11.0001L11.7701 68.022H11.7001L12.4601 66.7019H12.6101V68.392H12.4401V66.9719H12.4801L11.7701 68.1819H11.6901L10.9801 66.9719H11.0301V68.392H10.8501Z" fill="white"/>
<path d="M12.8899 68.392L13.6599 66.7019H13.8399L14.6099 68.392H14.4199L13.7099 66.8019H13.7799L13.0699 68.392H12.8799H12.8899ZM13.1999 67.9419L13.2499 67.8019H14.2299L14.2799 67.9419H13.1899H13.1999Z" fill="white"/>
<path d="M15.5298 68.392V66.7019H16.2198C16.3998 66.7019 16.5598 66.7419 16.6998 66.8119C16.8398 66.8819 16.9398 66.9819 17.0198 67.1119C17.0998 67.2419 17.1298 67.3819 17.1298 67.5519C17.1298 67.7219 17.0898 67.8619 17.0198 67.9919C16.9498 68.1219 16.8398 68.222 16.6998 68.292C16.5598 68.362 16.4098 68.402 16.2198 68.402H15.5298V68.392ZM15.7098 68.2419H16.2098C16.3598 68.2419 16.4898 68.212 16.5998 68.152C16.7098 68.092 16.7998 68.012 16.8598 67.912C16.9198 67.812 16.9498 67.6919 16.9498 67.5519C16.9498 67.4119 16.9198 67.2919 16.8598 67.1919C16.7998 67.0919 16.7098 67.0119 16.5998 66.9519C16.4898 66.8919 16.3598 66.8619 16.2098 66.8619H15.7098V68.2419Z" fill="white"/>
<path d="M17.7098 68.2419H18.7298V68.392H17.5298V66.7019H18.6898V66.8519H17.7098V68.2319V68.2419ZM17.6898 67.4619H18.5798V67.6119H17.6898V67.4619Z" fill="white"/>
<path d="M19.51 68.392L20.28 66.7019H20.46L21.23 68.392H21.04L20.33 66.8019H20.4L19.69 68.392H19.5H19.51ZM19.81 67.9419L19.86 67.8019H20.84L20.89 67.9419H19.8H19.81Z" fill="white"/>
<path d="M21.51 68.392V66.7019H22.14C22.28 66.7019 22.41 66.722 22.51 66.772C22.61 66.822 22.69 66.8819 22.75 66.9719C22.8 67.0619 22.83 67.162 22.83 67.282C22.83 67.402 22.8 67.5019 22.75 67.5919C22.69 67.6819 22.61 67.742 22.51 67.792C22.41 67.842 22.28 67.8619 22.14 67.8619H21.6L21.68 67.782V68.402H21.5L21.51 68.392ZM21.69 67.792L21.61 67.7019H22.14C22.31 67.7019 22.44 67.6619 22.53 67.5919C22.62 67.5219 22.66 67.412 22.66 67.282C22.66 67.152 22.62 67.0419 22.53 66.9719C22.44 66.8919 22.31 66.8619 22.14 66.8619H21.61L21.69 66.782V67.8019V67.792Z" fill="white"/>
<path d="M23.9901 68.412C23.8601 68.412 23.7401 68.3919 23.6401 68.3519C23.5301 68.3119 23.4401 68.2519 23.3601 68.1719C23.2801 68.0919 23.2201 68.002 23.1701 67.902C23.1301 67.802 23.1001 67.6819 23.1001 67.5619C23.1001 67.4419 23.1201 67.3219 23.1701 67.2219C23.2101 67.1219 23.2801 67.0319 23.3601 66.9519C23.4401 66.8719 23.5301 66.812 23.6401 66.772C23.7501 66.732 23.8701 66.7119 24.0001 66.7119C24.1301 66.7119 24.2401 66.732 24.3501 66.772C24.4601 66.812 24.5501 66.8719 24.6301 66.9519C24.7101 67.0319 24.7701 67.1219 24.8201 67.2219C24.8601 67.3219 24.8901 67.4419 24.8901 67.5619C24.8901 67.6819 24.8701 67.802 24.8201 67.902C24.7801 68.002 24.7101 68.1019 24.6301 68.1719C24.5501 68.2519 24.4601 68.3119 24.3501 68.3519C24.2401 68.3919 24.1201 68.412 24.0001 68.412M23.9901 68.252C24.0901 68.252 24.1801 68.2319 24.2701 68.2019C24.3601 68.1719 24.4301 68.1219 24.5001 68.0519C24.5601 67.9919 24.6101 67.9119 24.6501 67.8319C24.6901 67.7519 24.7001 67.6519 24.7001 67.5519C24.7001 67.4519 24.6801 67.362 24.6501 67.272C24.6101 67.192 24.5601 67.1119 24.5001 67.0519C24.4401 66.9919 24.3601 66.942 24.2701 66.902C24.1801 66.872 24.0901 66.8519 23.9901 66.8519C23.8901 66.8519 23.7901 66.872 23.7101 66.902C23.6201 66.932 23.5501 66.9819 23.4801 67.0519C23.4201 67.1119 23.3701 67.192 23.3301 67.272C23.2901 67.362 23.2801 67.4519 23.2801 67.5519C23.2801 67.6519 23.3001 67.7419 23.3301 67.8319C23.3701 67.9219 23.4201 67.9919 23.4801 68.0519C23.5401 68.1119 23.6201 68.1619 23.7101 68.2019C23.8001 68.2419 23.8901 68.252 23.9901 68.252Z" fill="white"/>
<path d="M25.4598 66.7019H25.2798V68.392H25.4598V66.7019Z" fill="white"/>
<path d="M26.7498 68.412C26.6198 68.412 26.4999 68.3919 26.3999 68.3519C26.2899 68.3119 26.1999 68.2519 26.1199 68.1719C26.0399 68.0919 25.9799 68.002 25.9299 67.902C25.8899 67.802 25.8599 67.6819 25.8599 67.5619C25.8599 67.4419 25.8799 67.3219 25.9299 67.2219C25.9699 67.1219 26.0399 67.0319 26.1199 66.9519C26.1999 66.8719 26.2899 66.812 26.3999 66.772C26.5099 66.732 26.6299 66.7119 26.7599 66.7119C26.8899 66.7119 26.9999 66.732 27.1099 66.772C27.2199 66.812 27.3099 66.8719 27.3899 66.9519C27.4699 67.0319 27.5299 67.1219 27.5799 67.2219C27.6199 67.3219 27.6499 67.4419 27.6499 67.5619C27.6499 67.6819 27.6299 67.802 27.5799 67.902C27.5399 68.002 27.4699 68.1019 27.3899 68.1719C27.3099 68.2519 27.2199 68.3119 27.1099 68.3519C26.9999 68.3919 26.8799 68.412 26.7599 68.412M26.7498 68.252C26.8498 68.252 26.9398 68.2319 27.0298 68.2019C27.1198 68.1719 27.1899 68.1219 27.2599 68.0519C27.3199 67.9919 27.3699 67.9119 27.4099 67.8319C27.4499 67.7519 27.4599 67.6519 27.4599 67.5519C27.4599 67.4519 27.4399 67.362 27.4099 67.272C27.3699 67.192 27.3199 67.1119 27.2599 67.0519C27.1999 66.9919 27.1198 66.942 27.0298 66.902C26.9398 66.872 26.8498 66.8519 26.7498 66.8519C26.6498 66.8519 26.5498 66.872 26.4698 66.902C26.3798 66.932 26.3099 66.9819 26.2399 67.0519C26.1799 67.1119 26.1299 67.192 26.0899 67.272C26.0499 67.362 26.0399 67.4519 26.0399 67.5519C26.0399 67.6519 26.0599 67.7419 26.0899 67.8319C26.1299 67.9219 26.1799 67.9919 26.2399 68.0519C26.2999 68.1119 26.3798 68.1619 26.4698 68.2019C26.5598 68.2419 26.6498 68.252 26.7498 68.252Z" fill="white"/>
<path d="M28.4001 68.392L29.1701 66.7019H29.3501L30.1201 68.392H29.9301L29.2201 66.8019H29.2901L28.5801 68.392H28.3901H28.4001ZM28.7001 67.9419L28.7501 67.8019H29.7301L29.7801 67.9419H28.6901H28.7001Z" fill="white"/>
<path d="M31.12 68.412C30.99 68.412 30.87 68.3919 30.77 68.3519C30.66 68.3119 30.57 68.2519 30.49 68.1719C30.41 68.0919 30.35 68.002 30.3 67.902C30.26 67.802 30.23 67.6819 30.23 67.5619C30.23 67.4419 30.25 67.3219 30.3 67.2219C30.34 67.1219 30.41 67.0319 30.49 66.9519C30.57 66.8719 30.66 66.812 30.77 66.772C30.88 66.732 31 66.7119 31.13 66.7119C31.26 66.7119 31.37 66.732 31.48 66.772C31.59 66.812 31.68 66.8719 31.76 66.9519C31.84 67.0319 31.9 67.1219 31.95 67.2219C31.99 67.3219 32.02 67.4419 32.02 67.5619C32.02 67.6819 32 67.802 31.95 67.902C31.91 68.002 31.84 68.1019 31.76 68.1719C31.68 68.2519 31.59 68.3119 31.48 68.3519C31.37 68.3919 31.25 68.412 31.13 68.412M31.12 68.252C31.22 68.252 31.31 68.2319 31.4 68.2019C31.49 68.1719 31.56 68.1219 31.63 68.0519C31.69 67.9919 31.74 67.9119 31.78 67.8319C31.82 67.7519 31.83 67.6519 31.83 67.5519C31.83 67.4519 31.81 67.362 31.78 67.272C31.74 67.192 31.69 67.1119 31.63 67.0519C31.57 66.9919 31.49 66.942 31.4 66.902C31.31 66.872 31.22 66.8519 31.12 66.8519C31.02 66.8519 30.92 66.872 30.84 66.902C30.75 66.932 30.68 66.9819 30.61 67.0519C30.55 67.1119 30.5 67.192 30.46 67.272C30.42 67.362 30.41 67.4519 30.41 67.5519C30.41 67.6519 30.43 67.7419 30.46 67.8319C30.5 67.9219 30.55 67.9919 30.61 68.0519C30.67 68.1119 30.75 68.1619 30.84 68.2019C30.93 68.2419 31.02 68.252 31.12 68.252Z" fill="white"/>
<path d="M33.04 68.392V66.7019H33.73C33.91 66.7019 34.0701 66.7419 34.2101 66.8119C34.3501 66.8819 34.45 66.9819 34.53 67.1119C34.61 67.2419 34.64 67.3819 34.64 67.5519C34.64 67.7219 34.6 67.8619 34.53 67.9919C34.46 68.1219 34.3501 68.222 34.2101 68.292C34.0701 68.362 33.92 68.402 33.73 68.402H33.04V68.392ZM33.22 68.2419H33.72C33.87 68.2419 34 68.212 34.11 68.152C34.22 68.092 34.3101 68.012 34.3701 67.912C34.4301 67.812 34.4601 67.6919 34.4601 67.5519C34.4601 67.4119 34.4301 67.2919 34.3701 67.1919C34.3101 67.0919 34.22 67.0119 34.11 66.9519C34 66.8919 33.87 66.8619 33.72 66.8619H33.22V68.2419Z" fill="white"/>
<path d="M35.22 68.2419H36.2401V68.392H35.04V66.7019H36.2V66.8519H35.22V68.2319V68.2419ZM35.2 67.4619H36.0901V67.6119H35.2V67.4619Z" fill="white"/>
<path d="M37.1202 68.412C36.9902 68.412 36.8702 68.3919 36.7602 68.3519C36.6402 68.3119 36.5602 68.2619 36.4902 68.1919L36.5602 68.0519C36.6202 68.1119 36.7002 68.1619 36.8002 68.2019C36.9002 68.2419 37.0102 68.262 37.1202 68.262C37.2302 68.262 37.3102 68.2519 37.3802 68.2219C37.4502 68.1919 37.5002 68.1619 37.5302 68.1119C37.5602 68.0719 37.5802 68.0219 37.5802 67.9619C37.5802 67.8919 37.5602 67.8419 37.5202 67.8019C37.4802 67.7619 37.4302 67.7319 37.3702 67.7019C37.3102 67.6819 37.2402 67.662 37.1702 67.642C37.1002 67.622 37.0202 67.6019 36.9502 67.5819C36.8802 67.5619 36.8102 67.532 36.7502 67.502C36.6902 67.472 36.6402 67.4219 36.6002 67.3719C36.5602 67.3119 36.5402 67.242 36.5402 67.152C36.5402 67.072 36.5602 66.9919 36.6102 66.9219C36.6502 66.8519 36.7202 66.792 36.8102 66.752C36.9002 66.712 37.0202 66.6919 37.1602 66.6919C37.2602 66.6919 37.3502 66.7019 37.4402 66.7319C37.5302 66.7619 37.6102 66.7919 37.6802 66.8419L37.6202 66.9819C37.5502 66.9319 37.4702 66.9019 37.3902 66.8719C37.3102 66.8519 37.2302 66.8419 37.1502 66.8419C37.0502 66.8419 36.9602 66.852 36.9002 66.882C36.8302 66.912 36.7902 66.9419 36.7502 66.9919C36.7202 67.0419 36.7002 67.092 36.7002 67.152C36.7002 67.222 36.7202 67.2719 36.7602 67.3119C36.8002 67.3519 36.8502 67.382 36.9102 67.402C36.9702 67.422 37.0402 67.4419 37.1102 67.4619C37.1802 67.4819 37.2602 67.502 37.3302 67.522C37.4002 67.542 37.4702 67.5719 37.5302 67.6019C37.5902 67.6319 37.6402 67.6819 37.6802 67.7319C37.7202 67.7819 37.7402 67.8619 37.7402 67.9519C37.7402 68.0319 37.7202 68.1119 37.6702 68.1819C37.6202 68.2519 37.5602 68.3119 37.4602 68.3519C37.3702 68.3919 37.2502 68.412 37.1002 68.412" fill="white"/>
<path d="M38.3201 68.2419H39.3401V68.392H38.1401V66.7019H39.3001V66.8519H38.3201V68.2319V68.2419ZM38.3001 67.4619H39.1901V67.6119H38.3001V67.4619Z" fill="white"/>
<path d="M39.7598 68.392V66.7019H39.9098L41.0798 68.1719H40.9998V66.7019H41.1798V68.392H41.0298L39.8598 66.9319H39.9398V68.392H39.7598Z" fill="white"/>
<path d="M42.1899 68.392L41.4399 66.7019H41.6299L42.33 68.3019H42.2299L42.93 66.7019H43.11L42.36 68.392H42.1899Z" fill="white"/>
<path d="M44.08 68.412C43.95 68.412 43.8299 68.3919 43.7299 68.3519C43.6199 68.3119 43.53 68.2519 43.45 68.1719C43.37 68.0919 43.3099 68.002 43.2599 67.902C43.2199 67.802 43.1899 67.6819 43.1899 67.5619C43.1899 67.4419 43.2099 67.3219 43.2599 67.2219C43.2999 67.1219 43.37 67.0319 43.45 66.9519C43.53 66.8719 43.6199 66.812 43.7299 66.772C43.8399 66.732 43.96 66.7119 44.09 66.7119C44.22 66.7119 44.3299 66.732 44.4399 66.772C44.5499 66.812 44.6399 66.8719 44.7199 66.9519C44.7999 67.0319 44.8599 67.1219 44.9099 67.2219C44.9499 67.3219 44.9799 67.4419 44.9799 67.5619C44.9799 67.6819 44.9599 67.802 44.9099 67.902C44.8699 68.002 44.7999 68.1019 44.7199 68.1719C44.6399 68.2519 44.5499 68.3119 44.4399 68.3519C44.3299 68.3919 44.21 68.412 44.09 68.412M44.08 68.252C44.18 68.252 44.27 68.2319 44.36 68.2019C44.45 68.1719 44.52 68.1219 44.59 68.0519C44.65 67.9919 44.7 67.9119 44.74 67.8319C44.78 67.7519 44.7899 67.6519 44.7899 67.5519C44.7899 67.4519 44.77 67.362 44.74 67.272C44.7 67.192 44.65 67.1119 44.59 67.0519C44.53 66.9919 44.45 66.942 44.36 66.902C44.27 66.872 44.18 66.8519 44.08 66.8519C43.98 66.8519 43.88 66.872 43.8 66.902C43.71 66.932 43.6399 66.9819 43.5699 67.0519C43.5099 67.1119 43.46 67.192 43.42 67.272C43.38 67.362 43.37 67.4519 43.37 67.5519C43.37 67.6519 43.39 67.7419 43.42 67.8319C43.46 67.9219 43.5099 67.9919 43.5699 68.0519C43.6299 68.1119 43.71 68.1619 43.8 68.2019C43.89 68.2419 43.98 68.252 44.08 68.252Z" fill="white"/>
<path d="M45.3701 68.392V66.7019H45.5501V68.2419H46.5001V68.392H45.3701Z" fill="white"/>
<path d="M47.1499 68.392L46.3999 66.7019H46.5899L47.2899 68.3019H47.1899L47.8899 66.7019H48.0799L47.3299 68.392H47.1499Z" fill="white"/>
<path d="M48.4998 66.7019H48.3198V68.392H48.4998V66.7019Z" fill="white"/>
<path d="M49.0498 68.392V66.7019H49.1998L49.9698 68.022H49.8898L50.6598 66.7019H50.8098V68.392H50.6398V66.9719H50.6798L49.9698 68.1819H49.8898L49.1798 66.9719H49.2198V68.392H49.0498Z" fill="white"/>
<path d="M51.5399 68.2419H52.5599V68.392H51.3599V66.7019H52.5199V66.8519H51.5399V68.2319V68.2419ZM51.5199 67.4619H52.4099V67.6119H51.5199V67.4619Z" fill="white"/>
<path d="M52.98 68.392V66.7019H53.12L54.29 68.1719H54.21V66.7019H54.39V68.392H54.24L53.08 66.9319H53.16V68.392H52.98Z" fill="white"/>
<path d="M55.2702 68.392V66.8619H54.6802V66.7019H56.0502V66.8619H55.4502V68.392H55.2702Z" fill="white"/>
<path d="M57.0502 68.412C56.9202 68.412 56.8002 68.3919 56.7002 68.3519C56.5902 68.3119 56.5002 68.2519 56.4202 68.1719C56.3402 68.0919 56.2802 68.002 56.2302 67.902C56.1902 67.802 56.1602 67.6819 56.1602 67.5619C56.1602 67.4419 56.1802 67.3219 56.2302 67.2219C56.2702 67.1219 56.3402 67.0319 56.4202 66.9519C56.5002 66.8719 56.5902 66.812 56.7002 66.772C56.8102 66.732 56.9302 66.7119 57.0602 66.7119C57.1902 66.7119 57.3002 66.732 57.4102 66.772C57.5202 66.812 57.6102 66.8719 57.6902 66.9519C57.7702 67.0319 57.8302 67.1219 57.8802 67.2219C57.9202 67.3219 57.9502 67.4419 57.9502 67.5619C57.9502 67.6819 57.9302 67.802 57.8802 67.902C57.8402 68.002 57.7702 68.1019 57.6902 68.1719C57.6102 68.2519 57.5202 68.3119 57.4102 68.3519C57.3002 68.3919 57.1802 68.412 57.0602 68.412M57.0502 68.252C57.1502 68.252 57.2402 68.2319 57.3302 68.2019C57.4202 68.1719 57.4902 68.1219 57.5602 68.0519C57.6202 67.9919 57.6702 67.9119 57.7102 67.8319C57.7502 67.7519 57.7602 67.6519 57.7602 67.5519C57.7602 67.4519 57.7402 67.362 57.7102 67.272C57.6702 67.192 57.6202 67.1119 57.5602 67.0519C57.5002 66.9919 57.4202 66.942 57.3302 66.902C57.2402 66.872 57.1502 66.8519 57.0502 66.8519C56.9502 66.8519 56.8502 66.872 56.7702 66.902C56.6802 66.932 56.6102 66.9819 56.5402 67.0519C56.4802 67.1119 56.4302 67.192 56.3902 67.272C56.3502 67.362 56.3402 67.4519 56.3402 67.5519C56.3402 67.6519 56.3602 67.7419 56.3902 67.8319C56.4302 67.9219 56.4802 67.9919 56.5402 68.0519C56.6002 68.1119 56.6802 68.1619 56.7702 68.2019C56.8602 68.2419 56.9502 68.252 57.0502 68.252Z" fill="white"/>
<path d="M0.00976562 71.2921V69.6021H0.699768C0.879768 69.6021 1.03978 69.642 1.17978 69.712C1.31978 69.782 1.41976 69.8821 1.49976 70.0121C1.57976 70.1421 1.60977 70.282 1.60977 70.452C1.60977 70.622 1.56976 70.7621 1.49976 70.8921C1.42976 71.0221 1.31978 71.122 1.17978 71.192C1.03978 71.262 0.889768 71.302 0.699768 71.302H0.00976562V71.2921ZM0.189758 71.1421H0.689758C0.839758 71.1421 0.969773 71.112 1.07977 71.052C1.18977 70.992 1.27978 70.912 1.33978 70.812C1.39978 70.712 1.42978 70.592 1.42978 70.452C1.42978 70.312 1.39978 70.192 1.33978 70.092C1.27978 69.992 1.18977 69.9121 1.07977 69.8521C0.969773 69.7921 0.839758 69.7621 0.689758 69.7621H0.189758V71.1421Z" fill="white"/>
<path d="M1.71994 71.2921L2.48996 69.6021H2.66995L3.43994 71.2921H3.24994L2.53995 69.702H2.60995L1.89996 71.2921H1.70996H1.71994ZM2.01996 70.842L2.06995 70.702H3.04996L3.09995 70.842H2.00995H2.01996Z" fill="white"/>
<path d="M4.53009 71.1421H5.55011V71.2921H4.3501V69.6021H5.5101V69.7521H4.53009V71.1321V71.1421ZM4.5101 70.3621H5.40012V70.5121H4.5101V70.3621Z" fill="white"/>
<path d="M5.72021 71.2921L6.41022 70.3621V70.4921L5.76022 69.6021H5.96024L6.51022 70.3521H6.43024L6.98022 69.6021H7.17023L6.53021 70.4821V70.3621L7.22021 71.2921H7.01022L6.43024 70.5021H6.50021L5.92023 71.2921H5.72021Z" fill="white"/>
<path d="M7.79019 71.2921V69.7621H7.2002V69.6021H8.57019V69.7621H7.97018V71.2921H7.79019Z" fill="white"/>
<path d="M9.03009 71.1421H10.0501V71.2921H8.8501V69.6021H10.0101V69.7521H9.03009V71.1321V71.1421ZM9.0101 70.3621H9.90012V70.5121H9.0101V70.3621Z" fill="white"/>
<path d="M10.4702 71.2921V69.6021H10.6202L11.7802 71.072H11.7102V69.6021H11.8802V71.2921H11.7402L10.5702 69.822H10.6502V71.2921H10.4702Z" fill="white"/>
<path d="M12.9 71.3118C12.77 71.3118 12.65 71.2918 12.54 71.2518C12.42 71.2118 12.34 71.1618 12.27 71.0918L12.34 70.9518C12.4 71.0118 12.48 71.0618 12.58 71.1018C12.68 71.1418 12.79 71.1619 12.9 71.1619C13.01 71.1619 13.09 71.1518 13.16 71.1218C13.23 71.0918 13.28 71.0618 13.31 71.0118C13.34 70.9718 13.36 70.9218 13.36 70.8618C13.36 70.7918 13.34 70.7418 13.3 70.7018C13.26 70.6618 13.21 70.6318 13.15 70.6018C13.09 70.5818 13.02 70.5619 12.95 70.5419C12.88 70.5219 12.8 70.5018 12.73 70.4818C12.66 70.4618 12.59 70.4319 12.53 70.4019C12.47 70.3719 12.42 70.3219 12.38 70.2719C12.34 70.2119 12.32 70.1418 12.32 70.0518C12.32 69.9718 12.34 69.8918 12.39 69.8218C12.43 69.7518 12.5 69.6919 12.59 69.6519C12.68 69.6119 12.8 69.5918 12.94 69.5918C13.04 69.5918 13.13 69.6018 13.22 69.6318C13.31 69.6618 13.39 69.6918 13.46 69.7418L13.4 69.8818C13.33 69.8318 13.25 69.8019 13.17 69.7719C13.09 69.7519 13.01 69.7418 12.93 69.7418C12.83 69.7418 12.74 69.7519 12.68 69.7819C12.61 69.8119 12.57 69.8418 12.53 69.8918C12.5 69.9418 12.48 69.9918 12.48 70.0518C12.48 70.1218 12.5 70.1718 12.54 70.2118C12.58 70.2518 12.63 70.2818 12.69 70.3018C12.75 70.3218 12.82 70.3418 12.89 70.3618C12.96 70.3818 13.04 70.4018 13.11 70.4218C13.18 70.4418 13.25 70.4718 13.31 70.5018C13.37 70.5318 13.42 70.5818 13.46 70.6318C13.5 70.6818 13.52 70.7618 13.52 70.8518C13.52 70.9318 13.5 71.0118 13.45 71.0818C13.4 71.1518 13.34 71.2118 13.24 71.2518C13.15 71.2918 13.03 71.3118 12.88 71.3118" fill="white"/>
<path d="M13.6501 71.292L14.4201 69.6019H14.6001L15.3701 71.292H15.1801L14.4701 69.7019H14.5401L13.8301 71.292H13.6401H13.6501ZM13.9601 70.8419L14.0101 70.6919H14.9901L15.0401 70.8419H13.9501H13.9601ZM14.6801 69.4519C14.6801 69.4519 14.6101 69.4519 14.5801 69.4319C14.5501 69.4119 14.5301 69.4019 14.5001 69.3719C14.4801 69.3519 14.4501 69.3319 14.4301 69.3119C14.4101 69.2919 14.3801 69.292 14.3601 69.292C14.3201 69.292 14.2901 69.3019 14.2701 69.3319C14.2501 69.3619 14.2401 69.3919 14.2301 69.4419H14.1301C14.1301 69.3619 14.1501 69.292 14.1901 69.252C14.2301 69.202 14.2801 69.1819 14.3401 69.1819C14.3801 69.1819 14.4101 69.1819 14.4401 69.2019C14.4701 69.2219 14.5001 69.242 14.5201 69.262C14.5401 69.282 14.5701 69.3019 14.5901 69.3219C14.6101 69.3419 14.6401 69.3419 14.6601 69.3419C14.7001 69.3419 14.7301 69.3319 14.7501 69.3019C14.7701 69.2719 14.7901 69.2419 14.7901 69.1919H14.8901C14.8901 69.2719 14.8701 69.332 14.8301 69.382C14.7901 69.432 14.7401 69.4519 14.6801 69.4519Z" fill="white"/>
<path d="M16.37 71.3118C16.24 71.3118 16.12 71.2918 16.02 71.2518C15.91 71.2118 15.82 71.1518 15.74 71.0718C15.66 70.9918 15.6 70.9018 15.55 70.8018C15.51 70.7018 15.48 70.5818 15.48 70.4618C15.48 70.3418 15.5 70.2218 15.55 70.1218C15.59 70.0218 15.66 69.9318 15.74 69.8518C15.82 69.7718 15.91 69.7118 16.02 69.6718C16.13 69.6318 16.25 69.6118 16.38 69.6118C16.51 69.6118 16.62 69.6318 16.73 69.6718C16.84 69.7118 16.93 69.7718 17.01 69.8518C17.09 69.9318 17.15 70.0218 17.2 70.1218C17.24 70.2218 17.27 70.3418 17.27 70.4618C17.27 70.5818 17.25 70.7018 17.2 70.8018C17.16 70.9018 17.09 71.0018 17.01 71.0718C16.93 71.1518 16.84 71.2118 16.73 71.2518C16.62 71.2918 16.5 71.3118 16.38 71.3118M16.37 71.1519C16.47 71.1519 16.56 71.1318 16.65 71.1018C16.74 71.0718 16.81 71.0218 16.88 70.9518C16.94 70.8918 16.99 70.8118 17.03 70.7318C17.07 70.6518 17.08 70.5518 17.08 70.4518C17.08 70.3518 17.06 70.2618 17.03 70.1718C16.99 70.0918 16.94 70.0118 16.88 69.9518C16.82 69.8918 16.74 69.8418 16.65 69.8018C16.56 69.7718 16.47 69.7518 16.37 69.7518C16.27 69.7518 16.17 69.7718 16.09 69.8018C16 69.8318 15.93 69.8818 15.86 69.9518C15.8 70.0118 15.75 70.0918 15.71 70.1718C15.67 70.2618 15.66 70.3518 15.66 70.4518C15.66 70.5518 15.68 70.6418 15.71 70.7318C15.75 70.8218 15.8 70.8918 15.86 70.9518C15.92 71.0118 16 71.0618 16.09 71.1018C16.18 71.1418 16.27 71.1519 16.37 71.1519Z" fill="white"/>
<path d="M18.9798 71.312C18.7598 71.312 18.5898 71.2521 18.4698 71.1221C18.3498 70.9921 18.2798 70.812 18.2798 70.572V69.6021H18.4598V70.562C18.4598 70.762 18.5098 70.9121 18.5998 71.0021C18.6898 71.0921 18.8198 71.1421 18.9798 71.1421C19.1398 71.1421 19.2698 71.0921 19.3598 71.0021C19.4498 70.9021 19.4998 70.762 19.4998 70.562V69.6021H19.6698V70.572C19.6698 70.812 19.6098 71.0021 19.4898 71.1221C19.3698 71.2421 19.1998 71.312 18.9798 71.312Z" fill="white"/>
<path d="M20.21 71.2921V69.6021H20.36L21.52 71.072H21.45V69.6021H21.62V71.2921H21.4799L20.31 69.822H20.39V71.2921H20.21Z" fill="white"/>
<path d="M22.3602 69.6021H22.1802V71.2921H22.3602V69.6021Z" fill="white"/>
<path d="M23.3701 71.2921L22.6201 69.6021H22.8101L23.5101 71.192H23.4101L24.1101 69.6021H24.2901L23.5401 71.2921H23.3701Z" fill="white"/>
<path d="M24.72 71.1421H25.7401V71.2921H24.54V69.6021H25.7V69.7521H24.72V71.1321V71.1421ZM24.7 70.3621H25.5901V70.5121H24.7V70.3621Z" fill="white"/>
<path d="M26.1501 71.2921V69.6021H26.7801C26.9201 69.6021 27.0501 69.622 27.1501 69.672C27.2501 69.722 27.3301 69.7821 27.3901 69.8721C27.4401 69.9621 27.4701 70.062 27.4701 70.182C27.4701 70.302 27.4401 70.4021 27.3901 70.4921C27.3301 70.5821 27.2501 70.642 27.1501 70.692C27.0501 70.742 26.9201 70.7621 26.7801 70.7621H26.2401L26.3201 70.682V71.302H26.1401L26.1501 71.2921ZM26.3301 70.692L26.2501 70.6021H26.7801C26.9501 70.6021 27.0801 70.5621 27.1701 70.4921C27.2601 70.4221 27.3001 70.312 27.3001 70.182C27.3001 70.052 27.2601 69.9421 27.1701 69.8721C27.0801 69.7921 26.9501 69.7621 26.7801 69.7621H26.2501L26.3301 69.682V70.702V70.692ZM27.3102 71.2921L26.8701 70.682H27.0602L27.5001 71.2921H27.3001H27.3102Z" fill="white"/>
<path d="M28.3702 71.3118C28.2402 71.3118 28.1202 71.2918 28.0102 71.2518C27.9002 71.2118 27.8102 71.1618 27.7402 71.0918L27.8102 70.9518C27.8702 71.0118 27.9502 71.0618 28.0502 71.1018C28.1502 71.1418 28.2602 71.1619 28.3702 71.1619C28.4802 71.1619 28.5602 71.1518 28.6302 71.1218C28.7002 71.0918 28.7502 71.0618 28.7802 71.0118C28.8102 70.9718 28.8302 70.9218 28.8302 70.8618C28.8302 70.7918 28.8102 70.7418 28.7702 70.7018C28.7302 70.6618 28.6802 70.6318 28.6202 70.6018C28.5602 70.5818 28.4902 70.5619 28.4202 70.5419C28.3502 70.5219 28.2702 70.5018 28.2002 70.4818C28.1302 70.4618 28.0602 70.4319 28.0002 70.4019C27.9402 70.3719 27.8902 70.3219 27.8502 70.2719C27.8102 70.2119 27.7902 70.1418 27.7902 70.0518C27.7902 69.9718 27.8102 69.8918 27.8602 69.8218C27.9002 69.7518 27.9702 69.6919 28.0602 69.6519C28.1502 69.6119 28.2702 69.5918 28.4102 69.5918C28.5102 69.5918 28.6002 69.6018 28.6902 69.6318C28.7802 69.6618 28.8602 69.6918 28.9302 69.7418L28.8702 69.8818C28.8002 69.8318 28.7202 69.8019 28.6402 69.7719C28.5602 69.7519 28.4802 69.7418 28.4002 69.7418C28.3002 69.7418 28.2102 69.7519 28.1502 69.7819C28.0802 69.8119 28.0402 69.8418 28.0002 69.8918C27.9702 69.9418 27.9502 69.9918 27.9502 70.0518C27.9502 70.1218 27.9702 70.1718 28.0102 70.2118C28.0502 70.2518 28.1002 70.2818 28.1602 70.3018C28.2202 70.3218 28.2902 70.3418 28.3602 70.3618C28.4302 70.3818 28.5102 70.4018 28.5802 70.4218C28.6502 70.4418 28.7202 70.4718 28.7802 70.5018C28.8402 70.5318 28.8902 70.5818 28.9302 70.6318C28.9702 70.6818 28.9902 70.7618 28.9902 70.8518C28.9902 70.9318 28.9702 71.0118 28.9202 71.0818C28.8702 71.1518 28.8102 71.2118 28.7102 71.2518C28.6202 71.2918 28.5002 71.3118 28.3502 71.3118" fill="white"/>
<path d="M29.5701 69.6021H29.3901V71.2921H29.5701V69.6021Z" fill="white"/>
<path d="M30.4501 71.2921V69.7621H29.8501V69.6021H31.2201V69.7621H30.6301V71.2921H30.4501Z" fill="white"/>
<path d="M31.1501 71.2921L31.9201 69.6021H32.1001L32.8701 71.2921H32.6801L31.9701 69.702H32.0401L31.3301 71.2921H31.1401H31.1501ZM31.4601 70.842L31.5101 70.692H32.4901L32.5401 70.842H31.4501H31.4601ZM31.8601 69.462L32.1901 69.1621H32.4201L32.0301 69.462H31.8601Z" fill="white"/>
<path d="M33.1599 71.2921V69.6021H33.7899C33.9299 69.6021 34.0599 69.622 34.1599 69.672C34.2599 69.722 34.3399 69.7821 34.3999 69.8721C34.4499 69.9621 34.4799 70.062 34.4799 70.182C34.4799 70.302 34.4499 70.4021 34.3999 70.4921C34.3399 70.5821 34.2599 70.642 34.1599 70.692C34.0599 70.742 33.9299 70.7621 33.7899 70.7621H33.2499L33.3299 70.682V71.302H33.1499L33.1599 71.2921ZM33.3399 70.692L33.2599 70.6021H33.7899C33.9599 70.6021 34.0899 70.5621 34.1799 70.4921C34.2699 70.4221 34.3099 70.312 34.3099 70.182C34.3099 70.052 34.2699 69.9421 34.1799 69.8721C34.0899 69.7921 33.9599 69.7621 33.7899 69.7621H33.2599L33.3399 69.682V70.702V70.692ZM34.3099 71.2921L33.8699 70.682H34.0599L34.4999 71.2921H34.2999H34.3099Z" fill="white"/>
<path d="M35.0799 69.6021H34.8999V71.2921H35.0799V69.6021Z" fill="white"/>
<path d="M35.3601 71.2921L36.1301 69.6021H36.3101L37.0801 71.2921H36.8901L36.1801 69.702H36.2501L35.5401 71.2921H35.3501H35.3601ZM35.6701 70.842L35.7201 70.702H36.7001L36.7501 70.842H35.6601H35.6701Z" fill="white"/>
<path d="M0.0400391 65.9019V54.1118H5.15005C6.21005 54.1118 7.12004 54.2818 7.88004 54.6218C8.64004 54.9618 9.23005 55.4518 9.65005 56.0918C10.0701 56.7318 10.2701 57.4918 10.2701 58.3818C10.2701 59.2718 10.0601 60.0119 9.65005 60.6519C9.23005 61.2919 8.64004 61.7818 7.88004 62.1218C7.12004 62.4618 6.21005 62.6318 5.15005 62.6318H1.56006L2.77005 61.4019V65.8818H0.0400391V65.9019ZM2.77005 61.7318L1.56006 60.4318H5.00003C5.84003 60.4318 6.47005 60.2518 6.89005 59.8918C7.31005 59.5318 7.51004 59.0318 7.51004 58.3918C7.51004 57.7518 7.30005 57.2318 6.89005 56.8718C6.47005 56.5118 5.84003 56.3318 5.00003 56.3318H1.56006L2.77005 55.0319V61.7118V61.7318Z" fill="white"/>
<path d="M10.0698 65.9019L15.3298 54.1118H18.0298L23.2998 65.9019H20.4398L16.1298 55.4918H17.2098L12.8798 65.9019H10.0798H10.0698ZM12.6898 63.3818L13.4098 61.3118H19.4798L20.2198 63.3818H12.6898Z" fill="white"/>
<path d="M24.52 65.9019V54.1118H29.88C31.16 54.1118 32.29 54.3518 33.27 54.8418C34.25 55.3318 35.01 56.0118 35.56 56.8918C36.11 57.7718 36.39 58.8018 36.39 60.0018C36.39 61.2018 36.12 62.2318 35.56 63.1118C35.01 63.9918 34.25 64.6819 33.27 65.1619C32.29 65.6519 31.16 65.8918 29.88 65.8918H24.52V65.9019ZM27.25 63.6619H29.74C30.53 63.6619 31.21 63.5118 31.79 63.2118C32.37 62.9118 32.82 62.4918 33.14 61.9418C33.46 61.3918 33.62 60.7518 33.62 60.0018C33.62 59.2518 33.46 58.6018 33.14 58.0618C32.82 57.5218 32.37 57.1018 31.79 56.8018C31.21 56.5018 30.53 56.3518 29.74 56.3518H27.25V63.6619Z" fill="white"/>
<path d="M41.1602 63.7118H47.5802V65.9019H38.4502V54.1118H47.3702V56.3018H41.1702V63.7118H41.1602ZM40.9602 58.8618H46.6402V60.9818H40.9602V58.8618Z" fill="white"/>
<path d="M48.29 65.9021L53.36 58.9121V60.9021L48.51 54.1221H51.61L54.9601 58.8521L53.66 58.8621L56.97 54.1221H59.9301L55.11 60.7821V58.832L60.22 65.9021H57.07L53.6 60.9021H54.8401L51.42 65.9021H48.29Z" fill="white"/>
</svg>
