<svg width="46" height="56" viewBox="0 0 46 56" fill="none" xmlns="http://www.w3.org/2000/svg">
<path d="M0.834961 50.3154C0.834961 47.7854 2.51496 45.4854 6.70496 45.4854V47.3954C3.83496 47.3954 2.89496 48.4754 2.81496 50.0354H6.68496V51.9354H2.80496V55.4354H0.834961V50.3154Z" fill="white"/>
<path d="M9.91508 51.7352C9.91508 53.1052 10.9251 53.5552 11.6951 53.5552C12.4651 53.5552 13.4751 53.0952 13.4751 51.7352V48.3252H15.4351V51.8352C15.4351 53.9552 13.9251 55.4352 11.6951 55.4352C9.46508 55.4352 7.95508 53.9552 7.95508 51.8352V48.3252H9.91508V51.7352Z" fill="white"/>
<path d="M21.0248 50.2051V48.3251H18.6048V45.4751H16.6548V51.8851C16.6548 53.7751 17.7048 55.4351 21.0248 55.4351V53.5551C19.3748 53.5551 18.6048 52.9751 18.6048 51.8751V50.1951H21.0248V50.2051Z" fill="white"/>
<path d="M24.0249 51.7352C24.0249 53.1052 25.0349 53.5552 25.8049 53.5552C26.5749 53.5552 27.5849 53.0952 27.5849 51.7352V48.3252H29.5449V51.8352C29.5449 53.9552 28.0349 55.4352 25.8049 55.4352C23.5749 55.4352 22.0649 53.9552 22.0649 51.8352V48.3252H24.0249V51.7352Z" fill="white"/>
<path d="M30.7852 48.3252H32.7352V52.4652L35.0452 48.3252H37.2852V52.4952H35.4352V50.5852L32.9152 55.4352H30.7852V48.3252Z" fill="white"/>
<path d="M42.0749 48.3252C44.6149 48.3252 45.8549 50.0752 45.8549 51.8752C45.8549 53.6752 44.6149 55.4252 42.0749 55.4252C39.5349 55.4252 38.2749 53.6752 38.2749 51.8752C38.2749 50.0752 39.5149 48.3252 42.0749 48.3252ZM42.0749 53.6552C42.9949 53.6552 43.8849 53.0752 43.8849 51.8752C43.8849 50.6752 43.0049 50.0952 42.0749 50.0952C41.1449 50.0952 40.2549 50.6752 40.2549 51.8752C40.2549 53.0752 41.1349 53.6552 42.0749 53.6552Z" fill="white"/>
<path d="M6.09496 40.9952H1.50496C1.56496 42.7652 2.80496 43.8752 4.55496 43.8752H6.09496V44.4252H4.55496C2.08496 44.4252 0.834961 42.6752 0.834961 40.8552C0.834961 39.0352 2.08496 37.2852 4.55496 37.2852H6.09496V37.8352H4.55496C2.76496 37.8352 1.68496 38.9652 1.51496 40.4352H6.08496V40.9852L6.09496 40.9952Z" fill="white"/>
<path d="M8.80488 41.6552H9.50488C10.5149 41.6552 10.9649 42.2852 10.9649 43.0452C10.9649 43.8052 10.5349 44.4352 9.50488 44.4352H7.25488V43.9752H9.42488C10.0849 43.9752 10.3649 43.6452 10.3649 43.0652C10.3649 42.4852 10.0949 42.1052 9.42488 42.1052H8.71488C7.70488 42.1052 7.25488 41.4752 7.25488 40.7152C7.25488 39.9552 7.68488 39.3252 8.71488 39.3252H10.7649V39.7852H8.80488C8.14488 39.7852 7.85488 40.1152 7.85488 40.6952C7.85488 41.2752 8.13488 41.6552 8.80488 41.6552Z" fill="white"/>
<path d="M14.6749 43.8952H15.9949V44.4252H14.6749C12.9149 44.4252 12.0249 43.1752 12.0249 41.8752C12.0249 40.5752 12.9149 39.3252 14.6749 39.3252H15.9949V39.8552H14.6749C13.4649 39.8552 12.6249 40.7252 12.6249 41.8752C12.6249 43.0252 13.4649 43.8952 14.6749 43.8952Z" fill="white"/>
<path d="M19.565 39.335C21.335 39.335 22.225 40.585 22.225 41.885C22.225 43.185 21.335 44.435 19.565 44.435C17.795 44.435 16.895 43.185 16.895 41.885C16.895 40.585 17.785 39.335 19.565 39.335ZM19.565 43.915C20.785 43.915 21.625 43.035 21.625 41.875C21.625 40.715 20.785 39.835 19.565 39.835C18.345 39.835 17.495 40.715 17.495 41.875C17.495 43.035 18.335 43.915 19.565 43.915Z" fill="white"/>
<path d="M24.1747 36.7852H23.5947V44.4252H24.1747V36.7852Z" fill="white"/>
<path d="M28.1749 44.4252C26.4149 44.4252 25.5249 43.1752 25.5249 41.8752C25.5249 40.5752 26.4149 39.3252 28.1749 39.3252H30.0549V44.4152H28.1749V44.4252ZM28.1749 43.9052H29.4749V39.8552H28.1749C26.9649 39.8552 26.1249 40.7252 26.1249 41.8852C26.1249 43.0452 26.9649 43.9152 28.1749 43.9152" fill="white"/>
<path d="M37.1251 44.4254C35.3651 44.4254 34.4751 43.1754 34.4751 41.8754C34.4751 40.5754 35.3651 39.3254 37.1251 39.3254H38.4251V36.7754H39.0051V44.4154H37.1251V44.4254ZM37.1251 43.9054H38.4251V39.8554H37.1251C35.9151 39.8554 35.0751 40.7254 35.0751 41.8854C35.0751 43.0454 35.9151 43.9154 37.1251 43.9154" fill="white"/>
<path d="M43.025 39.335C44.795 39.335 45.685 40.585 45.685 41.885C45.685 43.185 44.795 44.435 43.025 44.435C41.255 44.435 40.355 43.185 40.355 41.885C40.355 40.585 41.245 39.335 43.025 39.335ZM43.025 43.915C44.245 43.915 45.085 43.035 45.085 41.875C45.085 40.715 44.245 39.835 43.025 39.835C41.805 39.835 40.955 40.715 40.955 41.875C40.955 43.035 41.795 43.915 43.025 43.915Z" fill="white"/>
<path d="M23.1352 6.925V11.035C23.1352 11.115 23.1752 11.195 23.2452 11.245C23.4152 11.355 23.6352 11.245 23.6352 11.035V6.895C24.0652 6.775 24.3752 6.375 24.3752 5.905C24.3752 5.335 23.9152 4.875 23.3452 4.875C22.7752 4.875 22.3052 5.335 22.3052 5.905C22.3052 6.405 22.6552 6.815 23.1252 6.915M23.3552 5.335C23.6752 5.335 23.9352 5.595 23.9352 5.915C23.9352 6.235 23.6752 6.495 23.3552 6.495C23.0352 6.495 22.7752 6.235 22.7752 5.915C22.7752 5.595 23.0352 5.335 23.3552 5.335Z" fill="white"/>
<path d="M23.3951 11.3854C23.3251 11.3854 23.2651 11.3654 23.2051 11.3254C23.1051 11.2554 23.0451 11.1554 23.0451 11.0354V6.99541C22.5651 6.86541 22.2251 6.41541 22.2251 5.91541C22.2251 5.29541 22.7251 4.79541 23.3451 4.79541C23.9651 4.79541 24.4651 5.29541 24.4651 5.91541C24.4651 6.38541 24.1651 6.81541 23.7251 6.97541V11.0454C23.7251 11.1754 23.6551 11.2854 23.5451 11.3454C23.4951 11.3754 23.4351 11.3854 23.3851 11.3854M23.3551 4.97541C22.8351 4.97541 22.4151 5.39541 22.4151 5.91541C22.4151 6.35541 22.7251 6.74541 23.1651 6.83541H23.2351V11.0354C23.2351 11.0854 23.2651 11.1354 23.3051 11.1654C23.3651 11.2054 23.4251 11.2054 23.4751 11.1754C23.5251 11.1454 23.5551 11.0954 23.5551 11.0354V6.83541L23.6251 6.81541C24.0251 6.69541 24.3051 6.32541 24.3051 5.90541C24.3051 5.38541 23.8851 4.96541 23.3651 4.96541M23.3551 6.58541C22.9851 6.58541 22.6851 6.28541 22.6851 5.91541C22.6851 5.54541 22.9851 5.24541 23.3551 5.24541C23.7251 5.24541 24.0251 5.54541 24.0251 5.91541C24.0251 6.28541 23.7251 6.58541 23.3551 6.58541ZM23.3551 5.42541C23.0851 5.42541 22.8651 5.64541 22.8651 5.91541C22.8651 6.18541 23.0851 6.40541 23.3551 6.40541C23.6251 6.40541 23.8451 6.18541 23.8451 5.91541C23.8451 5.64541 23.6251 5.42541 23.3551 5.42541Z" fill="white"/>
<path d="M32.8649 14.855C32.7949 14.845 32.7249 14.835 32.6549 14.835C32.5449 14.835 32.4349 14.855 32.3249 14.885C31.9949 14.995 31.7449 15.265 31.6549 15.605H30.2749C30.0849 15.605 29.9349 15.755 29.9349 15.945V15.975V21.335C29.9349 21.645 29.8849 21.695 29.5749 21.695H25.3449C25.2049 21.695 25.0949 21.805 25.0949 21.945C25.0949 22.035 25.0949 22.125 25.0949 22.225C25.0949 22.985 25.0949 24.355 25.0949 25.095C24.7949 25.195 24.5749 25.465 24.5449 25.785C24.5449 25.805 24.5449 25.835 24.5449 25.855C24.5449 26.025 24.5949 26.175 24.6849 26.305C24.8349 26.515 25.0749 26.665 25.3549 26.665C25.7549 26.665 26.0849 26.375 26.1449 26.005C26.1449 25.955 26.1549 25.905 26.1549 25.855C26.1549 25.715 26.1149 25.585 26.0549 25.465C25.9549 25.285 25.7949 25.145 25.5949 25.085C25.5949 24.345 25.5949 22.975 25.5949 22.215H27.5949C28.2849 22.215 28.9749 22.215 29.6649 22.215C30.1449 22.215 30.4549 21.925 30.4549 21.475C30.4549 19.685 30.4549 17.905 30.4549 16.115H31.6549C31.7549 16.495 32.0549 16.785 32.4449 16.865C32.4749 16.865 32.4949 16.875 32.5249 16.875C32.5649 16.875 32.6149 16.875 32.6549 16.875C32.7549 16.875 32.8549 16.865 32.9449 16.835C32.9849 16.825 33.0249 16.805 33.0549 16.795C33.4249 16.635 33.6849 16.275 33.6849 15.845C33.6849 15.345 33.3349 14.925 32.8649 14.835M33.0449 16.295C32.9449 16.395 32.8049 16.445 32.6549 16.445C32.6049 16.445 32.5649 16.445 32.5149 16.425C32.3549 16.385 32.2149 16.275 32.1349 16.125C32.0949 16.045 32.0649 15.955 32.0649 15.865C32.0649 15.775 32.0849 15.675 32.1349 15.605C32.1949 15.495 32.2849 15.395 32.4049 15.345C32.4749 15.305 32.5649 15.295 32.6449 15.295C32.7549 15.295 32.8549 15.325 32.9449 15.375C33.1149 15.475 33.2249 15.665 33.2249 15.875C33.2249 16.045 33.1549 16.195 33.0349 16.305" fill="white"/>
<path d="M25.3251 26.765C25.0251 26.765 24.7451 26.615 24.5851 26.365C24.4851 26.215 24.4351 26.045 24.4351 25.865C24.4351 25.835 24.4351 25.8149 24.4351 25.785C24.4651 25.455 24.6751 25.165 24.9851 25.035C24.9851 24.285 24.9851 22.965 24.9851 22.235V21.955C24.9851 21.765 25.1351 21.615 25.3251 21.615H29.5551C29.8151 21.615 29.8251 21.615 29.8251 21.345V15.945C29.8251 15.705 30.0151 15.515 30.2551 15.515H31.5651C31.6751 15.185 31.9351 14.915 32.2751 14.805C32.4651 14.745 32.6651 14.725 32.8651 14.765C33.3851 14.875 33.7651 15.335 33.7651 15.865C33.7651 16.315 33.4951 16.725 33.0751 16.905C33.0351 16.925 32.9951 16.935 32.9551 16.945C32.8051 16.985 32.6451 17.005 32.4951 16.985C32.4651 16.985 32.4351 16.985 32.4051 16.975C32.0151 16.895 31.6951 16.605 31.5751 16.225H30.5351C30.5351 17.985 30.5351 19.735 30.5351 21.495C30.5351 21.995 30.1751 22.325 29.6551 22.325H25.6751C25.6751 23.075 25.6751 24.3149 25.6751 25.035C25.8651 25.115 26.0251 25.255 26.1251 25.435C26.1951 25.565 26.2351 25.715 26.2351 25.865C26.2351 25.915 26.2351 25.9749 26.2151 26.025C26.1351 26.455 25.7651 26.765 25.3351 26.765M25.3351 21.795C25.2451 21.795 25.1751 21.865 25.1751 21.955V22.235C25.1751 22.995 25.1751 24.365 25.1751 25.105V25.175L25.1151 25.195C24.8451 25.285 24.6551 25.525 24.6251 25.815C24.6251 25.835 24.6251 25.8549 24.6251 25.875C24.6251 26.015 24.6651 26.155 24.7451 26.275C24.8751 26.4749 25.1051 26.595 25.3351 26.595C25.6851 26.595 25.9751 26.345 26.0451 26.005C26.0451 25.965 26.0551 25.915 26.0551 25.875C26.0551 25.755 26.0251 25.635 25.9651 25.535C25.8751 25.375 25.7351 25.255 25.5651 25.195L25.5051 25.175V25.105C25.5051 24.365 25.5051 22.995 25.5051 22.235V22.145H29.6651C30.0951 22.145 30.3651 21.885 30.3651 21.495C30.3651 19.705 30.3651 17.925 30.3651 16.135V16.045H31.7151L31.7351 16.115C31.8251 16.455 32.1051 16.725 32.4551 16.795C32.4751 16.795 32.5051 16.795 32.5251 16.805C32.6451 16.825 32.7851 16.805 32.9151 16.775C32.9551 16.775 32.9851 16.755 33.0151 16.735C33.3651 16.585 33.5951 16.245 33.5951 15.865C33.5951 15.415 33.2751 15.035 32.8451 14.945C32.6751 14.915 32.5051 14.925 32.3551 14.975C32.0551 15.075 31.8251 15.325 31.7451 15.625L31.7251 15.695H30.2751C30.1351 15.695 30.0251 15.805 30.0251 15.945V21.345C30.0251 21.705 29.9351 21.795 29.5751 21.795H25.3451H25.3351ZM32.6551 16.535C32.6051 16.535 32.5451 16.535 32.4951 16.515C32.3051 16.465 32.1451 16.345 32.0651 16.175C32.0151 16.085 31.9951 15.975 31.9951 15.865C31.9951 15.755 32.0251 15.655 32.0651 15.555C32.1351 15.425 32.2451 15.315 32.3751 15.255C32.5751 15.165 32.8151 15.175 33.0051 15.295C33.2051 15.415 33.3251 15.635 33.3251 15.865C33.3251 16.055 33.2451 16.235 33.1051 16.355C32.9851 16.465 32.8251 16.535 32.6551 16.535ZM32.6551 15.375C32.5851 15.375 32.5151 15.395 32.4451 15.425C32.3451 15.475 32.2651 15.545 32.2151 15.645C32.1751 15.715 32.1651 15.785 32.1651 15.865C32.1651 15.945 32.1851 16.025 32.2151 16.085C32.2851 16.215 32.3951 16.305 32.5351 16.335C32.6951 16.375 32.8651 16.335 32.9851 16.225C33.0851 16.135 33.1451 16.005 33.1451 15.865C33.1451 15.695 33.0551 15.535 32.9151 15.445C32.8351 15.395 32.7551 15.375 32.6651 15.375" fill="white"/>
<path d="M25.0849 8.27533C25.0849 9.32533 25.0849 10.1953 25.0849 11.0053V11.5853C25.0849 11.5853 25.0849 11.5853 25.0949 11.5853C25.1149 11.5853 25.1249 11.5753 25.1449 11.5653C25.2949 11.5053 25.4349 11.4453 25.5849 11.3953C25.5849 11.3953 25.5949 11.3953 25.6049 11.3953C26.0749 11.2353 26.5649 11.1353 27.0749 11.0853C27.2449 11.0653 27.4049 11.0553 27.5849 11.0553C27.6349 11.0553 27.6749 11.0553 27.7249 11.0553C27.9449 11.0553 28.1749 11.1053 28.4049 11.1153C28.5549 11.1153 28.5949 11.1953 28.5949 11.3453C28.5949 12.4453 28.5949 13.5553 28.5949 14.6553V17.1253C28.5949 17.2653 28.7049 17.3753 28.8449 17.3753H28.8649C29.0049 17.3753 29.1249 17.2653 29.1249 17.1253V16.9053C29.1249 16.7353 29.1249 16.5653 29.1249 16.4053V14.4853C29.1249 14.0153 29.1249 13.5353 29.1249 13.0553V12.5753V12.0453C29.1249 11.6853 29.1249 11.3453 29.1249 11.0053C29.1249 10.8353 29.0549 10.7253 28.8849 10.6853C28.5849 10.6253 28.2849 10.5453 27.9749 10.5353C27.8449 10.5353 27.7149 10.5353 27.5849 10.5353C27.4149 10.5353 27.2449 10.5453 27.0749 10.5653C26.5749 10.6053 26.0849 10.7053 25.6049 10.8553C25.6049 10.8553 25.5949 10.8553 25.5849 10.8553C25.5849 10.0853 25.5849 9.27533 25.5849 8.29533C25.7249 8.25533 25.8449 8.16533 25.9449 8.05533C26.0649 7.92533 26.1349 7.74533 26.1449 7.55533C26.1449 7.55533 26.1449 7.53533 26.1449 7.52533C26.1449 7.07533 25.7849 6.71533 25.3349 6.71533C24.9949 6.71533 24.6949 6.92533 24.5849 7.22533C24.5449 7.31533 24.5249 7.41533 24.5249 7.51533C24.5249 7.60533 24.5349 7.68533 24.5649 7.75533C24.6449 8.00533 24.8349 8.19533 25.0849 8.27533Z" fill="white"/>
<path d="M28.8448 17.4452C28.7548 17.4452 28.6648 17.4152 28.6048 17.3452C28.5348 17.2852 28.5048 17.1952 28.5048 17.1052V13.8752C28.5048 13.0252 28.5048 12.1752 28.5048 11.3252C28.5048 11.2052 28.4848 11.1952 28.3948 11.1852C28.2948 11.1852 28.1948 11.1652 28.1048 11.1552C27.9748 11.1352 27.8548 11.1252 27.7248 11.1252C27.6748 11.1252 27.6348 11.1252 27.5848 11.1252C27.4148 11.1252 27.2548 11.1452 27.0848 11.1552C26.5948 11.2052 26.1048 11.3052 25.6348 11.4652L25.5848 11.3852L25.6148 11.4652C25.4648 11.5152 25.3248 11.5652 25.1748 11.6352L25.1148 11.6652L24.9948 11.7252V10.9452C24.9948 10.1552 24.9948 9.32521 24.9948 8.32521C24.7548 8.22521 24.5648 8.01521 24.4848 7.76521C24.4548 7.67521 24.4448 7.58521 24.4448 7.49521C24.4448 7.38521 24.4648 7.27521 24.5048 7.16521C24.6348 6.82521 24.9748 6.59521 25.3448 6.59521C25.8348 6.59521 26.2448 6.99521 26.2448 7.49521C26.2448 7.50521 26.2448 7.51521 26.2448 7.52521C26.2448 7.72521 26.1548 7.92521 26.0248 8.08521C25.9348 8.19521 25.8148 8.27521 25.6948 8.32521C25.6948 9.21521 25.6948 9.98521 25.6948 10.6952C26.1448 10.5652 26.6148 10.4752 27.0848 10.4352C27.2548 10.4252 27.4248 10.4152 27.5948 10.4052C27.7348 10.4052 27.8648 10.4052 27.9948 10.4052C28.2448 10.4052 28.4848 10.4652 28.7248 10.5152C28.7848 10.5252 28.8548 10.5452 28.9148 10.5552C29.1148 10.5952 29.2248 10.7452 29.2248 10.9552C29.2248 11.1952 29.2248 11.4252 29.2248 11.6652V11.9952C29.2248 12.0152 29.2248 12.0452 29.2248 12.0752V16.3452C29.2248 16.5152 29.2248 16.6852 29.2248 16.8452V17.0652C29.2248 17.1552 29.1848 17.2352 29.1248 17.3052C29.0548 17.3752 28.9748 17.4052 28.8748 17.4052H28.8448M27.7548 10.9552C27.8848 10.9552 28.0148 10.9752 28.1348 10.9852C28.2248 10.9952 28.3248 11.0052 28.4148 11.0152C28.6648 11.0252 28.6948 11.1952 28.6948 11.3352C28.6948 12.1852 28.6948 13.0352 28.6948 13.8852V17.1152C28.6948 17.1152 28.7148 17.1952 28.7448 17.2252C28.7748 17.2552 28.8248 17.2752 28.8648 17.2752H28.8848C28.8848 17.2752 28.9748 17.2552 29.0048 17.2252C29.0348 17.1952 29.0548 17.1552 29.0548 17.1152V16.8952C29.0548 16.7252 29.0548 16.5552 29.0548 16.3952V11.7052C29.0548 11.4652 29.0548 11.2252 29.0548 10.9952C29.0548 10.8252 28.9648 10.7852 28.8948 10.7652C28.8248 10.7552 28.7648 10.7352 28.6948 10.7252C28.4648 10.6752 28.2248 10.6252 27.9948 10.6152C27.8648 10.6152 27.7448 10.6152 27.6048 10.6152C27.4448 10.6152 27.2748 10.6252 27.1048 10.6452C26.6148 10.6852 26.1248 10.7852 25.6548 10.9252L25.5148 10.9752V10.8452C25.5148 10.0752 25.5148 9.26521 25.5148 8.29521V8.22521L25.5748 8.20521C25.6948 8.16521 25.8048 8.09521 25.8948 7.99521C26.0048 7.87521 26.0648 7.71521 26.0748 7.54521V7.52521C26.0748 7.12521 25.7548 6.80521 25.3548 6.80521C25.0648 6.80521 24.7948 6.98521 24.6848 7.26521C24.6548 7.34521 24.6348 7.43521 24.6348 7.52521C24.6348 7.59521 24.6448 7.67521 24.6648 7.74521C24.7348 7.96521 24.9048 8.13521 25.1248 8.21521L25.1848 8.23521V8.30521C25.1848 9.35521 25.1848 10.2152 25.1848 11.0352V11.4852C25.3148 11.4352 25.4448 11.3852 25.5748 11.3452H25.5948C26.0748 11.1752 26.5748 11.0752 27.0748 11.0252C27.2448 11.0052 27.4148 10.9952 27.5848 10.9952C27.6348 10.9952 27.6748 10.9952 27.7248 10.9952H27.7448" fill="white"/>
<path d="M23.6448 12.5351C23.6448 12.5351 23.6448 12.4751 23.6448 12.4451C23.6148 12.2251 23.4748 12.0151 23.2748 11.8651C23.2648 11.8651 23.2548 11.8551 23.2448 11.8451C23.2448 11.8451 23.2248 11.8351 23.2148 11.8251C23.1948 11.8151 23.1848 11.8051 23.1648 11.7851C23.1648 11.7851 23.1548 11.7851 23.1448 11.7751C22.6848 11.4551 22.2048 11.2051 21.6848 11.0051C21.6848 11.0051 21.6748 11.0051 21.6648 11.0051C21.5348 10.9551 21.3948 10.9051 21.2648 10.8651C21.2348 10.8651 21.2148 10.8451 21.1848 10.8451H21.1648C20.6848 10.7051 20.2048 10.5951 19.7148 10.5451C19.5448 10.5251 19.3748 10.5151 19.2048 10.5151C18.8648 10.5151 18.5248 10.5351 18.1748 10.6051C17.6048 10.7151 17.6348 10.7551 17.6448 11.2451C17.6448 11.3351 17.6448 11.4251 17.6448 11.5251V12.2651C17.3848 12.3651 17.1948 12.6151 17.1948 12.9151C17.1948 12.9351 17.1948 12.9551 17.1948 12.9751C17.2048 13.1351 17.2748 13.2851 17.3848 13.3951C17.4548 13.4651 17.5448 13.5251 17.6448 13.5651C17.6448 13.5651 17.6548 13.5651 17.6648 13.5651C17.6648 13.5651 17.6748 13.5651 17.6848 13.5651C17.6848 13.5651 17.7048 13.5651 17.7148 13.5651C17.7148 13.5651 17.7348 13.5651 17.7448 13.5651C17.7448 13.5651 17.7648 13.5651 17.7748 13.5651C17.7848 13.5651 17.7948 13.5651 17.8048 13.5651C17.8048 13.5651 17.8148 13.5651 17.8248 13.5651C17.8448 13.5651 17.8648 13.5651 17.8848 13.5651C17.9648 13.5651 18.0348 13.5551 18.1048 13.5251C18.1348 13.5251 18.1548 13.5051 18.1848 13.4951C18.3548 13.4151 18.4848 13.2751 18.5448 13.0951C18.5648 13.0251 18.5848 12.9451 18.5848 12.8751C18.5848 12.7951 18.5648 12.7151 18.5448 12.6351C18.4848 12.4651 18.3548 12.3251 18.1848 12.2451C18.1848 12.0651 18.1848 11.8851 18.1848 11.7151V11.3151C18.1848 11.1651 18.2248 11.1151 18.3748 11.0851C18.6548 11.0351 18.9348 11.0151 19.2048 11.0251C19.3748 11.0251 19.5448 11.0451 19.7148 11.0651C20.0048 11.0951 20.2948 11.1551 20.5848 11.2251C20.7848 11.2751 20.9748 11.3251 21.1648 11.3851C21.1648 11.3851 21.1748 11.3851 21.1848 11.3851C21.3448 11.4351 21.5148 11.5051 21.6748 11.5651C21.6748 11.5651 21.6848 11.5651 21.6948 11.5651C22.1648 11.7651 22.6048 12.0151 23.0248 12.3151C23.0748 12.3551 23.1348 12.4351 23.1348 12.5051C23.1348 14.9551 23.1348 17.4051 23.1348 19.8651C23.1348 20.0051 23.2348 20.1251 23.3748 20.1451C23.5348 20.1551 23.6648 20.0351 23.6648 19.8851V18.8751C23.6648 16.7851 23.6648 14.6951 23.6648 12.6151V12.5851C23.6648 12.5851 23.6648 12.5451 23.6648 12.5251" fill="white"/>
<path d="M23.385 20.255C23.385 20.255 23.365 20.255 23.355 20.255C23.175 20.235 23.035 20.075 23.035 19.885C23.035 17.435 23.035 14.985 23.035 12.525C23.035 12.495 23.005 12.435 22.965 12.405C22.555 12.105 22.115 11.855 21.655 11.665L21.675 11.575L21.645 11.655C21.495 11.595 21.335 11.535 21.165 11.475H21.145C20.965 11.405 20.765 11.355 20.565 11.305C20.255 11.235 19.965 11.185 19.705 11.155C19.535 11.135 19.365 11.125 19.205 11.115C18.915 11.115 18.655 11.125 18.385 11.175C18.275 11.195 18.265 11.205 18.265 11.315V12.195C18.425 12.285 18.555 12.435 18.615 12.605C18.645 12.685 18.665 12.775 18.665 12.875C18.665 12.965 18.645 13.045 18.625 13.125C18.555 13.325 18.415 13.485 18.215 13.575C18.185 13.585 18.155 13.595 18.125 13.605C18.025 13.635 17.915 13.655 17.815 13.645H17.795C17.795 13.645 17.765 13.645 17.745 13.645H17.715C17.715 13.645 17.685 13.635 17.675 13.635C17.665 13.635 17.655 13.635 17.645 13.635H17.615H17.535V13.605C17.455 13.565 17.375 13.505 17.305 13.435C17.185 13.305 17.105 13.135 17.085 12.955C17.085 12.935 17.085 12.915 17.085 12.895C17.085 12.595 17.265 12.315 17.535 12.185V11.505C17.535 11.415 17.535 11.325 17.535 11.225V11.155C17.535 10.695 17.565 10.615 18.135 10.505C18.475 10.435 18.825 10.405 19.185 10.415C19.355 10.415 19.525 10.425 19.695 10.445C20.155 10.495 20.635 10.595 21.165 10.755V10.845L21.185 10.755L21.265 10.785C21.395 10.825 21.535 10.875 21.675 10.925H21.695C22.215 11.135 22.715 11.395 23.175 11.715L23.265 11.785L23.295 11.805C23.525 11.975 23.675 12.205 23.705 12.445V12.465C23.705 12.465 23.705 12.515 23.705 12.545V12.565C23.705 12.575 23.705 12.595 23.705 12.605V12.645C23.705 14.735 23.705 16.815 23.705 18.905V19.915C23.705 20.015 23.665 20.105 23.585 20.175C23.515 20.235 23.435 20.265 23.345 20.265M21.205 11.315C21.375 11.375 21.535 11.435 21.695 11.495H21.715C22.185 11.705 22.635 11.955 23.055 12.265C23.125 12.315 23.205 12.425 23.205 12.525C23.205 14.975 23.205 17.425 23.205 19.885C23.205 19.985 23.275 20.065 23.365 20.075C23.415 20.075 23.465 20.065 23.505 20.035C23.545 20.005 23.565 19.955 23.565 19.905V18.895C23.565 16.805 23.565 14.715 23.565 12.635V12.595C23.565 12.595 23.565 12.555 23.565 12.535C23.565 12.515 23.565 12.485 23.565 12.465V12.445C23.535 12.265 23.415 12.075 23.225 11.945C23.225 11.945 23.205 11.935 23.195 11.925L23.115 11.865L23.145 11.775L23.095 11.845C22.655 11.535 22.165 11.285 21.655 11.085V10.995L21.635 11.085C21.495 11.035 21.365 10.985 21.235 10.945L21.155 10.925V10.835L21.135 10.925C20.615 10.765 20.145 10.675 19.705 10.625C19.535 10.605 19.375 10.595 19.205 10.595C18.855 10.595 18.525 10.625 18.195 10.685C17.8883 10.745 17.735 10.905 17.735 11.165V11.235C17.735 11.325 17.735 11.425 17.735 11.515V12.315L17.675 12.335C17.445 12.425 17.285 12.645 17.285 12.895C17.285 12.915 17.285 12.925 17.285 12.945C17.295 13.085 17.355 13.215 17.455 13.315C17.515 13.385 17.595 13.435 17.675 13.465L17.785 13.495C17.785 13.495 17.805 13.495 17.815 13.495V13.585L17.835 13.495C17.915 13.495 17.995 13.495 18.075 13.465C18.095 13.465 18.115 13.445 18.145 13.435C18.295 13.365 18.405 13.235 18.455 13.085C18.475 13.025 18.485 12.955 18.485 12.885C18.485 12.815 18.475 12.745 18.445 12.675C18.395 12.525 18.275 12.405 18.135 12.335L18.085 12.315V11.315C18.085 11.125 18.155 11.035 18.345 10.995C18.625 10.945 18.905 10.925 19.195 10.935C19.355 10.935 19.535 10.945 19.705 10.975C19.975 11.005 20.265 11.055 20.585 11.135C20.785 11.185 20.985 11.235 21.175 11.305V11.395L21.195 11.305L21.205 11.315Z" fill="white"/>
<path d="M20.8052 8.06531C20.8952 8.15531 21.0052 8.23531 21.1352 8.27531C21.1352 8.94531 21.1352 9.54531 21.1452 10.1253C21.1452 10.2353 21.2152 10.3253 21.3152 10.3653C21.4752 10.4153 21.6352 10.2953 21.6352 10.1253C21.6352 9.55531 21.6352 8.95531 21.6252 8.27531C21.8652 8.19531 22.0552 8.00531 22.1352 7.76531C22.1652 7.68531 22.1752 7.59531 22.1752 7.50531C22.1752 7.40531 22.1552 7.31531 22.1252 7.22531C22.0152 6.91531 21.7152 6.69531 21.3652 6.69531C20.9152 6.69531 20.5552 7.05531 20.5552 7.50531C20.5552 7.52531 20.5552 7.54531 20.5552 7.57531C20.5652 7.76531 20.6552 7.93531 20.7752 8.06531" fill="white"/>
<path d="M21.4049 10.465C21.4049 10.465 21.3349 10.465 21.3049 10.445C21.1549 10.395 21.0649 10.265 21.0549 10.115C21.0549 9.56498 21.0549 8.97498 21.0449 8.33498C20.9349 8.28498 20.8249 8.21498 20.7349 8.12498C20.5949 7.97498 20.5049 7.78498 20.4849 7.57498C20.4849 7.55498 20.4849 7.52498 20.4849 7.50498C20.4849 7.00498 20.8849 6.60498 21.3849 6.60498C21.7649 6.60498 22.0949 6.84498 22.2249 7.19498C22.2649 7.29498 22.2749 7.39498 22.2749 7.50498C22.2749 7.60498 22.2549 7.70498 22.2249 7.79498C22.1449 8.03498 21.9549 8.23498 21.7249 8.33498C21.7249 8.98498 21.7249 9.56498 21.7349 10.115C21.7349 10.225 21.6849 10.325 21.5949 10.385C21.5349 10.425 21.4649 10.455 21.3949 10.455M21.3849 6.79498C20.9849 6.79498 20.6649 7.11498 20.6649 7.51498C20.6649 7.53498 20.6649 7.55498 20.6649 7.57498C20.6749 7.73498 20.7449 7.89498 20.8649 8.01498C20.9449 8.09498 21.0449 8.16498 21.1549 8.19498L21.2149 8.21498V8.27498C21.2149 8.94498 21.2249 9.54498 21.2249 10.125C21.2249 10.195 21.2749 10.255 21.3349 10.275C21.3849 10.295 21.4449 10.275 21.4849 10.255C21.5249 10.225 21.5449 10.175 21.5449 10.125C21.5449 9.55498 21.5449 8.95498 21.5349 8.27498V8.20498L21.5949 8.18498C21.8049 8.11498 21.9749 7.94498 22.0449 7.73498C22.0749 7.65498 22.0849 7.58498 22.0849 7.50498C22.0849 7.41498 22.0749 7.33498 22.0449 7.25498C21.9449 6.97498 21.6749 6.78498 21.3749 6.78498" fill="white"/>
<path d="M23.625 26.4751V22.2351C23.625 22.0451 23.905 21.8451 24.045 21.7651C24.475 21.5251 24.945 21.3451 25.415 21.1651C25.875 20.9851 26.345 20.8651 26.825 20.7951C26.915 20.7851 26.995 20.7751 27.085 20.7651C27.255 20.7451 27.415 20.7351 27.595 20.7351C27.675 20.7351 27.745 20.7351 27.815 20.7351C28.115 20.7351 28.415 20.8051 28.705 20.8651C28.985 20.9251 29.125 20.8251 29.125 20.5351C29.125 20.2651 29.125 19.9851 29.125 19.7151C29.125 19.5351 29.125 19.3651 29.125 19.1851C29.305 19.1151 29.455 18.9551 29.515 18.7651C29.545 18.6951 29.555 18.6151 29.555 18.5451C29.555 18.4651 29.535 18.3851 29.515 18.3051C29.445 18.1251 29.305 17.9751 29.125 17.9051C29.045 17.8751 28.955 17.8551 28.865 17.8551C28.765 17.8551 28.675 17.8751 28.585 17.9151C28.345 18.0251 28.175 18.2651 28.175 18.5451C28.175 18.5651 28.175 18.5851 28.175 18.6051C28.185 18.7651 28.255 18.9151 28.365 19.0251C28.425 19.0951 28.505 19.1451 28.585 19.1751V19.7051C28.585 19.8151 28.585 19.9351 28.585 20.0451V20.2651C28.245 20.2151 27.905 20.1951 27.575 20.1951C27.405 20.1951 27.235 20.1951 27.065 20.2151C26.555 20.2551 26.055 20.3651 25.565 20.5151C25.395 20.5651 25.225 20.6251 25.065 20.6951C24.675 20.8451 24.305 21.0351 23.935 21.2451C23.865 21.2851 23.785 21.3251 23.715 21.3751C23.675 21.4051 23.625 21.4151 23.565 21.4151H23.165C23.115 21.4151 23.065 21.3951 23.025 21.3751C22.955 21.3351 22.885 21.2951 22.815 21.2551C22.425 21.0351 22.035 20.8451 21.635 20.6851C21.465 20.6251 21.305 20.5651 21.135 20.5051C20.665 20.3551 20.185 20.2551 19.695 20.2151C19.525 20.1951 19.355 20.1951 19.185 20.1851C18.855 20.1851 18.515 20.1951 18.175 20.2451C18.175 20.1851 18.175 20.1251 18.175 20.0751C18.175 18.1551 18.175 16.2351 18.175 14.3151C18.175 14.1851 18.065 14.0751 17.935 14.0851C17.915 14.0851 17.895 14.0851 17.885 14.0851C17.755 14.0851 17.645 14.1951 17.645 14.3251V20.5151C17.645 20.8351 17.775 20.9251 18.085 20.8451C18.255 20.8051 18.425 20.7651 18.605 20.7451C18.805 20.7251 19.005 20.7151 19.205 20.7151C19.375 20.7151 19.545 20.7251 19.715 20.7451C20.205 20.7951 20.685 20.9151 21.155 21.0651C21.235 21.0951 21.305 21.1151 21.385 21.1451C21.395 21.1451 21.415 21.1551 21.425 21.1551C21.505 21.1851 21.585 21.2151 21.665 21.2551C21.815 21.3051 21.985 21.3751 22.135 21.4451C22.485 21.6051 22.935 21.7151 23.105 22.0951C23.115 22.1251 23.125 22.1551 23.135 22.1851C23.135 22.1851 23.135 22.1951 23.135 22.2051V26.4251C22.665 26.5251 22.315 26.9351 22.315 27.4351C22.315 28.0051 22.775 28.4651 23.355 28.4651C23.935 28.4651 24.385 28.0051 24.385 27.4351C24.385 26.9651 24.075 26.5651 23.645 26.4451M23.335 28.0451C23.015 28.0451 22.755 27.7851 22.755 27.4651C22.755 27.1451 23.015 26.8851 23.335 26.8851C23.655 26.8851 23.915 27.1451 23.915 27.4651C23.915 27.7851 23.655 28.0451 23.335 28.0451Z" fill="white"/>
<path d="M23.3352 28.5854C22.7152 28.5854 22.2152 28.0854 22.2152 27.4654C22.2152 26.9654 22.5552 26.5154 23.0352 26.3854V22.2354C23.0352 22.2354 23.0152 22.1854 23.0052 22.1554C22.8752 21.8754 22.5752 21.7554 22.2852 21.6354C22.2152 21.6054 22.1452 21.5754 22.0852 21.5554C21.9452 21.4954 21.7852 21.4254 21.6252 21.3654C21.5352 21.3254 21.4552 21.2954 21.3852 21.2654H21.3452C21.2652 21.2254 21.1952 21.1954 21.1152 21.1754C20.6252 21.0054 20.1552 20.9054 19.6952 20.8554C19.5252 20.8354 19.3652 20.8254 19.1952 20.8254C18.9952 20.8254 18.8052 20.8254 18.6052 20.8554C18.4552 20.8654 18.2952 20.9054 18.0952 20.9554C17.9052 21.0054 17.7752 20.9954 17.6752 20.9154C17.5852 20.8454 17.5352 20.7254 17.5352 20.5254V14.3354C17.5352 14.1554 17.6852 14.0054 17.8652 14.0054H17.9152C18.0052 14.0054 18.0852 14.0354 18.1452 14.0954C18.2052 14.1554 18.2452 14.2454 18.2452 14.3354C18.2452 15.6554 18.2452 16.9654 18.2452 18.2754V20.0954C18.2452 20.0954 18.2452 20.1454 18.2452 20.1654C18.5552 20.1254 18.8752 20.1154 19.1752 20.1154C19.3452 20.1154 19.5152 20.1254 19.6852 20.1454C20.1652 20.1854 20.6652 20.2854 21.1452 20.4354H21.1552C21.3152 20.4854 21.4852 20.5454 21.6552 20.6154C22.0552 20.7654 22.4552 20.9654 22.8552 21.1854C22.9252 21.2254 22.9952 21.2654 23.0652 21.3054C23.0952 21.3254 23.1352 21.3354 23.1652 21.3354H23.5652C23.5652 21.3354 23.6352 21.3354 23.6652 21.3054C23.7352 21.2654 23.8052 21.2254 23.8852 21.1854L23.9152 21.1654C24.2952 20.9454 24.6652 20.7754 25.0352 20.6254C25.2152 20.5554 25.3852 20.4954 25.5452 20.4454C26.0552 20.2854 26.5652 20.1754 27.0652 20.1354C27.2352 20.1254 27.4152 20.1154 27.5752 20.1154C27.8852 20.1154 28.1852 20.1354 28.4852 20.1754V19.2454C28.4152 19.2054 28.3452 19.1554 28.2852 19.0954C28.1652 18.9654 28.0852 18.7954 28.0752 18.6154C28.0752 18.5954 28.0752 18.5754 28.0752 18.5554C28.0752 18.2454 28.2552 17.9654 28.5452 17.8354C28.7352 17.7554 28.9552 17.7454 29.1452 17.8354C29.3452 17.9154 29.5052 18.0854 29.5852 18.2954C29.6152 18.3854 29.6352 18.4754 29.6352 18.5654C29.6352 18.6554 29.6252 18.7354 29.5952 18.8154C29.5252 19.0054 29.3952 19.1654 29.2052 19.2554V20.5454C29.2052 20.7154 29.1652 20.8354 29.0752 20.9054C28.9852 20.9754 28.8552 20.9954 28.6752 20.9654H28.6052C28.3352 20.8954 28.0652 20.8354 27.7952 20.8354C27.7252 20.8354 27.6452 20.8354 27.5752 20.8354C27.4052 20.8354 27.2352 20.8454 27.0752 20.8654C26.9852 20.8654 26.9052 20.8854 26.8252 20.8954C26.3552 20.9654 25.8952 21.0854 25.4252 21.2654L25.3252 21.3054C24.9052 21.4654 24.4652 21.6354 24.0752 21.8554C23.8952 21.9554 23.7052 22.1254 23.7052 22.2454V26.4254C24.1452 26.5854 24.4452 27.0054 24.4452 27.4854C24.4452 28.1054 23.9352 28.6054 23.3252 28.6054M19.1352 20.6354H19.2052C19.3752 20.6354 19.5452 20.6454 19.7152 20.6654C20.1852 20.7154 20.6652 20.8254 21.1752 20.9954C21.2552 21.0254 21.3352 21.0454 21.4052 21.0754H21.4452C21.5252 21.1154 21.6052 21.1554 21.6852 21.1854C21.8452 21.2354 22.0052 21.3154 22.1552 21.3754C22.2152 21.4054 22.2852 21.4354 22.3552 21.4554C22.6652 21.5754 23.0152 21.7254 23.1752 22.0754C23.1952 22.1054 23.2052 22.1454 23.2152 22.1754V22.2254L23.2252 26.5254H23.1552C22.7252 26.6354 22.4052 27.0154 22.4052 27.4654C22.4052 27.9854 22.8252 28.4054 23.3452 28.4054C23.8652 28.4054 24.2852 27.9854 24.2852 27.4654C24.2852 27.0454 24.0052 26.6754 23.6052 26.5554L23.5352 26.5354V22.2354C23.5352 21.9654 23.9252 21.7254 24.0052 21.6854C24.4152 21.4554 24.8552 21.2854 25.2852 21.1254L25.3852 21.0854C25.8552 20.9054 26.3452 20.7754 26.8252 20.7054C26.9152 20.6954 26.9952 20.6854 27.0852 20.6754C27.2452 20.6554 27.4252 20.6454 27.5952 20.6454C27.6752 20.6454 27.7452 20.6454 27.8252 20.6454C28.1052 20.6454 28.3952 20.7054 28.6652 20.7654H28.7352C28.8552 20.8054 28.9352 20.7954 28.9852 20.7654C29.0252 20.7254 29.0552 20.6554 29.0552 20.5454V19.1354L29.1152 19.1154C29.2752 19.0454 29.4052 18.9154 29.4552 18.7554C29.4752 18.6954 29.4852 18.6254 29.4852 18.5654C29.4852 18.5054 29.4752 18.4254 29.4452 18.3554C29.3852 18.1954 29.2652 18.0654 29.1052 18.0054C28.9552 17.9454 28.7852 17.9454 28.6452 18.0054C28.4252 18.1054 28.2852 18.3154 28.2852 18.5554C28.2852 18.5754 28.2852 18.5854 28.2852 18.6054C28.2952 18.7454 28.3552 18.8754 28.4452 18.9754C28.5052 19.0354 28.5652 19.0754 28.6352 19.1054L28.6852 19.1254V20.3754L28.5852 20.3554C28.2552 20.3054 27.9152 20.2854 27.5952 20.2854C27.4352 20.2854 27.2652 20.2854 27.0952 20.3054C26.6052 20.3454 26.1152 20.4454 25.6152 20.6054C25.4552 20.6554 25.2852 20.7154 25.1152 20.7854C24.7452 20.9354 24.3752 21.1054 23.9952 21.3254C23.9252 21.3754 23.8452 21.4154 23.7752 21.4554C23.7152 21.4854 23.6552 21.5054 23.5852 21.5054H23.1852C23.1152 21.5054 23.0552 21.4854 22.9952 21.4454C22.9252 21.4054 22.8552 21.3654 22.7852 21.3254C22.3952 21.1054 22.0052 20.9154 21.6152 20.7654C21.4452 20.6954 21.2752 20.6354 21.1152 20.5854H21.1052C20.6352 20.4354 20.1652 20.3454 19.6952 20.2954C19.5252 20.2754 19.3652 20.2654 19.1952 20.2654C18.8652 20.2654 18.5352 20.2754 18.1952 20.3254H18.0952V20.1854C18.0952 20.1454 18.0952 20.0954 18.0952 20.0554V18.2354C18.0952 16.9254 18.0952 15.6054 18.0952 14.2954C18.0952 14.2554 18.0752 14.2154 18.0552 14.1954C18.0252 14.1654 17.9852 14.1554 17.9552 14.1554C17.9352 14.1554 17.9152 14.1554 17.8952 14.1554C17.8152 14.1554 17.7452 14.2254 17.7452 14.3054V20.4954C17.7452 20.6254 17.7652 20.7054 17.8152 20.7354C17.8652 20.7754 17.9452 20.7754 18.0752 20.7354C18.2752 20.6854 18.4452 20.6554 18.6052 20.6354C18.7852 20.6154 18.9652 20.6054 19.1452 20.6054M23.3352 28.1354C22.9652 28.1354 22.6652 27.8354 22.6652 27.4654C22.6652 27.0954 22.9652 26.7954 23.3352 26.7954C23.7052 26.7954 24.0052 27.0954 24.0052 27.4654C24.0052 27.8354 23.7052 28.1354 23.3352 28.1354ZM23.3352 26.9754C23.0652 26.9754 22.8452 27.1954 22.8452 27.4654C22.8452 27.7354 23.0652 27.9554 23.3352 27.9554C23.6052 27.9554 23.8252 27.7354 23.8252 27.4654C23.8252 27.1954 23.6052 26.9754 23.3352 26.9754Z" fill="white"/>
<path d="M21.6247 25.105C21.6247 24.365 21.6347 22.995 21.6447 22.235C21.6447 22.145 21.6447 22.055 21.6447 21.965C21.6447 21.865 21.6047 21.785 21.5347 21.745C21.5247 21.745 21.5047 21.735 21.4947 21.725C21.4947 21.725 21.4847 21.725 21.4747 21.725C21.4647 21.725 21.4547 21.725 21.4447 21.715C21.4447 21.715 21.4347 21.715 21.4247 21.715C21.4247 21.715 21.4047 21.715 21.3947 21.715C21.3147 21.715 21.2347 21.715 21.1547 21.715C20.6747 21.715 20.1947 21.715 19.7147 21.715H19.2047C18.5147 21.715 17.8247 21.715 17.1347 21.715C16.9247 21.715 16.8547 21.645 16.8547 21.425C16.8547 21.075 16.8547 20.725 16.8547 20.375V17.805C16.8547 17.805 16.8547 17.775 16.8547 17.755C16.8547 17.295 16.8547 16.835 16.8547 16.375V16.135V15.945C16.8547 15.755 16.7047 15.605 16.5147 15.605H15.1447C15.0647 15.295 14.8347 15.035 14.5447 14.915C14.4247 14.865 14.2847 14.835 14.1447 14.835C14.1047 14.835 14.0547 14.835 14.0147 14.835C13.5047 14.895 13.1147 15.335 13.1147 15.855C13.1147 16.315 13.4147 16.705 13.8247 16.835C13.8647 16.845 13.8947 16.855 13.9347 16.865C14.0047 16.875 14.0747 16.885 14.1447 16.885C14.2147 16.885 14.2847 16.885 14.3547 16.865C14.3847 16.865 14.4047 16.855 14.4347 16.845C14.7747 16.745 15.0547 16.465 15.1447 16.115H16.3247V20.795V21.415C16.3247 21.915 16.6147 22.215 17.1147 22.215C17.8147 22.215 18.5047 22.215 19.2047 22.215H21.1447C21.1447 22.975 21.1347 24.355 21.1247 25.085C20.9447 25.145 20.7947 25.265 20.6947 25.425C20.6147 25.545 20.5747 25.695 20.5747 25.855C20.5747 25.885 20.5747 25.925 20.5747 25.955C20.6247 26.355 20.9647 26.665 21.3747 26.665C21.6647 26.665 21.9147 26.515 22.0547 26.295C22.1347 26.175 22.1847 26.025 22.1847 25.865C22.1847 25.835 22.1847 25.805 22.1847 25.775C22.1447 25.455 21.9247 25.195 21.6347 25.105M14.3447 16.405C14.2747 16.435 14.2047 16.445 14.1247 16.445C14.0047 16.445 13.8947 16.405 13.8047 16.345C13.6447 16.245 13.5447 16.065 13.5447 15.865C13.5447 15.625 13.6947 15.415 13.9047 15.325C13.9747 15.295 14.0447 15.285 14.1247 15.285C14.2447 15.285 14.3547 15.325 14.4447 15.375C14.5247 15.425 14.5947 15.505 14.6447 15.595C14.6847 15.675 14.7047 15.765 14.7047 15.855C14.7047 15.945 14.6847 16.045 14.6347 16.115C14.5747 16.235 14.4647 16.335 14.3347 16.385" fill="white"/>
<path d="M21.3749 26.7653C20.9249 26.7653 20.5349 26.4253 20.4849 25.9753C20.4849 25.9453 20.4849 25.9053 20.4849 25.8653C20.4849 25.6953 20.5349 25.5353 20.6249 25.3853C20.7249 25.2253 20.8749 25.1053 21.0449 25.0353C21.0449 24.3153 21.0549 23.0753 21.0549 22.3253H19.2049C18.5049 22.3253 17.8149 22.3253 17.1149 22.3253C16.5649 22.3253 16.2249 21.9953 16.2249 21.4353V16.2253H15.1949C15.0749 16.5753 14.7949 16.8453 14.4449 16.9453C14.4149 16.9453 14.3849 16.9653 14.3549 16.9653C14.2049 16.9953 14.0349 16.9953 13.8949 16.9653C13.8549 16.9653 13.8149 16.9453 13.7749 16.9353C13.3149 16.7853 13.0049 16.3553 13.0049 15.8653C13.0049 15.3053 13.4249 14.8253 13.9849 14.7453C14.1749 14.7153 14.3849 14.7453 14.5649 14.8253C14.8649 14.9553 15.0949 15.2053 15.1949 15.5053H16.4949C16.7349 15.5053 16.9249 15.7053 16.9249 15.9353V16.3553C16.9249 16.8153 16.9249 17.2753 16.9249 17.7353C16.9249 17.7553 16.9249 17.7753 16.9249 17.7953V20.3553C16.9249 20.7053 16.9249 21.0553 16.9249 21.4053C16.9249 21.5653 16.9549 21.6053 17.1149 21.6053H21.3849C21.3849 21.6053 21.4149 21.6053 21.4249 21.6053H21.4549C21.4549 21.6053 21.4849 21.6153 21.4949 21.6253C21.5049 21.6253 21.5149 21.6253 21.5149 21.6253C21.5349 21.6253 21.5549 21.6453 21.5649 21.6553C21.6649 21.7253 21.7249 21.8253 21.7249 21.9453V22.3153C21.7249 23.0653 21.7149 24.3153 21.7049 25.0353C22.0049 25.1553 22.2149 25.4353 22.2549 25.7653C22.2549 25.7953 22.2549 25.8353 22.2549 25.8653C22.2549 26.0353 22.2049 26.2053 22.1149 26.3453C21.9549 26.6053 21.6649 26.7653 21.3549 26.7653M19.1949 22.1453H21.2249V22.2353C21.2249 22.9953 21.2149 24.3753 21.2049 25.1053V25.1653L21.1449 25.1853C20.9849 25.2353 20.8549 25.3453 20.7649 25.4853C20.6949 25.5953 20.6549 25.7353 20.6549 25.8653C20.6549 25.8953 20.6549 25.9253 20.6549 25.9553C20.6949 26.3153 21.0049 26.5853 21.3649 26.5853C21.6149 26.5853 21.8349 26.4653 21.9749 26.2553C22.0449 26.1453 22.0849 26.0053 22.0849 25.8753C22.0849 25.8453 22.0849 25.8253 22.0849 25.7953C22.0549 25.5153 21.8649 25.2853 21.5949 25.1953L21.5349 25.1753V25.1053C21.5349 24.3653 21.5449 23.0053 21.5549 22.2353V21.9753C21.5549 21.9053 21.5249 21.8553 21.4849 21.8253C21.4749 21.8253 21.4649 21.8153 21.4549 21.8153C21.4349 21.8153 21.4349 21.8153 21.4249 21.8153H21.4049H21.1449H17.1249C16.8649 21.8153 16.7549 21.7053 16.7549 21.4353V17.8153C16.7549 17.8153 16.7549 17.7753 16.7549 17.7653C16.7549 17.3053 16.7549 16.8453 16.7549 16.3853V15.9653C16.7549 15.8253 16.6449 15.7153 16.5049 15.7153H15.0649L15.0449 15.6453C14.9749 15.3653 14.7649 15.1253 14.4949 15.0153C14.3449 14.9453 14.1649 14.9253 14.0049 14.9453C13.5349 15.0053 13.1849 15.4053 13.1849 15.8853C13.1849 16.2953 13.4449 16.6553 13.8349 16.7853C13.8649 16.7953 13.9049 16.8053 13.9349 16.8153C14.0549 16.8453 14.1949 16.8453 14.3249 16.8153C14.3549 16.8153 14.3749 16.8053 14.3949 16.7953C14.7149 16.7053 14.9549 16.4453 15.0449 16.1353L15.0649 16.0653H16.4049V21.4553C16.4049 21.9153 16.6549 22.1653 17.1149 22.1653C17.8149 22.1653 18.5049 22.1653 19.2049 22.1653M14.1249 16.5353C13.9949 16.5353 13.8649 16.4953 13.7549 16.4253C13.5649 16.3053 13.4549 16.0953 13.4549 15.8653C13.4549 15.5953 13.6149 15.3453 13.8749 15.2453C14.0749 15.1653 14.3049 15.1853 14.4949 15.3053C14.5949 15.3653 14.6749 15.4553 14.7249 15.5653C14.7749 15.6653 14.7949 15.7653 14.7949 15.8753C14.7949 15.9853 14.7649 16.0853 14.7149 16.1853C14.6449 16.3253 14.5149 16.4453 14.3749 16.5053C14.2949 16.5353 14.2149 16.5553 14.1249 16.5553M14.1249 15.3753C14.0649 15.3753 13.9949 15.3853 13.9449 15.4153C13.7549 15.4953 13.6349 15.6653 13.6349 15.8653C13.6349 16.0353 13.7149 16.1853 13.8549 16.2753C13.9849 16.3653 14.1549 16.3753 14.3049 16.3153C14.4149 16.2753 14.5049 16.1953 14.5549 16.0853C14.5849 16.0153 14.6049 15.9353 14.6049 15.8653C14.6049 15.7953 14.5849 15.7153 14.5549 15.6453C14.5149 15.5753 14.4549 15.5053 14.3849 15.4553C14.3049 15.4053 14.2149 15.3753 14.1149 15.3753" fill="white"/>
<path d="M22.2448 14.4752C22.3248 14.3552 22.2848 14.2052 22.1748 14.1252C21.7848 13.8652 21.3548 13.6652 20.8948 13.5352C20.3648 13.3852 19.8248 13.3152 19.2748 13.3452C19.1348 13.3452 19.0248 13.4752 19.0348 13.6152C19.0348 13.7552 19.1648 13.8652 19.3048 13.8552C19.7948 13.8252 20.2848 13.8852 20.7548 14.0252C21.1548 14.1452 21.5448 14.3252 21.8948 14.5552C21.9348 14.5852 21.9848 14.5952 22.0348 14.5952C22.1148 14.5952 22.1948 14.5552 22.2448 14.4852" fill="white"/>
<path d="M22.025 14.6753C21.955 14.6753 21.895 14.6553 21.835 14.6153C21.485 14.3853 21.115 14.2153 20.715 14.0953C20.255 13.9553 19.775 13.9053 19.295 13.9253C19.205 13.9253 19.115 13.9053 19.045 13.8353C18.975 13.7753 18.935 13.6853 18.935 13.5953C18.925 13.4053 19.075 13.2453 19.255 13.2353C19.815 13.2053 20.365 13.2753 20.905 13.4253C21.365 13.5653 21.805 13.7653 22.205 14.0253C22.285 14.0753 22.335 14.1553 22.355 14.2453C22.375 14.3353 22.355 14.4253 22.305 14.5053C22.245 14.6053 22.135 14.6553 22.015 14.6553M19.525 13.7453C19.945 13.7453 20.365 13.8053 20.775 13.9253C21.185 14.0453 21.575 14.2253 21.945 14.4653C22.015 14.5153 22.125 14.4953 22.165 14.4153C22.185 14.3753 22.195 14.3353 22.185 14.2953C22.185 14.2553 22.155 14.2153 22.115 14.1953C21.725 13.9453 21.305 13.7453 20.865 13.6153C20.345 13.4653 19.815 13.4053 19.275 13.4253C19.185 13.4253 19.115 13.5053 19.125 13.5953C19.125 13.6353 19.145 13.6753 19.175 13.7053C19.205 13.7353 19.255 13.7453 19.295 13.7453C19.375 13.7453 19.455 13.7453 19.525 13.7453Z" fill="white"/>
<path d="M21.9849 16.0754C21.5849 15.8154 21.1549 15.6154 20.7049 15.4854C20.1749 15.3354 19.6349 15.2654 19.0849 15.2954C18.9449 15.2954 18.8349 15.4254 18.8449 15.5554C18.8449 15.6954 18.9749 15.8054 19.1149 15.7954C19.6049 15.7654 20.0949 15.8254 20.5649 15.9654C20.9649 16.0854 21.3549 16.2654 21.7049 16.4954C21.7449 16.5254 21.7949 16.5354 21.8449 16.5354C21.9249 16.5354 22.0049 16.4954 22.0549 16.4254C22.1349 16.3054 22.0949 16.1554 21.9849 16.0754Z" fill="white"/>
<path d="M21.8449 16.6353C21.7749 16.6353 21.7149 16.6153 21.6549 16.5753C21.3049 16.3453 20.9349 16.1753 20.5349 16.0553C20.0749 15.9153 19.5949 15.8653 19.1149 15.8853C19.0249 15.8853 18.9349 15.8653 18.8649 15.7953C18.7949 15.7353 18.7549 15.6453 18.7549 15.5553C18.7549 15.4653 18.7849 15.3753 18.8449 15.3053C18.9049 15.2353 18.9949 15.1953 19.0849 15.1953C19.6449 15.1653 20.2049 15.2353 20.7349 15.3853C21.1949 15.5253 21.6349 15.7253 22.0349 15.9853C22.1149 16.0353 22.1649 16.1153 22.1849 16.2053C22.2049 16.2953 22.1849 16.3853 22.1349 16.4653C22.0749 16.5653 21.9649 16.6153 21.8449 16.6153M19.3449 15.7053C19.7649 15.7053 20.1849 15.7653 20.5949 15.8853C21.0049 16.0053 21.3949 16.1853 21.7649 16.4253C21.8349 16.4753 21.9449 16.4553 21.9849 16.3753C22.0049 16.3353 22.0149 16.2953 22.0049 16.2553C22.0049 16.2153 21.9749 16.1753 21.9349 16.1553C21.5449 15.9053 21.1249 15.7053 20.6849 15.5753C20.1649 15.4253 19.6349 15.3653 19.0949 15.3853C19.0549 15.3853 19.0149 15.4053 18.9849 15.4353C18.9549 15.4653 18.9449 15.5053 18.9449 15.5553C18.9449 15.5953 18.9649 15.6353 18.9949 15.6653C19.0249 15.6953 19.0749 15.7053 19.1149 15.7053C19.1949 15.7053 19.2749 15.7053 19.3449 15.7053Z" fill="white"/>
<path d="M21.9849 18.3151C21.5849 18.0551 21.1549 17.8551 20.7049 17.7251C20.1749 17.5751 19.6349 17.5051 19.0849 17.5351C18.9449 17.5351 18.8349 17.6651 18.8449 17.7951C18.8449 17.9351 18.9749 18.0451 19.1149 18.0351C19.6049 18.0051 20.0949 18.0651 20.5649 18.2051C20.9649 18.3251 21.3549 18.5051 21.7049 18.7351C21.7449 18.7651 21.7949 18.7751 21.8449 18.7751C21.9249 18.7751 22.0049 18.7351 22.0549 18.6651C22.1349 18.5451 22.0949 18.3951 21.9849 18.3151Z" fill="white"/>
<path d="M21.8449 18.8653C21.7749 18.8653 21.7149 18.8453 21.6549 18.8053C21.3049 18.5753 20.9349 18.4053 20.5349 18.2853C20.0749 18.1453 19.5949 18.0953 19.1149 18.1153C19.0249 18.1153 18.9349 18.0953 18.8649 18.0253C18.7949 17.9653 18.7549 17.8753 18.7549 17.7853C18.7549 17.6953 18.7849 17.6053 18.8449 17.5353C18.9049 17.4653 18.9949 17.4253 19.0849 17.4253C19.6449 17.3953 20.1949 17.4653 20.7349 17.6153C21.1949 17.7553 21.6349 17.9553 22.0349 18.2153C22.1149 18.2653 22.1649 18.3453 22.1849 18.4353C22.2049 18.5253 22.1849 18.6153 22.1349 18.6953C22.0749 18.7953 21.9649 18.8453 21.8449 18.8453M19.3449 17.9453C19.7649 17.9453 20.1849 18.0053 20.5949 18.1253C21.0049 18.2453 21.3949 18.4253 21.7649 18.6653C21.8349 18.7153 21.9449 18.6953 21.9949 18.6153C22.0149 18.5753 22.0249 18.5353 22.0149 18.4953C22.0149 18.4553 21.9849 18.4153 21.9449 18.3953C21.5549 18.1453 21.1349 17.9453 20.6949 17.8153C20.1749 17.6653 19.6449 17.6053 19.1049 17.6253C19.0149 17.6253 18.9449 17.7053 18.9549 17.7953C18.9549 17.8353 18.9749 17.8753 19.0049 17.9053C19.0349 17.9353 19.0749 17.9453 19.1249 17.9453C19.2049 17.9453 19.2849 17.9453 19.3549 17.9453" fill="white"/>
<path d="M24.7649 14.5852C24.7649 14.5852 24.8549 14.5752 24.9049 14.5452C25.2549 14.3152 25.6449 14.1352 26.0449 14.0152C26.5149 13.8752 27.0049 13.8152 27.4949 13.8452C27.6349 13.8452 27.7549 13.7452 27.7649 13.6052C27.7649 13.4652 27.6649 13.3452 27.5249 13.3452C26.9749 13.3152 26.4349 13.3852 25.9049 13.5352C25.4549 13.6652 25.0249 13.8652 24.6249 14.1252C24.5049 14.2052 24.4749 14.3552 24.5549 14.4752C24.6049 14.5452 24.6849 14.5852 24.7649 14.5852Z" fill="white"/>
<path d="M24.7651 14.6752C24.6451 14.6752 24.5451 14.6152 24.4751 14.5152C24.4251 14.4352 24.4051 14.3452 24.4251 14.2552C24.4451 14.1652 24.4951 14.0852 24.5751 14.0352C24.9751 13.7752 25.4151 13.5652 25.8751 13.4352C26.4151 13.2752 26.9651 13.2152 27.5251 13.2452C27.7151 13.2552 27.8551 13.4152 27.8451 13.6052C27.8451 13.6952 27.8051 13.7852 27.7351 13.8452C27.6651 13.9052 27.5751 13.9352 27.4851 13.9352C27.0051 13.9152 26.5251 13.9652 26.0651 14.1052C25.6651 14.2252 25.2951 14.3952 24.9451 14.6252C24.8851 14.6652 24.8251 14.6852 24.7551 14.6852M27.2651 13.4252C26.8051 13.4252 26.3651 13.4952 25.9251 13.6152C25.4851 13.7452 25.0651 13.9452 24.6751 14.1952C24.6351 14.2152 24.6151 14.2552 24.6051 14.2952C24.6051 14.3352 24.6051 14.3852 24.6251 14.4152C24.6751 14.4852 24.7751 14.5152 24.8551 14.4652C25.2151 14.2252 25.6051 14.0452 26.0251 13.9252C26.5051 13.7852 27.0051 13.7252 27.5051 13.7552C27.5451 13.7552 27.5851 13.7452 27.6251 13.7152C27.6551 13.6852 27.6751 13.6452 27.6751 13.6052C27.6751 13.5152 27.6051 13.4352 27.5251 13.4352C27.4451 13.4352 27.3551 13.4352 27.2751 13.4352" fill="white"/>
<path d="M27.7051 15.2952C27.1551 15.2652 26.6151 15.3352 26.0851 15.4852C25.6351 15.6152 25.2051 15.8152 24.8051 16.0752C24.6851 16.1552 24.6551 16.3052 24.7351 16.4252C24.7851 16.4952 24.8651 16.5352 24.9451 16.5352C24.9951 16.5352 25.0451 16.5252 25.0851 16.4952C25.4351 16.2652 25.8251 16.0852 26.2251 15.9652C26.6951 15.8252 27.1851 15.7652 27.6751 15.7952C27.8151 15.7952 27.9351 15.6952 27.9351 15.5552C27.9351 15.4152 27.8351 15.2952 27.6951 15.2852" fill="white"/>
<path d="M24.9448 16.6352C24.8248 16.6352 24.7248 16.5752 24.6548 16.4752C24.6048 16.3952 24.5848 16.3052 24.6048 16.2152C24.6248 16.1252 24.6748 16.0452 24.7548 15.9952C25.1548 15.7352 25.5948 15.5252 26.0548 15.3952C26.5948 15.2352 27.1448 15.1752 27.7048 15.2052C27.8948 15.2152 28.0348 15.3752 28.0248 15.5652C28.0248 15.6552 27.9848 15.7452 27.9148 15.8052C27.8448 15.8652 27.7548 15.8952 27.6648 15.8952C27.1848 15.8752 26.7048 15.9252 26.2448 16.0652C25.8448 16.1852 25.4748 16.3552 25.1248 16.5852C25.0648 16.6252 25.0048 16.6452 24.9348 16.6452M27.4548 15.3852C27.0048 15.3852 26.5548 15.4552 26.1148 15.5752C25.6748 15.7052 25.2548 15.9052 24.8648 16.1552C24.8248 16.1752 24.8048 16.2152 24.7948 16.2552C24.7948 16.2952 24.7948 16.3452 24.8148 16.3752C24.8648 16.4452 24.9648 16.4752 25.0448 16.4252C25.4048 16.1852 25.7948 16.0052 26.2148 15.8852C26.6948 15.7452 27.1948 15.6852 27.6948 15.7152C27.7348 15.7152 27.7748 15.7052 27.8148 15.6752C27.8448 15.6452 27.8648 15.6052 27.8648 15.5652C27.8648 15.4752 27.7948 15.3952 27.7148 15.3952C27.6348 15.3952 27.5448 15.3952 27.4648 15.3952" fill="white"/>
<path d="M26.0851 17.7251C25.6351 17.8551 25.2051 18.0551 24.8051 18.3151C24.6851 18.3951 24.6551 18.5451 24.7351 18.6651C24.7851 18.7351 24.8651 18.7851 24.9451 18.7851C24.9951 18.7851 25.0451 18.7751 25.0851 18.7451C25.4351 18.5151 25.8251 18.3351 26.2251 18.2151C26.6951 18.0751 27.1851 18.0151 27.6751 18.0451C27.8151 18.0451 27.9351 17.9451 27.9451 17.8051C27.9451 17.6651 27.8451 17.5451 27.7051 17.5351C27.1551 17.5051 26.6151 17.5751 26.0851 17.7251Z" fill="white"/>
<path d="M24.9448 18.8752C24.8248 18.8752 24.7248 18.8152 24.6548 18.7252C24.6048 18.6452 24.5848 18.5552 24.6048 18.4652C24.6248 18.3752 24.6748 18.2952 24.7548 18.2452C25.1548 17.9852 25.5948 17.7852 26.0548 17.6452C26.5848 17.4852 27.1448 17.4252 27.7048 17.4552C27.7948 17.4552 27.8848 17.4952 27.9448 17.5652C28.0048 17.6352 28.0348 17.7252 28.0348 17.8152C28.0348 17.9052 27.9948 17.9952 27.9248 18.0552C27.8548 18.1152 27.7648 18.1452 27.6748 18.1452C27.1948 18.1152 26.7148 18.1752 26.2548 18.3152C25.8548 18.4352 25.4848 18.6052 25.1348 18.8352C25.0748 18.8752 25.0148 18.8952 24.9448 18.8952M26.1148 17.8152C25.6748 17.9452 25.2448 18.1452 24.8648 18.3952C24.8248 18.4152 24.8048 18.4552 24.7948 18.4952C24.7948 18.5352 24.7948 18.5852 24.8148 18.6152C24.8648 18.6852 24.9648 18.7152 25.0348 18.6652C25.3948 18.4252 25.7848 18.2452 26.2048 18.1252C26.6848 17.9852 27.1848 17.9252 27.6848 17.9552C27.7248 17.9552 27.7648 17.9452 27.8048 17.9152C27.8348 17.8852 27.8548 17.8452 27.8548 17.8052C27.8548 17.7652 27.8448 17.7152 27.8148 17.6852C27.7848 17.6552 27.7448 17.6352 27.7048 17.6352C27.1648 17.6052 26.6348 17.6752 26.1148 17.8252" fill="white"/>
<path d="M7.2251 18.3253C7.2251 18.3253 7.3051 18.3653 7.4351 18.4353C7.5651 18.4953 7.7351 18.5753 7.8951 18.6553C8.2351 18.8053 8.5651 18.9453 8.5751 18.9453C8.5751 18.9453 8.9151 19.0853 9.2451 19.2053C9.5751 19.3253 9.9051 19.4353 9.9051 19.4353L9.7051 18.0853L9.6351 16.7153C9.6351 16.7153 9.3351 16.8853 9.0351 17.0753C8.7351 17.2553 8.4351 17.4653 8.4351 17.4653C8.4351 17.4653 8.1351 17.6653 7.8351 17.8853C7.5351 18.1053 7.2351 18.3353 7.2351 18.3353" fill="white"/>
<path d="M10.665 21.8151C10.665 21.8151 10.315 21.7751 9.96496 21.7151C9.61496 21.6551 9.25496 21.5851 9.25496 21.5851C9.25496 21.5851 8.89496 21.5151 8.53496 21.4251C8.35496 21.3851 8.18496 21.3351 8.05496 21.2951C7.92496 21.2551 7.83496 21.2251 7.83496 21.2251C7.83496 21.2251 7.85496 21.3251 7.89496 21.4651C7.93496 21.6051 8.01496 21.7951 8.07496 21.9851C8.21496 22.3651 8.35496 22.7451 8.35496 22.7451C8.35496 22.7451 8.39496 22.8451 8.44496 22.9851C8.51496 23.1251 8.59496 23.3051 8.68496 23.4851C8.86496 23.8451 9.03496 24.2151 9.03496 24.2151C9.03496 24.2151 9.22496 23.8851 9.41496 23.5751C9.60496 23.2651 9.80496 22.9651 9.80496 22.9651C9.80496 22.9651 10.005 22.6651 10.215 22.3851C10.315 22.2451 10.425 22.1051 10.515 21.9951C10.605 21.8951 10.655 21.8251 10.655 21.8251" fill="white"/>
<path d="M8.72508 19.7952C9.03508 19.7352 9.35508 19.9252 9.43508 20.2352C9.51508 20.5452 9.32508 20.8652 9.01508 20.9552C8.70508 21.0452 8.38508 20.8552 8.30508 20.5152C8.21508 20.1752 8.40508 19.8552 8.72508 19.7852" fill="white"/>
<path d="M9.8252 25.6254C9.8252 25.6254 9.9152 25.6254 10.0552 25.6254C10.1952 25.6254 10.3852 25.6154 10.5652 25.6054C10.9352 25.5854 11.2952 25.5454 11.2952 25.5454C11.2952 25.5454 11.6552 25.5154 12.0152 25.4654C12.3652 25.4154 12.7152 25.3554 12.7152 25.3554C12.7152 25.3554 12.5152 25.0854 12.3052 24.8054C12.2052 24.6654 12.0952 24.5354 12.0252 24.4254C11.9852 24.3754 11.9552 24.3254 11.9352 24.2954C11.9152 24.2654 11.9052 24.2454 11.9052 24.2454L11.5452 23.6554C11.4552 23.5054 11.3652 23.3654 11.3052 23.2554C11.2452 23.1454 11.2052 23.0654 11.2052 23.0654C11.2052 23.0654 10.9952 23.3654 10.8252 23.6654C10.6452 23.9654 10.4752 24.2854 10.4752 24.2854C10.4752 24.2854 10.3052 24.6054 10.1452 24.9354C9.9852 25.2654 9.8252 25.6154 9.8252 25.6154" fill="white"/>
<path d="M14.4948 27.1152C14.4948 27.1152 14.1648 27.2352 13.8248 27.3452C13.4848 27.4552 13.1348 27.5552 13.1348 27.5552C13.1348 27.5552 12.7848 27.6552 12.4248 27.7452C12.2448 27.7952 12.0648 27.8252 11.9348 27.8552C11.8048 27.8752 11.7148 27.8952 11.7148 27.8952C11.7148 27.8952 11.7848 27.9652 11.8848 28.0852C11.9948 28.1952 12.1448 28.3252 12.2948 28.4652C12.5948 28.7352 12.8948 29.0052 12.8948 29.0052C12.8948 29.0052 12.9748 29.0752 13.0848 29.1752C13.2048 29.2652 13.3648 29.3852 13.5248 29.5052C13.8448 29.7452 14.1748 29.9852 14.1748 29.9852C14.1748 29.9852 14.1848 29.6052 14.2148 29.2452C14.2448 28.8752 14.2848 28.5252 14.2848 28.5252C14.2848 28.5252 14.3248 28.1652 14.3748 27.8252C14.4048 27.6552 14.4248 27.4752 14.4548 27.3452C14.4848 27.2152 14.5048 27.1252 14.5048 27.1252" fill="white"/>
<path d="M11.835 26.2252C12.085 26.0252 12.455 26.0452 12.675 26.2852C12.885 26.5152 12.875 26.8952 12.645 27.1152C12.415 27.3452 12.045 27.3152 11.805 27.0552C11.575 26.7952 11.585 26.4252 11.835 26.2252Z" fill="white"/>
<path d="M15.5151 30.8851C15.5151 30.8851 15.5951 30.8451 15.7151 30.7751C15.8351 30.7051 15.9951 30.6051 16.1651 30.5151C16.4851 30.3251 16.7851 30.1251 16.7851 30.1251C16.7851 30.1251 17.0951 29.9251 17.3851 29.7251C17.6751 29.5151 17.9551 29.3051 17.9551 29.3051C17.9551 29.3051 17.6451 29.1551 17.3351 29.0051C17.1851 28.9351 17.0251 28.8551 16.9051 28.8051C16.7851 28.7551 16.7151 28.7051 16.7151 28.7051C16.7151 28.7051 16.4251 28.5251 16.1351 28.3451C15.9851 28.2551 15.8451 28.1651 15.7351 28.1051C15.6751 28.0751 15.6351 28.0351 15.6051 28.0151C15.5751 27.9951 15.5551 27.9751 15.5551 27.9751C15.5551 27.9751 15.5151 28.3351 15.4951 28.6851C15.4751 29.0351 15.4751 29.3951 15.4751 29.3951C15.4751 29.3951 15.4751 29.7551 15.4751 30.1251C15.4751 30.4951 15.5051 30.8751 15.5051 30.8751" fill="white"/>
<path d="M20.3451 30.0354C20.3451 30.0354 20.1151 30.2954 19.8651 30.5454C19.6151 30.8054 19.3551 31.0554 19.3551 31.0554C19.3551 31.0554 19.0951 31.3054 18.8151 31.5554C18.6751 31.6854 18.5351 31.7954 18.4251 31.8754C18.3151 31.9554 18.2451 32.0154 18.2451 32.0154C18.2451 32.0154 18.3351 32.0454 18.4851 32.1054C18.6251 32.1554 18.8251 32.1954 19.0251 32.2454C19.4151 32.3454 19.8051 32.4454 19.8051 32.4454C19.8051 32.4454 19.9051 32.4654 20.0451 32.5054C20.1951 32.5354 20.3951 32.5654 20.5951 32.5954C20.9951 32.6554 21.3951 32.7154 21.3951 32.7154C21.3951 32.7154 21.2351 32.3754 21.0851 32.0454C20.9351 31.7054 20.8051 31.3754 20.8051 31.3754C20.8051 31.3754 20.6751 31.0454 20.5551 30.7154C20.4951 30.5554 20.4451 30.3754 20.4051 30.2454C20.3651 30.1154 20.3451 30.0254 20.3451 30.0254" fill="white"/>
<path d="M17.5749 30.4854C17.7049 30.1854 18.0449 30.0354 18.3449 30.1454C18.6449 30.2554 18.8049 30.5954 18.7049 30.8954C18.6049 31.2054 18.2649 31.3554 17.9349 31.2354C17.6049 31.1154 17.4449 30.7754 17.5749 30.4854Z" fill="white"/>
<path d="M23.0051 32.8852C23.0051 32.8852 23.0551 32.8152 23.1351 32.6952C23.2151 32.5752 23.3151 32.4352 23.4051 32.2752C23.5951 31.9552 23.7751 31.6352 23.7751 31.6352C23.7751 31.6352 23.9551 31.3152 24.1151 30.9952C24.2751 30.6752 24.4251 30.3552 24.4251 30.3552C24.4251 30.3552 24.0851 30.3752 23.7451 30.3952C23.5751 30.3952 23.4051 30.4252 23.2751 30.4152C23.1451 30.4152 23.0651 30.4052 23.0651 30.4052C23.0651 30.4052 22.7251 30.3852 22.3851 30.3652C22.2151 30.3652 22.0451 30.3552 21.9151 30.3352C21.7851 30.3152 21.7051 30.3052 21.7051 30.3052C21.7051 30.3052 21.7351 30.3852 21.7851 30.5152C21.8351 30.6452 21.9051 30.8152 21.9851 30.9652C22.1351 31.2852 22.3051 31.6052 22.3051 31.6052C22.3051 31.6052 22.4651 31.9252 22.6451 32.2452C22.8251 32.5652 23.0251 32.8852 23.0251 32.8852" fill="white"/>
<path d="M26.8848 29.895C26.8848 29.895 26.7948 30.235 26.6948 30.585C26.5948 30.935 26.4748 31.275 26.4748 31.275C26.4748 31.275 26.4448 31.365 26.4048 31.495C26.3548 31.625 26.2948 31.785 26.2248 31.955C26.0948 32.285 25.9448 32.625 25.9448 32.625C25.9448 32.625 26.0448 32.605 26.1948 32.585C26.3448 32.555 26.5448 32.545 26.7448 32.485C27.1348 32.385 27.5248 32.285 27.5248 32.285C27.5248 32.285 27.6248 32.255 27.7648 32.225C27.9148 32.185 28.1148 32.145 28.2948 32.075C28.6748 31.935 29.0548 31.795 29.0548 31.795C29.0548 31.795 28.7548 31.575 28.4748 31.355C28.1848 31.125 27.9248 30.895 27.9248 30.895C27.9248 30.895 27.6548 30.665 27.3948 30.405C27.1348 30.155 26.8848 29.895 26.8848 29.895Z" fill="white"/>
<path d="M24.635 31.5751C24.625 31.4151 24.675 31.2651 24.775 31.1551C24.865 31.0451 25.005 30.9451 25.165 30.9251C25.475 30.8751 25.775 31.0951 25.835 31.4151C25.895 31.7351 25.655 32.0351 25.315 32.0851C25.145 32.1051 24.985 32.0851 24.865 31.9751C24.745 31.8751 24.665 31.7351 24.645 31.5751" fill="white"/>
<path d="M30.5548 31.1852C30.5548 31.1852 30.5948 30.8152 30.6248 30.4552C30.6448 30.2752 30.6548 30.0952 30.6548 29.9552C30.6548 29.8152 30.6548 29.7252 30.6548 29.7252C30.6548 29.7252 30.6548 29.3552 30.6548 28.9952C30.6548 28.6352 30.6248 28.2852 30.6248 28.2852C30.6248 28.2852 30.3348 28.4652 30.0348 28.6452C29.8948 28.7452 29.7348 28.8152 29.6248 28.8652C29.5048 28.9252 29.4348 28.9552 29.4348 28.9552C29.4348 28.9552 29.1248 29.1052 28.8148 29.2552C28.6648 29.3352 28.4948 29.3852 28.3748 29.4352C28.2548 29.4752 28.1748 29.5052 28.1748 29.5052C28.1748 29.5052 28.4448 29.7352 28.7348 29.9652C29.0248 30.1952 29.3148 30.3952 29.3148 30.3952C29.3148 30.3952 29.6048 30.6052 29.9148 30.7952C30.2248 30.9952 30.5448 31.1852 30.5448 31.1852" fill="white"/>
<path d="M32.5947 26.7354C32.5947 26.7354 32.6747 27.0754 32.7447 27.4354C32.8147 27.7854 32.8747 28.1454 32.8747 28.1454C32.8747 28.1454 32.8847 28.2354 32.9147 28.3754C32.9347 28.5054 32.9547 28.6854 32.9747 28.8654C33.0147 29.2254 33.0347 29.5954 33.0347 29.5954C33.0347 29.5954 33.1147 29.5354 33.2347 29.4454C33.3547 29.3554 33.5247 29.2354 33.6747 29.1054L34.2747 28.5654C34.2747 28.5654 34.3447 28.4954 34.4647 28.3954C34.5747 28.2854 34.7347 28.1654 34.8647 28.0054C35.1347 27.7054 35.4047 27.4054 35.4047 27.4054C35.4047 27.4054 35.0347 27.3554 34.6847 27.2854C34.3247 27.2154 33.9847 27.1354 33.9847 27.1354C33.9847 27.1354 33.6447 27.0654 33.2847 26.9554C32.9347 26.8554 32.6047 26.7454 32.6047 26.7454" fill="white"/>
<path d="M31.3948 29.2651C31.2148 28.9851 31.3148 28.6551 31.5548 28.4551C31.8048 28.2651 32.1748 28.3151 32.3748 28.5751C32.5748 28.8251 32.5048 29.2051 32.2248 29.4151C31.9548 29.6351 31.5548 29.5351 31.3948 29.2751" fill="white"/>
<path d="M36.455 26.1654C36.455 26.1654 36.325 25.8254 36.185 25.4854C36.115 25.3254 36.035 25.1554 35.975 25.0254C35.915 24.9054 35.875 24.8154 35.875 24.8154C35.875 24.8154 35.715 24.4854 35.535 24.1654C35.365 23.8454 35.185 23.5454 35.185 23.5454C35.185 23.5454 35.005 23.8354 34.825 24.1354C34.785 24.2054 34.735 24.2854 34.695 24.3554C34.645 24.4154 34.605 24.4754 34.565 24.5354C34.485 24.6354 34.435 24.7054 34.435 24.7054C34.435 24.7054 34.225 24.9854 34.025 25.2554C33.925 25.3954 33.805 25.5254 33.725 25.6154C33.635 25.7154 33.585 25.7754 33.585 25.7754C33.585 25.7754 33.935 25.8554 34.295 25.9254C34.475 25.9654 34.655 25.9954 34.785 26.0054C34.915 26.0254 35.005 26.0354 35.005 26.0354C35.005 26.0354 35.355 26.0854 35.725 26.1154C36.085 26.1454 36.465 26.1654 36.465 26.1654" fill="white"/>
<path d="M36.2051 21.2752C36.2051 21.2752 36.4351 21.5352 36.6651 21.8152C36.8951 22.0952 37.1151 22.3852 37.1151 22.3852C37.1151 22.3852 37.1651 22.4552 37.2551 22.5652C37.3351 22.6752 37.4351 22.8252 37.5351 22.9752C37.7351 23.2752 37.9251 23.5952 37.9251 23.5952C37.9251 23.5952 37.9651 23.5052 38.0351 23.3652C38.0951 23.2252 38.1951 23.0552 38.2651 22.8652C38.4051 22.4852 38.5451 22.1052 38.5451 22.1052C38.5451 22.1052 38.5751 22.0052 38.6351 21.8652C38.6851 21.7252 38.7651 21.5352 38.8051 21.3352C38.9051 20.9452 39.0051 20.5552 39.0051 20.5552C39.0051 20.5552 38.6551 20.6752 38.3051 20.7852C37.9551 20.8952 37.6151 20.9852 37.6151 20.9852C37.6151 20.9852 37.5251 21.0052 37.4051 21.0452C37.2751 21.0752 37.0951 21.1152 36.9151 21.1552C36.5551 21.2252 36.2051 21.2852 36.2051 21.2852" fill="white"/>
<path d="M36.3151 24.075C36.0351 23.915 35.9551 23.575 36.0851 23.285C36.2251 22.995 36.5751 22.875 36.8651 23.015C37.1551 23.145 37.2751 23.515 37.1251 23.825C36.9851 24.145 36.5951 24.245 36.3251 24.085" fill="white"/>
<path d="M39.355 18.9852C39.355 18.9852 39.075 18.7452 38.795 18.5152C38.525 18.2852 38.215 18.0752 38.215 18.0752C38.215 18.0752 37.915 17.8552 37.615 17.6652C37.315 17.4652 37.015 17.2852 37.015 17.2852C37.015 17.2852 36.995 17.6252 36.985 17.9652C36.985 18.1352 36.945 18.3052 36.925 18.4352C36.905 18.5652 36.895 18.6452 36.895 18.6452C36.895 18.6452 36.845 18.9852 36.795 19.3252C36.775 19.4952 36.725 19.6552 36.695 19.7852C36.665 19.9052 36.645 19.9952 36.645 19.9952C36.645 19.9952 36.995 19.9052 37.335 19.7952C37.695 19.6852 38.015 19.5652 38.015 19.5652C38.015 19.5652 38.345 19.4452 38.685 19.2952C39.025 19.1552 39.365 18.9952 39.365 18.9952" fill="white"/>
<path d="M36.855 14.7752C36.855 14.7752 37.185 14.8952 37.525 15.0452C37.865 15.1852 38.175 15.3452 38.175 15.3452C38.175 15.3452 38.495 15.5052 38.815 15.6752C39.135 15.8452 39.455 16.0352 39.455 16.0352C39.455 16.0352 39.435 15.6352 39.415 15.2352C39.415 15.0352 39.365 14.8352 39.345 14.6852C39.325 14.5352 39.305 14.4352 39.305 14.4352C39.305 14.4352 39.245 14.0352 39.185 13.6352C39.165 13.4352 39.095 13.2452 39.065 13.0952C39.025 12.9452 39.005 12.8452 39.005 12.8452C39.005 12.8452 38.755 13.1152 38.505 13.3652C38.255 13.6152 37.975 13.8652 37.975 13.8652C37.975 13.8652 37.695 14.1052 37.425 14.3352C37.145 14.5652 36.865 14.7752 36.865 14.7752" fill="white"/>
<path d="M38.2447 17.2049C37.9147 17.1949 37.6847 16.925 37.6847 16.605C37.6647 16.285 37.9147 16.0149 38.2347 16.0049C38.5547 15.9849 38.8247 16.255 38.8447 16.605C38.8447 16.955 38.5547 17.2249 38.2447 17.2049Z" fill="white"/>
<path d="M38.5848 11.2852C38.5848 11.2852 38.2248 11.1952 37.8648 11.1252C37.5048 11.0552 37.1548 10.9952 37.1548 10.9952C37.1548 10.9952 37.0648 10.9852 36.9348 10.9652C36.7948 10.9452 36.6148 10.9252 36.4348 10.9052C36.0748 10.8652 35.7148 10.8452 35.7148 10.8452C35.7148 10.8452 35.7548 10.9252 35.8048 11.0352C35.8548 11.1552 35.9448 11.3052 36.0048 11.4652C36.1248 11.7852 36.2348 12.1052 36.2348 12.1052C36.2348 12.1052 36.2648 12.1852 36.3048 12.3052C36.3448 12.4252 36.4248 12.5852 36.4548 12.7552C36.5448 13.0852 36.6248 13.4152 36.6248 13.4152C36.6248 13.4152 36.8848 13.1752 37.1448 12.9252C37.4048 12.6652 37.6548 12.3952 37.6548 12.3952C37.6548 12.3952 37.7148 12.3252 37.8148 12.2252C37.9048 12.1252 38.0248 11.9852 38.1348 11.8452C38.3648 11.5652 38.5848 11.2652 38.5848 11.2652" fill="white"/>
<path d="M34.415 8.71514C34.415 8.71514 34.765 8.67514 35.135 8.63514C35.315 8.61514 35.495 8.60514 35.625 8.60514C35.755 8.60514 35.845 8.60514 35.845 8.60514C35.845 8.60514 36.205 8.60514 36.565 8.60514C36.925 8.60514 37.305 8.62514 37.305 8.62514C37.305 8.62514 37.095 8.27514 36.885 7.93514C36.835 7.84514 36.775 7.76514 36.735 7.68514C36.675 7.61514 36.625 7.53514 36.585 7.47514C36.495 7.35514 36.435 7.27514 36.435 7.27514L35.955 6.62514C35.835 6.46514 35.705 6.31514 35.595 6.20514C35.495 6.09514 35.425 6.01514 35.425 6.01514C35.425 6.01514 35.335 6.36514 35.225 6.71514C35.175 6.88514 35.115 7.05514 35.065 7.18514C35.015 7.31514 34.985 7.39514 34.985 7.39514C34.985 7.39514 34.855 7.73514 34.715 8.06514C34.575 8.39514 34.425 8.71514 34.425 8.71514" fill="white"/>
<path d="M36.7751 10.2153C36.4851 10.3553 36.1351 10.2353 36.0051 9.94528C35.8551 9.66528 35.9351 9.31528 36.2151 9.15528C36.4851 8.99528 36.8651 9.09528 37.0351 9.39528C37.1851 9.70528 37.0751 10.0753 36.7851 10.2153" fill="white"/>
<path d="M34.3152 4.8252C34.3152 4.8252 33.9552 4.9152 33.6052 5.0252C33.2552 5.1252 32.9152 5.24519 32.9152 5.24519C32.9152 5.24519 32.8352 5.2752 32.7052 5.3152C32.5752 5.3652 32.4052 5.43519 32.2352 5.49519C31.8952 5.63519 31.5752 5.7752 31.5752 5.7752C31.5752 5.7752 31.6452 5.8252 31.7452 5.9052C31.8452 5.9852 31.9952 6.0752 32.1152 6.1952L32.6252 6.6552C32.6252 6.6552 32.6852 6.7152 32.7852 6.7952C32.8752 6.8852 33.0152 6.98519 33.1252 7.1252L33.5852 7.6352C33.5852 7.6352 33.7052 7.30519 33.8152 6.95519C33.9252 6.61519 34.0252 6.2552 34.0252 6.2552C34.0252 6.2552 34.1252 5.8952 34.1952 5.5452C34.2652 5.1952 34.3352 4.8252 34.3352 4.8252" fill="white"/>
<path d="M29.4249 4.48523C29.4249 4.48523 29.7149 4.28523 30.0249 4.08523C30.1749 3.98523 30.3349 3.89523 30.4449 3.82523C30.5649 3.76523 30.6349 3.71523 30.6349 3.71523C30.6349 3.71523 30.9449 3.54523 31.2749 3.37523C31.5949 3.21523 31.9349 3.05523 31.9349 3.05523C31.9349 3.05523 31.5949 2.84523 31.2449 2.63523C31.0749 2.52523 30.8949 2.43523 30.7549 2.37523C30.6149 2.30523 30.5249 2.26523 30.5249 2.26523C30.5249 2.26523 30.1649 2.08523 29.7949 1.91523C29.6149 1.82523 29.4249 1.75523 29.2849 1.70523C29.1449 1.65523 29.0449 1.61523 29.0449 1.61523C29.0449 1.61523 29.1249 1.97523 29.1849 2.32523C29.2549 2.67523 29.2949 3.04523 29.2949 3.04523C29.2949 3.04523 29.3349 3.41523 29.3649 3.76523C29.3949 4.12523 29.4149 4.47523 29.4149 4.47523" fill="white"/>
<path d="M32.1847 4.75511C31.9947 5.01511 31.6247 5.06511 31.3747 4.87511C31.1147 4.70511 31.0247 4.35511 31.1947 4.07511C31.3647 3.80511 31.7447 3.71511 32.0347 3.91511C32.3147 4.12511 32.3847 4.49511 32.1847 4.75511Z" fill="white"/>
<path d="M27.5352 1.07518C27.5352 1.07518 27.2552 1.32518 26.9952 1.58518C26.7352 1.83518 26.4852 2.09518 26.4852 2.09518C26.4852 2.09518 26.4252 2.15518 26.3352 2.25518C26.2452 2.35518 26.1252 2.49518 26.0052 2.63518C25.7752 2.91518 25.5552 3.19518 25.5552 3.19518C25.5552 3.19518 25.6452 3.20518 25.7652 3.22518C25.8952 3.25518 26.0652 3.25518 26.2252 3.30518C26.5552 3.39518 26.8852 3.47518 26.8852 3.47518C26.8852 3.47518 26.9652 3.49518 27.0952 3.52518C27.2152 3.56518 27.3852 3.58518 27.5452 3.65518C27.8652 3.77518 28.1852 3.89518 28.1852 3.89518C28.1852 3.89518 28.1352 3.54518 28.0752 3.18518C28.0152 2.83518 27.9252 2.46518 27.9252 2.46518C27.9252 2.46518 27.8452 2.10518 27.7452 1.75518C27.6452 1.40518 27.5252 1.05518 27.5252 1.05518" fill="white"/>
<path d="M23.055 3.05519C23.055 3.05519 23.095 2.97519 23.155 2.85519C23.215 2.73519 23.305 2.56519 23.395 2.42519C23.575 2.12519 23.775 1.82519 23.775 1.82519C23.775 1.82519 23.965 1.52519 24.185 1.22519C24.395 0.925189 24.625 0.625189 24.625 0.625189C24.625 0.625189 23.015 0.535189 23.015 0.575189C23.015 0.575189 22.615 0.595189 22.215 0.615189C22.015 0.625189 21.815 0.635189 21.665 0.645189C21.515 0.665189 21.415 0.685189 21.415 0.685189C21.415 0.685189 21.475 0.755189 21.565 0.855189C21.655 0.955189 21.765 1.09519 21.875 1.24519C22.095 1.54519 22.305 1.84519 22.305 1.84519C22.305 1.84519 22.515 2.14519 22.705 2.44519C22.895 2.74519 23.075 3.04519 23.075 3.04519" fill="white"/>
<path d="M25.5951 2.00539C25.5451 2.32539 25.2451 2.54539 24.9351 2.49539C24.7751 2.46539 24.6451 2.39539 24.5451 2.28539C24.4451 2.17539 24.3951 2.02539 24.4051 1.86539C24.4151 1.70539 24.4951 1.56539 24.6151 1.46539C24.7351 1.36539 24.8951 1.30539 25.0651 1.33539C25.4051 1.38539 25.6451 1.68539 25.5951 2.00539Z" fill="white"/>
<path d="M19.7949 0.915039C19.7949 0.915039 19.6649 1.26504 19.5549 1.61504C19.4449 1.96504 19.3449 2.31504 19.3449 2.31504C19.3449 2.31504 19.2449 2.66504 19.1649 3.00504C19.1249 3.17504 19.0849 3.35504 19.0649 3.49504C19.0449 3.62504 19.0249 3.71504 19.0249 3.71504C19.0249 3.71504 19.1049 3.68504 19.2249 3.63504C19.3449 3.59504 19.5149 3.55504 19.6749 3.51504C20.0049 3.42504 20.3349 3.34504 20.3349 3.34504C20.3349 3.34504 20.4149 3.32504 20.5449 3.29504C20.6649 3.26504 20.8449 3.24504 21.0049 3.22504C21.3449 3.17504 21.6849 3.12504 21.6849 3.12504C21.6849 3.12504 21.4849 2.84504 21.2549 2.56504C21.0349 2.28504 20.7949 2.00504 20.7949 2.00504C20.7949 2.00504 20.5549 1.72504 20.3049 1.45504C20.1749 1.31504 20.0549 1.18504 19.9549 1.09504C19.8549 0.995039 19.7949 0.935039 19.7949 0.935039" fill="white"/>
<path d="M16.7348 4.73523C16.7348 4.73523 16.7348 4.64523 16.7348 4.51523C16.7348 4.38523 16.7448 4.20523 16.7548 4.03523C16.7748 3.68523 16.8048 3.32523 16.8048 3.32523C16.8048 3.32523 16.8348 2.96523 16.8848 2.60523C16.9248 2.24523 16.9948 1.86523 16.9948 1.86523C16.9948 1.86523 16.6348 2.04523 16.2648 2.21523C16.0848 2.30523 15.9048 2.39523 15.7648 2.45523C15.6248 2.51523 15.5448 2.57523 15.5448 2.57523C15.5448 2.57523 15.1948 2.78523 14.8548 2.99523C14.6848 3.09523 14.5148 3.20523 14.3848 3.28523C14.3148 3.32523 14.2748 3.36523 14.2348 3.38523C14.1948 3.41523 14.1748 3.42523 14.1748 3.42523C14.1748 3.42523 14.5148 3.55523 14.8548 3.71523C15.1948 3.87523 15.5148 4.03523 15.5148 4.03523C15.5148 4.03523 15.8348 4.20523 16.1448 4.37523C16.4548 4.54523 16.7448 4.73523 16.7448 4.73523" fill="white"/>
<path d="M18.4751 2.61518C18.5751 2.92518 18.4151 3.25518 18.1251 3.36518C17.9751 3.41518 17.8151 3.40518 17.6751 3.34518C17.5351 3.28518 17.4151 3.18518 17.3551 3.03518C17.2951 2.88518 17.2951 2.72518 17.3551 2.58518C17.4151 2.45518 17.5451 2.33518 17.7051 2.27518C18.0351 2.15518 18.3751 2.30518 18.4851 2.61518" fill="white"/>
<path d="M12.855 4.375C12.855 4.375 12.905 4.745 12.965 5.115C13.025 5.475 13.105 5.835 13.105 5.835C13.105 5.835 13.175 6.185 13.265 6.525C13.305 6.695 13.365 6.875 13.405 7.005C13.445 7.135 13.475 7.225 13.475 7.225C13.475 7.225 13.535 7.165 13.615 7.065C13.705 6.975 13.835 6.865 13.965 6.745C14.215 6.515 14.475 6.285 14.475 6.285C14.475 6.285 14.535 6.225 14.635 6.145C14.735 6.065 14.875 5.965 15.015 5.865C15.285 5.665 15.565 5.455 15.565 5.455C15.565 5.455 15.255 5.305 14.925 5.155C14.595 5.005 14.255 4.875 14.255 4.875C14.255 4.875 13.915 4.735 13.565 4.615C13.385 4.555 13.215 4.495 13.085 4.455C12.955 4.415 12.865 4.395 12.865 4.395" fill="white"/>
<path d="M11.9349 9.17537C11.9349 9.17537 11.8949 9.09537 11.8249 8.97537C11.7649 8.85537 11.6949 8.69537 11.6149 8.53537C11.4649 8.21537 11.3349 7.88537 11.3349 7.88537C11.3349 7.88537 11.1949 7.55537 11.0649 7.20537C10.9349 6.86537 10.8149 6.50537 10.8149 6.50537L10.3349 7.15537C10.2149 7.31537 10.0949 7.47537 10.0049 7.60537C9.95492 7.66537 9.92492 7.71537 9.90492 7.75537C9.88492 7.79537 9.86492 7.81537 9.86492 7.81537C9.86492 7.81537 9.65492 8.16537 9.44492 8.50537C9.33492 8.67537 9.23492 8.85537 9.15492 8.98537C9.08492 9.11537 9.04492 9.21537 9.04492 9.21537C9.04492 9.21537 9.39492 9.17537 9.77492 9.16537C10.1449 9.14537 10.5049 9.14537 10.5049 9.14537C10.5049 9.14537 10.8649 9.14537 11.2249 9.14537C11.5849 9.15537 11.9249 9.18537 11.9249 9.18537" fill="white"/>
<path d="M12.4748 6.47537C12.7048 6.69537 12.7248 7.06537 12.5048 7.30537C12.3948 7.42537 12.2548 7.48537 12.0948 7.49537C11.9548 7.51537 11.7948 7.47537 11.6748 7.37537C11.5548 7.27537 11.4748 7.12537 11.4648 6.97537C11.4648 6.82537 11.5148 6.66537 11.6348 6.54537C11.8648 6.28537 12.2448 6.25537 12.4748 6.48538" fill="white"/>
<path d="M8.3252 10.655C8.3252 10.655 8.5452 10.965 8.7652 11.255C8.9852 11.545 9.2152 11.825 9.2152 11.825C9.2152 11.825 9.4452 12.105 9.6852 12.365C9.7952 12.495 9.9252 12.625 10.0252 12.725C10.1252 12.825 10.1852 12.885 10.1852 12.885C10.1852 12.885 10.2052 12.805 10.2352 12.675C10.2752 12.555 10.3352 12.395 10.3952 12.235C10.5152 11.915 10.6352 11.595 10.6352 11.595C10.6352 11.595 10.6652 11.515 10.7052 11.395C10.7552 11.275 10.8352 11.125 10.9052 10.975C11.0552 10.665 11.2052 10.355 11.2052 10.355C11.2052 10.355 10.8552 10.355 10.4952 10.385C10.1352 10.405 9.7752 10.445 9.7752 10.445C9.7752 10.445 9.4152 10.485 9.0452 10.535C8.8552 10.555 8.6752 10.595 8.5452 10.615C8.4152 10.645 8.3252 10.655 8.3252 10.655Z" fill="white"/>
<path d="M9.73482 15.3354C9.73482 15.3354 9.65482 15.2854 9.55482 15.2054C9.44482 15.1254 9.31482 15.0254 9.16482 14.9154C8.88482 14.7054 8.60482 14.4754 8.60482 14.4754C8.60482 14.4754 8.32482 14.2454 8.05482 13.9954C7.77482 13.7554 7.50482 13.4854 7.50482 13.4854C7.50482 13.4854 7.44482 13.8854 7.38482 14.2854C7.35482 14.4854 7.32482 14.6854 7.30482 14.8354C7.29482 14.9054 7.28482 14.9754 7.27482 15.0154C7.27482 15.0554 7.27482 15.0854 7.27482 15.0854L7.19482 16.6954C7.19482 16.6954 7.51482 16.4954 7.83482 16.3054C8.15482 16.1154 8.47482 15.9454 8.47482 15.9454C8.47482 15.9454 8.79482 15.7754 9.11482 15.6154C9.43482 15.4554 9.74482 15.3154 9.74482 15.3154" fill="white"/>
<path d="M8.9452 12.6851C9.2552 12.7751 9.4452 13.0951 9.3652 13.4051C9.3252 13.5551 9.2252 13.6851 9.0952 13.7651C8.9652 13.8451 8.8252 13.8851 8.6652 13.8551C8.5052 13.8251 8.3652 13.7251 8.2952 13.5951C8.2252 13.4651 8.1952 13.3051 8.2352 13.1351C8.3252 12.7951 8.6452 12.5951 8.9552 12.6851" fill="white"/>
</svg>
